<?xml version="1.0" standalone="no"?>
<!DOCTYPE svg PUBLIC "-//W3C//DTD SVG 1.1//EN" "http://www.w3.org/Graphics/SVG/1.1/DTD/svg11.dtd" >
<svg xmlns="http://www.w3.org/2000/svg" xmlns:xlink="http://www.w3.org/1999/xlink" version="1.1">
<metadata>
Created by FontForge 20170731 at Wed Oct  7 18:00:53 2020
 By Aleksey,,,
Generated in 2013 by FontLab Studio. Copyright info pending.
</metadata>
<defs>
<font id="Luntik-Bold" horiz-adv-x="1175" >
  <font-face 
    font-family="Luntik"
    font-weight="700"
    font-stretch="normal"
    units-per-em="2048"
    panose-1="0 0 8 3 0 0 0 0 0 0"
    ascent="1638"
    descent="-410"
    x-height="1102"
    cap-height="1554"
    bbox="-195.231 -469.742 2232.36 2157.56"
    underline-thickness="102"
    underline-position="-409"
    unicode-range="U+0020-2260"
  />
<missing-glyph horiz-adv-x="2048" 
 />
    <glyph glyph-name=".notdef" horiz-adv-x="2048" 
 />
    <glyph glyph-name=".null" horiz-adv-x="0" 
 />
    <glyph glyph-name="nonmarkingreturn" horiz-adv-x="682" 
 />
    <glyph glyph-name="space" unicode=" " horiz-adv-x="548" 
 />
    <glyph glyph-name="exclam" unicode="!" horiz-adv-x="684" 
d="M137 152q6 66 56.5 108.5t115.5 36.5q66 -4 109 -55t37 -117q-4 -66 -55 -108.5t-117 -36.5t-109 56.5t-37 115.5zM186 569l66 785q6 63 51 97t109 28q62 -5 100.5 -47.5t34.5 -104.5l-68 -784q-6 -60 -51.5 -95t-108.5 -30t-101 46.5t-32 104.5z" />
    <glyph glyph-name="quotedbl" unicode="&#x22;" horiz-adv-x="909" 
d="M193 946l-78 338q-14 55 10.5 95.5t79.5 52.5q55 13 95 -12.5t52 -80.5l80 -338q12 -54 -12.5 -94t-79.5 -53q-55 -12 -95 13t-52 79zM555 1030l-78 338q-14 55 10.5 95.5t79.5 52.5q55 13 95.5 -12t52.5 -79l80 -340q12 -54 -13 -94t-80 -53q-55 -12 -95 13t-52 79z" />
    <glyph glyph-name="numbersign" unicode="#" horiz-adv-x="1296" 
d="M934 731l-23 -102q-4 -20 -4 -21q0 -18 21 -22h8l141 -13q48 -4 69.5 -34.5t18.5 -71.5q-3 -40 -30.5 -66t-75.5 -22l-168 14h-17q-7 1 -13.5 -3.5t-8.5 -12.5l-70 -305q-12 -53 -37.5 -73t-72.5 -15q-38 3 -63.5 28.5t-22.5 59.5q0 8 8 49l68 293l-162 14h-17
q-19 0 -22 -18q0 -1 -1 -4.5t-2.5 -9.5t-2.5 -11l-64 -279q-12 -54 -37.5 -73.5t-72.5 -16.5q-38 3 -63.5 28.5t-22.5 61.5q1 9 8 50l55 245q6 18 6 27q0 21 -20 21l-15 2l-135 12q-48 4 -70.5 35t-19.5 71q5 40 32.5 66t74.5 22l174 -14h12q7 -1 13.5 3.5t8.5 12.5l37 156
q1 7 2.5 15.5t2.5 13.5t1 6q0 19 -20 22l-149 13q-48 4 -71 35t-18 71q3 40 30.5 66.5t74.5 23.5l176 -16h10q20 0 23 18l69 303q12 54 38 74t73 17q38 -5 63.5 -30t22.5 -61q0 -8 -8 -49l-55 -243q-7 -21 -7 -29q0 -9 6 -15t15 -6l31 -4l112 -10h8q16 0 23 17l70 305
q12 54 37.5 73.5t72.5 16.5q38 -3 63.5 -28.5t22.5 -61.5q-1 -8 -8 -49l-57 -250q-4 -20 -4 -23q0 -17 20 -20l8 -2l142 -13q48 -3 70.5 -34t19.5 -72q-5 -39 -33 -65.5t-74 -22.5l-170 14l-16 2q-19 0 -23 -18v-2zM539 621l28 -3l109 -10h12q16 0 23 15q41 176 43 184
q3 16 0 24q-4 4 -17 7l-137 12h-16q-7 1 -14 -3.5t-9 -12.5l-39 -168q-1 -5 -2 -10.5t-1.5 -8.5t-0.5 -4q0 -19 21 -22z" />
    <glyph glyph-name="dollar" unicode="$" horiz-adv-x="1099" 
d="M1061 483q13 -191 -103.5 -323.5t-304.5 -167.5l-4 -2q-20 -3 -20 -21l4 -47q0 -25 0.5 -46t-11.5 -36.5t-38 -17.5q-26 -1 -40 15t-16.5 31t-5.5 48l-2 45q-3 16 -22 16q-71 -2 -139.5 6t-138 27.5t-113.5 61.5t-48 102q-5 62 30.5 106.5t96.5 47.5q43 3 142 -24.5
t151 -31.5q8 -1 12.5 2.5t5.5 8t1 12.5l-19 299q-3 19 -24 22q-162 36 -230 66q-167 73 -202 234q-7 33 -9 69q-8 123 41.5 225.5t138.5 167.5t205 90h2q21 3 21 21l-4 47q-1 28 -0.5 49.5t12 34.5t37.5 14q20 1 32.5 -4.5t18 -20t7.5 -28.5t3 -39l4 -45q0 -15 21 -18
q53 0 107.5 -8.5t110 -27t92 -55t40.5 -85.5q3 -63 -31.5 -110t-95.5 -50q-35 -2 -98.5 15.5t-91.5 21.5l-13 2q-12 1 -16 -5.5t-4 -17.5l14 -231q3 -15 21 -21q54 -12 89 -20.5t88 -26.5t88 -37.5t76 -52t65.5 -71.5t43.5 -94.5t23 -121.5zM422 1165q-39 -18 -61 -50
t-19 -73q3 -60 92 -94q21 -7 21 23l-11 170q-4 26 -14 26q-4 0 -8 -2zM629 293q53 23 79 67t23 99q-5 72 -96 110q-5 0 -23 9q-12 3 -16 -5t-4 -20l14 -236q1 -6 1.5 -7t2.5 -7.5t4 -6.5t6 -3.5t9 0.5z" />
    <glyph glyph-name="percent" unicode="%" horiz-adv-x="1478" 
d="M37 1085q-6 136 80.5 238.5t220.5 108.5q133 6 227.5 -88t100.5 -230t-79.5 -236t-219.5 -106t-229 86.5t-101 226.5zM459 1106q-3 50 -33.5 85t-79.5 32q-49 -1 -76 -38t-24 -89q2 -51 31.5 -84.5t78.5 -32.5q49 3 77 39t26 88zM319 139l621 1305q17 39 35.5 53t54.5 16
q48 3 86 -29t39 -79q3 -28 -12 -62l-631 -1314q-3 -4 -10 -15.5t-9.5 -15t-8 -11.5t-9 -10.5t-9.5 -7.5t-11.5 -6.5t-13.5 -3.5t-17 -2q-42 -2 -81 30t-42 76q0 40 18 76zM786 377q-6 134 80 236t219 108q134 6 229 -88t101 -230q6 -135 -80 -235.5t-219 -106.5
q-134 -6 -229 87t-101 229zM1206 395q-2 52 -31.5 86t-78.5 31q-49 -1 -76.5 -38t-24.5 -89q2 -51 32 -84.5t79 -30.5q49 1 76 37t24 88z" />
    <glyph glyph-name="ampersand" unicode="&#x26;" horiz-adv-x="1441" 
d="M1354 289q28 -26 40 -46t15 -53q5 -53 -34 -99t-97 -50q-65 -6 -113 37l-143 125q-11 7 -18 0h-3q-98 -101 -196.5 -157t-222.5 -66q-139 -13 -255.5 26.5t-194 135t-89.5 233.5q-11 139 61 258t197 205q4 0 4 8q0 2 -2 4.5t-2 3.5q-68 58 -104.5 117t-42.5 137
q-7 83 24 153.5t88.5 116.5t130.5 74t154 35q71 6 144 -8t138 -46.5t109.5 -92t50.5 -136.5q10 -112 -53 -210t-164 -163q-4 -4 -4 -8l4 -6l217 -201q8 -6 19 5l61 86q38 54 70 78.5t76 27.5q45 5 81.5 -28t42.5 -89q5 -74 -96 -204l-39 -50q-6 -12 4 -18zM571 1255
q-43 -3 -80 -36t-34 -76q4 -43 29 -76t89 -84q6 -6 13 -2q1 1 3 2t3 2h2q126 85 119 164q-3 33 -18 56t-37.5 33.5t-44.5 14.5t-44 2zM334 430q9 -95 71 -142.5t158 -39.5q73 7 127 38t107 89q6 6 6 13.5t-6 12.5q0 4 -19 19l-262 244q-14 14 -16 14q-13 13 -27 2
q-4 -4 -12 -8l-10 -10q-127 -107 -117 -232z" />
    <glyph glyph-name="quotesingle" unicode="'" horiz-adv-x="491" 
d="M434 1292l-129 -327q-14 -35 -46 -58t-60 -26q-56 -8 -102.5 25.5t-53.5 88.5q-5 34 12 84l127 326q14 35 47.5 59t61.5 27q56 8 103.5 -26t54.5 -89q5 -35 -15 -84z" />
    <glyph glyph-name="parenleft" unicode="(" horiz-adv-x="493" 
d="M436 1368q0 -12 -6.5 -39t-15.5 -57t-11 -39q-94 -325 -79 -649q14 -341 118 -600q14 -32 36 -89.5t22 -70.5q3 -58 -31.5 -95.5t-93.5 -39.5q-61 -2 -109 71q-80 126 -135.5 375.5t-64.5 437.5q-3 79 4.5 200t25.5 255.5t54 253t83 170.5q22 27 68 31q52 2 92 -30.5
t43 -84.5z" />
    <glyph glyph-name="parenright" unicode=")" horiz-adv-x="493" 
d="M4 -182q1 12 10.5 37.5t22.5 56t16 37.5q135 318 158 633q27 330 -45 612q-41 140 -39 164q5 59 44 92t97 29q65 -5 101 -86q64 -136 88.5 -391.5t9.5 -440.5q-8 -109 -42 -274.5t-97.5 -341t-132.5 -236.5q-27 -24 -70 -20q-53 5 -89 41t-32 88z" />
    <glyph glyph-name="asterisk" unicode="*" horiz-adv-x="796" 
d="M594 1055q5 -3 29.5 -15t32.5 -17t26 -17.5t24.5 -22t12 -24.5t4.5 -31q-5 -46 -40 -80.5t-79 -30.5q-9 1 -19 5t-17.5 8.5t-19 14t-17.5 15t-19.5 19t-19.5 18.5q-1 1 -3 2t-2 2q-7 6 -12.5 3t-5.5 -11q5 -88 2 -105q-4 -48 -36 -68t-77 -15t-71.5 30.5t-22.5 73.5
q1 15 11.5 53t13.5 53q1 7 -5 9.5t-12 -0.5q-7 -4 -25 -15.5t-25 -16t-21 -12t-22.5 -10.5t-19.5 -5t-20 -1q-45 4 -70 44t-20 87q1 16 9.5 29.5t17.5 22t27.5 17t29 12t34.5 11t32 9.5t9.5 7.5t-5.5 10.5q-7 4 -34.5 18.5t-38.5 22.5t-28.5 22.5t-23.5 31t-4 36.5
q5 47 36.5 80t75.5 29q12 -1 23.5 -5.5t25 -14.5t22 -17t26.5 -23.5t26 -23.5q6 -5 11.5 -3t5.5 11q-5 95 -4 106q4 47 36 67t76 17q46 -5 73 -30.5t21 -73.5q0 -3 -22 -104q-2 -6 2.5 -10t11.5 -1q8 5 28.5 18t29 17.5t23.5 12t27.5 9.5t24.5 1q44 -4 72 -43.5t23 -85.5
q-2 -17 -11 -31t-17.5 -22.5t-28.5 -17t-30 -12t-36.5 -11t-32.5 -9.5q-7 -3 -6.5 -9t8.5 -11z" />
    <glyph glyph-name="plus" unicode="+" horiz-adv-x="1228" 
d="M1016 686q57 7 94 -21.5t43 -84.5t-23 -93.5t-86 -44.5l-253 -28q-10 -2 -21 -2q-8 -2 -12.5 -9t-3.5 -14l30 -274q6 -56 -22.5 -92.5t-85.5 -42.5q-55 -7 -92 22.5t-43 83.5l-31 264l-2 10q0 9 -7 15t-16 4q-8 -2 -20 -2l-252 -29q-56 -7 -93.5 22.5t-43.5 84.5
q-6 56 22.5 93t85.5 44l275 31q8 2 12.5 8.5t3.5 13.5v10l-31 265q-6 56 23 92.5t86 42.5q55 7 92 -22.5t43 -84.5l31 -274q4 -22 24 -19z" />
    <glyph glyph-name="comma" unicode="," horiz-adv-x="548" 
d="M438 78l-209 -283q-23 -30 -60.5 -44t-64.5 -9q-54 6 -90 51.5t-30 100.5q5 31 34 77l209 283q23 30 60.5 43t66.5 10q55 -8 91.5 -53t29.5 -98q-2 -34 -37 -78z" />
    <glyph glyph-name="hyphenminus" unicode="-" horiz-adv-x="796" 
d="M180 723h436q55 0 86 -36.5t31 -94.5q0 -55 -31 -91t-86 -36h-436q-55 0 -86 36t-31 91q0 58 31 94.5t86 36.5z" />
    <glyph glyph-name="period" unicode="." horiz-adv-x="548" 
d="M115 135q0 66 46.5 113t112.5 47t113 -47t47 -113t-47 -113t-113 -47t-112.5 47t-46.5 113z" />
    <glyph glyph-name="slash" unicode="/" horiz-adv-x="833" 
d="M68 121l460 1292q27 79 109 84q51 3 88.5 -27t40.5 -77q0 -17 -14 -60l-459 -1292q-15 -38 -39.5 -59t-71.5 -25q-51 -3 -88.5 27t-40.5 77q0 13 15 60z" />
    <glyph glyph-name="zero" unicode="0" 
d="M49 774q6 74 20 145.5t39 145t59 137.5t82.5 118.5t106.5 92t133.5 55.5t161.5 11t157.5 -37t122 -77t90 -108.5t61 -131t36 -144.5t14.5 -150t-4 -147q-7 -87 -25.5 -170.5t-50.5 -167t-81 -152.5t-111.5 -120.5t-148 -76.5t-185.5 -17q-86 7 -158 37t-122 77t-90 108
t-61.5 130.5t-36 144.5t-14 150t4.5 147zM811 711q36 474 -184 491q-224 17 -260 -454q-3 -38 -4.5 -72.5t-0.5 -85t6.5 -92t18.5 -86.5t33 -76.5t53 -53.5t76 -26q43 -3 79.5 13.5t62 44t46 69.5t32.5 82.5t21.5 90t13.5 83.5t7 72z" />
    <glyph glyph-name="one" unicode="1" horiz-adv-x="757" 
d="M659 1290l-81 -1161q-6 -74 -51.5 -113t-112.5 -34q-68 5 -108 50t-36 120l70 968l2 33q0 23 -18 23q-9 2 -19 2l-82 6q-67 4 -99.5 48.5t-27.5 102.5q3 56 44 94.5t104 34.5l291 -20q63 -4 96 -47.5t28 -106.5z" />
    <glyph glyph-name="two" unicode="2" 
d="M952 315q71 8 118 -21t54 -97q6 -66 -33 -104.5t-100 -43.5l-680 -67q-72 -6 -119 23t-53 95q-4 47 37 109q47 69 144 202t170.5 241.5t132.5 215.5q61 101 53 195q-6 64 -53 106.5t-109 36.5q-54 -5 -88 -33t-46 -66.5t-22.5 -82.5t-19.5 -82t-36.5 -65t-72.5 -31
q-70 -7 -113.5 31.5t-49.5 101.5q-9 94 22 184t90.5 158t143.5 113.5t176 54.5q126 12 233.5 -29.5t177.5 -133t82 -218.5q6 -64 -10 -137t-42.5 -135t-73.5 -140t-84 -131t-93.5 -131.5t-83.5 -118.5q-2 -2 -4.5 -6.5t-3.5 -5.5q-8 -12 -3 -16.5t25 -3.5h3z" />
    <glyph glyph-name="three" unicode="3" 
d="M881 760q95 -61 147 -157.5t45 -207.5q-9 -121 -84 -219.5t-198 -151t-265 -42.5q-87 7 -164 37t-131.5 74t-94 97t-57 107.5t-13.5 103.5q3 57 54.5 93.5t110.5 31.5q38 -3 63.5 -29.5t43.5 -63t40 -73.5t65.5 -65t107.5 -33q80 -5 139.5 45t65.5 131q5 58 -11.5 96
t-45.5 55.5t-65.5 27t-73.5 18t-67 22t-47 44t-14 79.5q3 43 21 70t44.5 38.5t58.5 17.5t63.5 13t58 19.5t44.5 41.5t21 75q5 60 -32 101.5t-105 45.5q-53 4 -93 -14t-63.5 -45.5t-45 -56t-50.5 -47t-67 -15.5q-60 4 -93 52.5t-28 109.5q5 78 74 150t177 113.5t218 33.5
q84 -6 155 -34.5t118 -71t78.5 -94.5t44.5 -104.5t9 -101.5q-12 -189 -170 -289q-7 -5 -8.5 -8.5t1 -7t11.5 -8.5z" />
    <glyph glyph-name="four" unicode="4" 
d="M983 612q60 5 105 -29t49 -94q6 -60 -31.5 -100.5t-99.5 -46.5h-15q-18 -4 -18 -23l14 -153q8 -80 -24 -122.5t-109 -49.5q-76 -6 -114 29.5t-46 115.5l-14 154q0 18 -23 18h-6l-463 -43q-69 -6 -109.5 28.5t-43.5 80.5q-3 6 -0.5 21t1.5 18t3.5 15.5t5 13.5t5.5 12t5 12
l381 868q28 65 74.5 97.5t122.5 38.5q63 6 116.5 -14.5t93.5 -78.5t48 -147l55 -604q0 -9 6.5 -14t14.5 -5zM635 580q18 4 18 22l-47 506q-6 36 -22 0l-191 -506q-2 -4 -5 -12t-5 -12q-8 -19 14 -19z" />
    <glyph glyph-name="five" unicode="5" 
d="M655 975q121 -7 215.5 -71.5t142 -167.5t40.5 -222q-15 -260 -165 -403.5t-409 -128.5q-58 3 -131 25.5t-143.5 59.5t-117 94t-42.5 120q3 57 47 95.5t101 35.5q27 -1 64 -24t70 -49.5t81 -50t94 -26.5q68 -4 121 34t79.5 96.5t30.5 125.5q6 93 -42.5 152t-141.5 65
q-60 3 -126.5 -26.5t-117.5 -26.5q-54 3 -85.5 36.5t-29.5 65.5q1 12 11 70l75 428q21 114 58 151.5t112 32.5l494 -28q68 -4 106 -42.5t35 -95.5q-2 -40 -15.5 -69t-30.5 -43.5t-39.5 -22.5t-37 -9.5t-28.5 -0.5l-365 23h-2q-15 0 -22 -21l-37 -178q0 -15 16 -12
q76 11 135 8z" />
    <glyph glyph-name="six" unicode="6" 
d="M618 948q119 15 225 -36t174 -148.5t83 -216.5q12 -98 -14.5 -194.5t-83.5 -174t-148 -131t-201 -67.5q-114 -14 -215.5 14.5t-175 89.5t-121 147.5t-59.5 186.5q-14 109 20 252.5t97.5 279.5t136.5 256t145 205q7 9 58 55q20 18 59 23q45 6 101 -35.5t63 -93.5
q2 -29 -33 -90q-26 -43 -111 -162.5t-116 -175.5q-5 -11 0 -14t20 4q49 20 96 26zM616 272q86 10 132.5 77t35.5 157q-11 87 -69.5 142.5t-149.5 45.5q-86 -10 -132.5 -77t-35.5 -158q11 -90 71 -144.5t148 -42.5z" />
    <glyph glyph-name="seven" unicode="7" horiz-adv-x="1101" 
d="M930 1417q70 -4 105.5 -54.5t33.5 -100.5q0 -9 -1.5 -17.5t-5.5 -19t-6.5 -17t-9.5 -19.5t-9.5 -18t-11.5 -21t-11 -20l-565 -999q-51 -92 -83.5 -120.5t-97.5 -24.5q-78 4 -121.5 53t-40.5 100q3 32 25 70l547 907q1 2 4 6t4 6q8 18 -12 21l-500 29q-76 4 -110 47
t-31 102q3 61 40.5 99t116.5 34z" />
    <glyph glyph-name="eight" unicode="8" 
d="M891 762q91 -61 135 -155t35 -204q-9 -104 -57 -189t-122 -138t-168 -78t-196 -16q-104 9 -194 51t-152.5 108t-94 156t-22.5 190q9 113 70.5 196.5t159.5 129.5v2q17 6 2 21q-129 122 -115 290q15 176 150.5 273t322.5 82q120 -10 216 -65.5t150 -151.5t44 -213
q-6 -79 -49 -151t-111 -114q-18 -13 -4 -24zM623 1212q-70 6 -112 -34t-48 -109q-6 -70 29.5 -116t103.5 -52q70 -6 113.5 33.5t48.5 109.5q6 68 -29.5 115t-105.5 53zM543 262q82 -7 138 49.5t64 139.5q7 95 -38 153t-129 66q-87 7 -142 -46.5t-61 -142.5q-8 -84 35.5 -148
t132.5 -71z" />
    <glyph glyph-name="nine" unicode="9" 
d="M547 1481q114 9 214.5 -24.5t171 -97.5t114.5 -153t51 -190q9 -110 -31.5 -251.5t-110.5 -274.5t-149.5 -249t-155.5 -198q-21 -25 -61 -53q-24 -19 -60 -19q-45 -5 -98.5 40t-56.5 98q0 5 0.5 10.5t1 10t3.5 11t4.5 10t5.5 11t5.5 10t7 11.5t7.5 12q27 38 118 155
t125 172q6 9 1.5 13.5t-15.5 1.5q-52 -22 -104 -25q-119 -9 -222.5 47.5t-166.5 157t-72 219.5q-7 98 24 193t91.5 170t154 124.5t203.5 57.5zM602 764q86 6 135 70.5t43 156.5q-8 89 -65 146t-146 51q-86 -7 -135 -71.5t-43 -155.5q8 -88 63.5 -146t147.5 -51z" />
    <glyph glyph-name="colon" unicode=":" horiz-adv-x="548" 
d="M281 850q-66 0 -113 -47t-47 -113q0 -65 47 -111.5t113 -46.5t112.5 46.5t46.5 111.5q0 66 -46.5 113t-112.5 47zM244 403q-66 0 -113 -46.5t-47 -112.5t47 -113t113 -47t112.5 47t46.5 113t-46.5 112.5t-112.5 46.5z" />
    <glyph glyph-name="semicolon" unicode=";" horiz-adv-x="548" 
d="M422 279q0 -34 -27 -82l-172 -308q-19 -32 -54 -50.5t-63 -18.5q-56 0 -97.5 40t-41.5 95q0 34 25 82l170 307q19 32 55 51t64 19q56 0 98.5 -40t42.5 -95zM295 858q66 0 113 -47t47 -113q0 -65 -47 -111t-113 -46t-113 46t-47 111q0 66 47 113t113 47z" />
    <glyph glyph-name="less" unicode="&#x3c;" horiz-adv-x="1228" 
d="M1090 231q76 -26 79 -98q4 -62 -21.5 -97.5t-66.5 -37.5q-39 -4 -104 20l-832 316q-79 28 -84 110q-5 80 68 121l780 426q64 35 99 39q41 2 72.5 -30t35.5 -93q3 -71 -67 -108l-635 -320q-19 -11 2 -20z" />
    <glyph glyph-name="equal" unicode="=" horiz-adv-x="1228" 
d="M1067 823q56 -6 86 -42.5t25 -92.5q-6 -55 -42.5 -85t-93.5 -25l-833 84q-56 6 -86 42.5t-25 92.5q6 56 42 85t93 23zM1022 367q56 -6 85 -42.5t23 -91.5q-5 -56 -40.5 -86t-92.5 -24l-835 84q-55 4 -85 40.5t-24 92.5q5 56 41.5 86.5t91.5 24.5z" />
    <glyph glyph-name="greater" unicode="&#x3e;" horiz-adv-x="1228" 
d="M1108 555q73 -45 66 -123q-8 -80 -87 -108l-835 -306q-61 -20 -105 -20q-40 3 -66 39.5t-20 97.5q7 72 82 98l676 218v2q11 3 12 8t-8 10l-633 328q-39 22 -53 48.5t-12 61.5q6 61 36.5 92.5t71.5 28.5q37 -4 101 -39z" />
    <glyph glyph-name="question" unicode="?" horiz-adv-x="985" 
d="M352 293q65 -6 107 -58t35 -116q-7 -66 -59 -108t-118 -36q-64 7 -105.5 59.5t-35.5 117.5q8 66 59 107t117 34zM930 985q-17 -158 -115 -250t-258 -121h-2q-20 -2 -23 -18l-2 -16l-4 -41q-6 -62 -51.5 -97t-109.5 -28q-68 7 -103 49.5t-29 105.5l23 203q1 11 4.5 20.5
t7.5 16.5t12.5 13t15 10t19 8t20 6.5t23 5t23.5 3.5t26 3.5t25 3.5q37 6 62 14t53 24.5t44.5 46t20.5 71.5q7 65 -39 115.5t-112 58.5q-48 4 -89.5 -12.5t-71.5 -43t-58 -53.5t-61.5 -44.5t-69.5 -14.5q-54 6 -84.5 50t-24.5 110q9 77 60.5 138t124.5 94.5t152.5 48.5
t149.5 8q204 -23 333 -157t108 -331z" />
    <glyph glyph-name="at" unicode="@" horiz-adv-x="1638" 
d="M1417 393q75 5 80 -69q3 -27 -8 -52t-37 -63q-186 -200 -565 -229q-153 -13 -296.5 34.5t-252.5 139.5t-180 225.5t-84 286.5q-13 152 35 296t140 253t226 180t287 84q113 10 226.5 -12t212.5 -74t177.5 -125t128 -172t58.5 -209q7 -82 -10.5 -155.5t-51.5 -128
t-80.5 -100.5t-95.5 -77t-97.5 -53t-84.5 -32.5t-60 -12.5q-121 -8 -145 65q-2 11 -7 14t-11 -6l-4 -4q-76 -89 -191 -98q-84 -8 -159 38.5t-120.5 124.5t-52.5 165q-10 118 29 225t126 180t204 82q145 13 231 -80q6 -8 13 -7t8 11q-9 98 104 107q40 3 68.5 -9.5t31.5 -39.5
q1 -15 -4 -66l-49 -379q-4 -16 -4 -67q3 -42 51 -39q19 2 43 14.5t50.5 39.5t47 63.5t31.5 91.5t6 118q-12 141 -102 243.5t-222.5 148t-281.5 32.5q-154 -13 -278 -100t-188.5 -223.5t-51.5 -290.5q12 -155 98.5 -279.5t223 -189t290.5 -51.5q245 20 416 131
q11 7 59.5 52.5t71.5 47.5zM600 674q7 -71 48.5 -120.5t109.5 -43.5q88 7 140 78t46 160q-6 72 -52.5 118.5t-117.5 40.5q-78 -6 -129 -80t-45 -153z" />
    <glyph glyph-name="A" unicode="A" horiz-adv-x="1361" 
d="M1321 205q4 -59 -34.5 -101t-96.5 -45q-114 -8 -158 95q-69 174 -71 178q-3 10 -13 8q-1 0 -10.5 -0.5t-29 -1.5t-40.5 -2q-8 -4 -24 -4q-44 -7 -47 -15q-1 -3 4 -6.5t14 -6t19 -3.5q9 0 16 2t9 3.5t4.5 2.5t2.5 0q1 -4 -5.5 -8.5t-18.5 -8.5t-25 -5q-47 -5 -98 28
q-3 2 -4.5 2.5t-2.5 -1t-1.5 -3.5t-1 -6t-0.5 -6q-3 -9 -10.5 -15.5t-12.5 -4.5q-1 1 6 8q5 16 -2 20q-8 10 -41 10h-2q-67 -5 -156.5 -11.5t-95.5 -6.5q-3 0 -5 -2.5t-1 -5.5l-47 -187q-27 -110 -139 -118q-62 -5 -110 32.5t-52 98.5q-2 36 10 67l86 303q2 7 5 20.5t3 14.5
q0 14 -4 15q-3 4 -12.5 1t-13.5 -12q-3 -6 -4.5 -10.5t-1 -5.5t0.5 -2.5t-1 -1.5q-2 -1 -6 5t-4 17.5t7 22.5q12 18 39 29q21 9 23 18v4q2 23 -14 51q-2 5 -17 29t-20 37q-26 73 -8 127q6 17 17.5 29t21 16t12.5 2q1 -1 -1.5 -2.5t-6.5 -4.5t-8.5 -6.5t-8 -9.5t-4.5 -12
q-4 -26 7.5 -53t23.5 -39q21 -20 26.5 -13.5t-2.5 27.5q-15 46 -10 82q3 48 34 75q14 12 15 3q2 -5 0 -10t-7 -14t-7 -21q-4 -19 -0.5 -31t8.5 -16.5t10 -3.5q12 4 17 20q102 338 135 463q21 75 76 126.5t129 57.5q79 6 139 -36t92 -117l17 -35q9 -21 24.5 -40.5t24.5 -20.5
q4 1 7 7.5t2 20t-7 29.5q-7 15 -15.5 24t-14.5 12t-10 5.5t-3 5.5q2 11 26 -5q20 -13 33 -34q7 -11 12 -21t6.5 -21.5t2.5 -17.5t-1.5 -19.5t-3 -16.5t-5.5 -18.5t-5 -16.5q-9 -18 0 -27q3 -4 33 -20q7 -3 20 -20t17 -31q2 -24 -5 -26q-1 0 -3 3q-4 22 -19 37q-17 11 -22 8
q-2 -2 -2 -8l372 -835q19 -44 23 -74zM469 594q3 -4 18 -4l326 24q2 -2 8.5 0.5t9.5 6.5q6 13 5 20q-74 171 -158 391q0 2 -2 2q-3 8 -14 8q-5 2 -8 3.5t-4 2.5t-2.5 1.5t-2.5 1.5q-4 2 -7.5 4.5t-6 4.5t-4.5 4.5t-2 4v2.5q1 1 2 0q4 -4 14 -8q8 -2 16 6q1 1 1 5t-1 5
q-2 4 -2 8q-26 62 -28 66q-7 11 -19 8q-14 -2 -14 -12q-101 -414 -133 -537q3 -13 8 -18z" />
    <glyph glyph-name="B" unicode="B" horiz-adv-x="1247" 
d="M1188 498q20 -211 -97.5 -339t-332.5 -149l-422 -37q-71 -8 -120.5 29.5t-55.5 108.5l-6 53q-2 14 -2 24q-1 1 -3.5 8.5t-3.5 8.5q-5 5 -11 -5q-3 -6 -3 -14q0 -11 3 -18t5.5 -10.5t1.5 -5.5q-2 -2 -8 2.5t-11.5 18t-4.5 32.5q8 32 18 45q8 10 8 24l-2 19v0l-22 239
q1 6 -6 66q-7 66 -23 74q-10 1 -17.5 -17.5t-9.5 -44.5q1 -18 6 -31t7.5 -14t-0.5 -4q-6 -3 -15.5 7.5t-17.5 31t-10 41.5q-4 44 2 76t28 82q5 13 -4 12l-12 -4q-16 -6 -16 -1v3q1 6 26 39.5t27 52.5l-6 60q-4 22 -15 30q-20 17 -34 53q-6 27 -2 43.5t9.5 24t8.5 6.5
q2 -2 0 -8t-4.5 -14.5t0.5 -24.5q3 -8 7.5 -14t8.5 -6.5t6 0.5q5 3 5 22q0 4 -1 13t-1 14l-15 153q-7 72 33.5 117t112.5 51l18 2q75 14 80 17q16 4 18 17t-2 20q-1 3 -14 16q-3 3 -6 4t-4.5 1t-1.5 1q0 5 7 6.5t17.5 -1t20.5 -9.5q13 -11 24 -33q4 -9 11 -12q28 87 139 84
q22 -1 42 -10t29 -18.5t5 -12.5t-10.5 2t-23 11t-40.5 3q-20 -2 -34 -14t-17.5 -24t0.5 -17q4 -4 30 -4l103 8q163 15 283 -74t135 -247q10 -104 -27.5 -180.5t-126.5 -133.5q-2 0 -4 -4l8 -4q131 -9 225.5 -98t106.5 -219zM418 864v-2l137 15q76 6 116.5 53t33.5 123
q-6 70 -56.5 102.5t-122.5 26.5l-139 -15q-15 0 -18 -20l26 -264q3 -19 23 -19zM776 301q103 51 94 170q-8 74 -67.5 112t-163.5 29l-195 -18q-23 -4 -20 -23v-4l27 -288q2 -1 2 -3q0 -9 7 -14.5t15 -5.5l74 8q32 4 37 17q1 4 -5 8t-17.5 7t-24.5 3q-10 -1 -18 -2.5
t-12 -3.5l-7 -3.5t-4 -1t-2 2.5q-1 4 7 10.5t23.5 12.5t32.5 8q62 5 129 -37q6 -2 7 -1t2 9t3 12q1 10 11 18.5t16 6.5q1 0 -0.5 -2t-5.5 -6q-9 -18 0 -27q14 -14 55 6z" />
    <glyph glyph-name="C" unicode="C" horiz-adv-x="1288" 
d="M813 -25q-49 -5 -61 -24q-9 -8 -1.5 -22.5t35.5 -22.5q8 -3 15 -4.5t12.5 -2t10.5 0t8.5 1t6.5 0.5t5 0.5t3.5 0.5t2 -1t0.5 -3q0 -7 -17 -13.5t-41.5 -9t-52.5 3.5q-52 10 -88 29t-86 61q-16 14 -16 -2q0 -3 1 -11q1 -19 -5 -19q-1 0 -4 2q-6 3 -40.5 47.5t-56.5 54.5
q-49 21 -84 49q-133 92 -215.5 239t-99.5 330q-21 211 49.5 390t222 293.5t355.5 134.5q47 2 104 3t118.5 -11t112.5 -31.5t86 -58t40 -89.5q5 -43 -14.5 -80.5t-57.5 -54.5q-1 -1 -4.5 -3.5t-5 -3.5t-4.5 -3.5t-4.5 -4l-4 -4t-3.5 -4t-2.5 -4t-2.5 -4.5t-1.5 -4.5
t-0.5 -5.5q0 -21 21 -35q5 -3 12 -6t10 -4.5t0 -3.5q-15 -9 -50 5.5t-48 37.5q-5 8 -13 -9q-1 -2 -2 -5q-7 -15 -12 -23q-9 -19 -24.5 -33.5t-24.5 -13.5q-5 3 -4.5 5t5.5 10t7 14q8 19 8 37q-2 24 -18 0q-41 -48 -131 -48q-28 0 -53 8.5t-38 19t-11 17.5q1 3 2.5 3.5t6 -1
t11 -3.5t19 -4t26.5 -1q56 2 78 35q5 7 7.5 16.5t1.5 22t-15.5 21.5t-42.5 10q-36 0 -56 -2q-122 -12 -204 -85.5t-114.5 -180.5t-19.5 -234q13 -125 65.5 -221.5t147 -150.5t216.5 -42q58 5 109 23.5t81 38t64 36t61 19.5q62 5 102.5 -38t44.5 -87q6 -69 -38 -124.5
t-117.5 -87.5t-143.5 -49.5t-135 -23.5q-4 0 -6 -2z" />
    <glyph glyph-name="D" unicode="D" horiz-adv-x="1390" 
d="M645 1464q339 -17 519 -228t165 -556q-15 -301 -193.5 -483t-463.5 -191q-49 -4 -51 -6q-8 -11 18 -27q19 -8 53 -4q9 0 2 -8q-8 -7 -26 -10q-17 -3 -42.5 4.5t-35.5 15.5q-15 9 -12 -8q4 -12 14 -22q2 -3 4 -4.5t3 -1.5t1.5 -1t-0.5 -2q-2 -3 -6.5 -2t-13 6.5
t-17.5 14.5q-29 29 -31 49q0 11 -7 1q0 -2 -1 -3q-20 -43 -60.5 -60.5t-94.5 -7.5q-23 5 -43 16.5t-28.5 22.5t-2.5 15q4 2 10.5 -4.5t22.5 -14.5t41 -8q21 -1 36.5 9.5t20.5 22t2 17.5q-2 3 -8 5t-16 3t-19 1.5t-22 1.5t-19 1l-106 7q-62 2 -110 41t-44 118l35 709
q0 51 -15 59q-9 3 -19 -14t-13 -43q-1 -7 -1 -13v-10.5t1 -8.5t2 -7t1.5 -5.5t1 -3.5t0.5 -2.5t-0.5 -2t-2.5 -0.5q-6 -1 -13.5 11t-13 33.5t-4.5 43.5q4 41 8 61q5 16 3 17q-2 0 -7 -7q-8 -14 -23 -13q-5 1 -4 5q0 1 3.5 3t11 13.5t16.5 32.5q5 12 19.5 24t31.5 13
q14 3 1 11q-9 6 -19 6q-11 -2 -23.5 5.5t-9.5 14.5q1 2 8 0t16.5 -4t20.5 4q14 8 25 29.5t12 44.5q0 27 2 39q-4 13 -8 14q-3 1 -7.5 1t-10 -5.5t-7.5 -13.5q-2 -12 0 -20q1 -3 -2 -5q-2 -2 -7.5 4t-8 17t1.5 26q10 26 37 43q12 10 16 29v12q3 70 49.5 111.5t116.5 38.5z
M1010 711q5 100 -15 182.5t-65.5 146t-122 100.5t-180.5 42l-164 8v0q-15 0 -19 -6q-4 -2 -4 -6l-20 -424v-6q0 -17 12 -33q29 -32 29 -66q3 -28 -4 -49t-15.5 -28t-11.5 -3q-2 3 1.5 8t7.5 16t3 25q-1 13 -5.5 21t-9 10t-7.5 0q-6 -6 -6 -18l-17 -318q0 -4 4 -8q3 -6 11 -6
l192 -10q128 -6 219 49.5t136 150.5t51 222z" />
    <glyph glyph-name="E" unicode="E" horiz-adv-x="1003" 
d="M768 266q69 -4 103.5 -48t31.5 -103q-5 -56 -46 -95.5t-109 -33.5l-25 2q-88 4 -100 -23q-10 -23 0 -45q2 -4 7 -9q3 -6 1 -7q-10 -2 -25.5 11t-19.5 32q-1 6 -2 14l-1.5 12t-2 8.5t-5 3.5l-10.5 -3q-118 -72 -217 -62q-29 2 -55 11t-39 19.5t-10 18.5q5 5 6.5 2.5t19 -9
t41.5 -7.5q23 0 43 5.5t30 13t7 14.5q-6 22 -94 28l-76 7q-68 5 -109.5 50t-37.5 113l80 1125q6 80 49.5 126t122.5 40l282 -21q32 0 37 12q3 8 -13.5 18.5t-41.5 14.5q-17 3 -31 1t-15 -4t-5 3q0 10 28 20t60 7q43 -5 73.5 -17t73.5 -41q9 -5 12 -3t2.5 8t-2 12t0 10t6.5 2
q5 -3 17.5 -18t28.5 -29t31 -18h4q49 -17 73.5 -57t21.5 -87q-5 -57 -46.5 -96t-109.5 -35l-340 25q-7 0 -13.5 -6.5t-6.5 -14.5l-2 -16l-17 -240q-1 -9 5.5 -15.5t15.5 -6.5l16 -2h16q47 -4 50 16t-17 37q-5 5 -15 11l-5 5q17 7 49 -11.5t43 -41.5q4 -8 16 11l1 2
q9 13 14 20q12 18 29 31t26 10q3 -1 4 -3t-0.5 -5t-4 -6t-6 -7t-5.5 -8q-10 -20 -13 -35q-2 -25 19 -4q44 44 135 31q28 -3 52 -14t35.5 -23t8.5 -20q-5 -4 -6 -2t-18 8.5t-39 9.5q-26 2 -46 -1t-29.5 -9t-8.5 -13q1 -2 2 -3.5t4 -3t5.5 -2t7 -1.5t7.5 -2q64 -9 96 -51.5
t27 -97.5q-3 -57 -45 -96t-112 -35l-314 22q-9 1 -15.5 -5t-8.5 -15v-4l-19 -263q0 -9 6 -15.5t15 -6.5l18 -2z" />
    <glyph glyph-name="F" unicode="F" horiz-adv-x="942" 
d="M737 899q70 3 111.5 -36t44.5 -95q3 -58 -33.5 -103t-105.5 -49l-303 -18q-5 0 -11 -6q-2 -4 -2 -10l25 -430q4 -75 -36 -120t-108 -48q-68 -5 -112.5 34.5t-48.5 114.5l-19 297v4v15l-6 73q-4 31 -10 39q-5 5 -18 -1.5t-25.5 -25t-11.5 -42.5q1 -22 7.5 -38.5t13 -23
t10.5 -11.5t1 -9q-7 -12 -29 15q-24 27 -32 64q-14 62 4.5 109t67.5 70q5 0 6 5q-1 2 -4 3q-27 4 -56 33q-10 10 -16 19.5t-7.5 15t1.5 8.5q2 1 2 -2q2 -6 6 -9q17 -13 29 -16q8 -2 10 2.5t-4 13.5q-9 11 -17.5 38.5t-5.5 47.5q4 29 14 32q2 1 3 -1v-4t-0.5 -11.5t0 -14
t2.5 -13.5t6 -18q12 -24 29 -21q8 0 8 41l-29 465q-3 66 37.5 116t112.5 54l524 31q64 3 103 -36t42 -97q3 -57 -30.5 -101.5t-98.5 -48.5l-354 -20h2h-4q-10 0 -16 -9l-3 -10v-6l15 -250l2 -10q0 -6 4 -10t12 -4z" />
    <glyph glyph-name="G" unicode="G" horiz-adv-x="1480" 
d="M1260 807q95 -10 131.5 -63t25.5 -152q-19 -157 -86.5 -284.5t-175.5 -209.5q-2 -1 -5 -4t-5 -4q-14 -11 -17 -37q-7 -34 -26 -53q-23 -23 -47 -14q-6 3 -6 6q0 2 0.5 2.5t1.5 1t2 0.5t3 0.5l4 1t5.5 3t7.5 5.5q9 7 9.5 20t-3.5 15q-10 3 -22 -4q-15 -5 -17 -6
q-162 -75 -364 -54q-152 17 -277 90t-204.5 184t-115.5 255t-18 301q19 164 90 300t185 228q8 8 8 15q0 6 -5.5 10.5t-18 5.5t-31.5 -6q-17 -5 -27.5 -14.5t-15.5 -8.5q-10 0 2 19q24 34 69 45q43 11 86 2q22 -4 27 2t-18 27q-14 10 -40 16t-59 -2q-7 -2 -12.5 -7t-9 -9.5
t-5.5 -9t-3 -6.5t-2 -1q-2 3 1 13t13.5 23t26.5 21q50 31 131 15q11 -2 25 -7.5t28.5 -12.5t19.5 -9q20 -3 49 0q130 36 271 21q148 -17 274 -74t193 -132t59 -145q-7 -65 -46.5 -100t-94.5 -29q-45 5 -83.5 32.5t-85.5 66.5t-99 61q-42 15 -56 4q-28 -20 -55 -24
q-31 -5 -49.5 -0.5t-28 12t-6.5 10.5q3 2 8.5 -0.5t17 -5.5t25.5 0q13 2 20.5 7t8 9.5t-1.5 8.5q-5 10 -27 16q-4 0 -6 2q-92 11 -170.5 -19.5t-132 -91t-87.5 -141t-44 -174.5q-11 -95 3.5 -180.5t53 -156t109 -116.5t164.5 -57q60 -7 119 3.5t113 38.5t93.5 84t52.5 132
v17q-3 8 -14 8l-190 22q-62 6 -97.5 51t-29.5 107q6 48 34 79t70 42q13 2 31 3.5t29.5 3t15.5 5.5q5 4 -0.5 17.5t-22.5 25.5t-39 12q-26 1 -43.5 -7t-24.5 -14t-11 -3q-6 4 3 15t30.5 22.5t45.5 15.5q60 9 102.5 -12t61.5 -68q0 -3 5 -6q4 -3 4 2q3 24 34 51q10 9 19 14.5
t14.5 6t7.5 -3.5q-1 0 -4 -1.5t-6 -4.5q-13 -13 -16 -25q-3 -8 1 -10t13 2q11 7 37.5 13.5t44.5 2.5q29 -6 30 -16q1 -3 -5 -2q-35 4 -56 -4q-8 -3 -14.5 -10.5t-5.5 -14.5l-1 -4q0 -3 0.5 -4.5t1.5 -5.5t4.5 -6.5t8.5 -6t14 -7t21 -5.5z" />
    <glyph glyph-name="H" unicode="H" horiz-adv-x="1441" 
d="M1157 1497q67 3 112.5 -37t49.5 -114l61 -1162q3 -75 -37.5 -120t-107.5 -48q-68 -3 -113.5 37.5t-48.5 114.5v2v2v2l-2 41q-7 14 -10 14q-7 3 -19.5 -2t-23.5 -21.5t-10 -39.5q0 -21 5 -36t11 -21.5t10 -11.5t2 -9q-4 -6 -15.5 3t-24 30t-17.5 45q-21 117 72 166
q6 4 -8 9q-5 2 -7 3q-24 6 -39 23q-9 8 -14 19.5t-4.5 19.5t4.5 10q1 1 1.5 -1t3 -6.5t5.5 -7.5q13 -9 23 -12q25 -5 39 12q1 3 1.5 6.5t1 10.5t1.5 12l-8 168q0 3 -9 12q-4 2 -10 2l-608 -32q-6 0 -10 -2q-6 -6 -6 -17l22 -428q4 -74 -36.5 -118.5t-108.5 -49.5
q-68 -3 -113 37.5t-49 116.5l-4 84q-3 38 -23 51q-12 8 -35 -6q-3 -2 -7 -8q-3 -4 -3 -2q-3 8 4.5 21.5t20.5 19.5q4 2 10 3.5t9.5 2.5t6 2.5t2 4t-3.5 7.5q-67 74 -73 156q-3 24 -0.5 43.5t8.5 31.5t12 11q4 0 3 -5t-3 -17t2 -32q4 -26 14 -42.5t19 -14.5q20 4 20 74
l-41 774q-3 75 37.5 120t108.5 48q68 5 113.5 -36t48.5 -116l22 -411q0 -11 6 -17l21 -4q174 11 332 19q44 4 49 20q2 8 -16.5 17t-43.5 10q-17 0 -31 -4.5t-15 -6.5t-5 1q-2 10 25 23.5t59 16.5q6 -1 27 -1.5t30 -2.5q19 -4 18 0l-7 4q-14 10 -14 23q0 4 3 4q1 0 3.5 -3
t14.5 -10t34 -14q12 -4 25 -16.5t14 -28.5q5 -15 11 1q4 11 3 20q-2 9 4 21.5t12 11.5q2 -1 1.5 -7.5t-1.5 -16t4 -21.5q16 -24 45 -29l9 2q16 0 20 4q6 6 6 12l-22 418q-4 75 36.5 120t108.5 48z" />
    <glyph glyph-name="I" unicode="I" horiz-adv-x="546" 
d="M489 684q-1 -53 -13.5 -91t-43.5 -93q-5 -8 -5 -12t3.5 -5t8.5 0t10.5 2.5t10 2t7 -1.5t0.5 -7t-22 -25.5t-37.5 -48t-20.5 -55.5q0 -16 -2 -22l-6 -185q-1 -75 -45.5 -115.5t-112.5 -37.5q-68 2 -109 45.5t-40 118.5l41 1163q1 75 45 115.5t112 37.5q68 -2 109.5 -45
t40.5 -118l-21 -586q0 -56 19 -64q6 -3 14 5.5t14.5 26t8.5 38.5q3 21 -0.5 37t-5.5 18t2 6q8 2 17.5 -12.5t15.5 -40t5 -51.5z" />
    <glyph glyph-name="J" unicode="J" horiz-adv-x="833" 
d="M766 438q8 -99 -10.5 -178.5t-54.5 -130t-88 -85.5t-105 -51t-113 -20q-39 -7 -73 -22q-85 -35 -99 -33q-4 0 -4.5 2t1 5t4.5 6.5t5.5 6.5t3 6t-2 4t-9.5 1q-49 -3 -79 1t-66 21q-17 8 -32 21.5t-22 25t-4 15.5q1 2 2 2t2.5 -1t2.5 -3t4 -5t6.5 -5.5t10 -6t13.5 -6.5
q53 -17 56 0q2 6 -11 19q-96 52 -102 149q-3 45 26.5 87.5t77.5 45.5h21q13 0 23 8q35 20 59 15q24 -3 40.5 -13.5t21.5 -20t1 -11.5q-2 -2 -6 2t-13.5 10t-21.5 8q-9 2 -15.5 -0.5t-8.5 -6.5t0 -7q2 -5 18 -10q3 -1 10.5 -4.5t10.5 -4.5q70 -24 110 -20q41 3 65.5 22.5
t30.5 46t8.5 56.5t-1.5 55l-10 123q-9 30 -23 35q-12 3 -25 -1.5t-20 -8t-8 -0.5q-3 6 4 17t18 19q2 1 6 3.5t6 4t6 4t6 4t5 4t4 4.5t1.5 4.5t-0.5 4.5t-3 4q-18 15 -29 33q-33 47 -37 92q-2 20 2.5 38.5t11.5 28.5t13 9q3 0 1.5 -3.5t-4 -14t0.5 -29.5q4 -23 13.5 -38.5
t17.5 -12.5q12 6 12 51l-4 45q0 4 -1 13t-1 12v4l-35 430q-6 73 33.5 119t107.5 51q68 6 114 -33.5t52 -114.5z" />
    <glyph glyph-name="K" unicode="K" horiz-adv-x="1251" 
d="M702 782q-6 -6 -6 -12q0 -8 4 -10l158 -193q7 -10 14 -10q21 7 25 27q2 12 -1 25q0 1 3 1q2 1 6 -5t7.5 -18t2.5 -24q0 -8 -4 -37q-3 -7 1.5 -20t11.5 -21q6 -5 14.5 -15t9.5 -11q36 -50 56 -43q7 2 3 18t-16 37q-4 7 -8.5 12t-8 8t-7 5.5t-5.5 3.5t-3.5 2t-1.5 1.5
t1 2.5q5 3 16 0.5t28 -14.5t30 -27q22 -25 29 -47q11 -15 11 -8q0 2 -1 6q-2 14 8 20q4 2 6 -2l-1 -3q0 -3 1.5 -14.5t8.5 -31.5q9 -32 -11 -55q-9 -7 -1 -7q12 -1 22 9q5 5 18 7t15 -3q1 -1 -1 -2l-6 -3t-8.5 -5t-9 -8t-6.5 -11q-7 -19 20 -69q1 -2 3.5 -5.5t3.5 -5.5
q66 -83 61 -145q-6 -68 -54 -101t-116 -28q-41 3 -72.5 28t-74.5 80l-455 578q-6 6 -19 6q-12 -5 -12 -16l-18 -223q0 -3 -1 -8.5t-1 -8.5q0 -33 10 -51q21 -29 27 -68q0 -28 -8.5 -48t-17 -26.5t-11.5 -2.5q-1 4 6.5 17.5t7.5 33.5q0 12 -3.5 19.5t-7.5 9.5t-7 1
q-7 -7 -7 -14l-8 -104q-5 -62 -52 -102t-114 -34q-67 5 -106 48t-35 110l68 819q0 11 -2 17q3 67 -19 67q-9 0 -18.5 -13.5t-12.5 -35.5q-2 -11 -2.5 -19.5t0.5 -13t2 -8t0.5 -4.5t-2.5 -2q-6 -1 -12 9.5t-9 28.5t-1 38q6 41 39 92q13 18 30 29q3 5 4 8.5t-4 9t-8 8t-10 8
t-10 7.5q-10 6 -18 18.5t-5 18.5q1 2 10 -4t20.5 -11t23.5 0q9 6 26 49q0 7 4 23l2 41q5 64 51.5 104.5t114.5 34.5t107 -50t35 -114l-33 -393q0 -10 10 -18q10 -3 18 2l514 465q56 52 123 47q60 -5 102 -50.5t38 -109.5q-3 -37 -29.5 -71.5t-85.5 -82.5z" />
    <glyph glyph-name="L" unicode="L" horiz-adv-x="978" 
d="M801 307q73 3 114 -39.5t39 -99.5q2 -54 -37 -97t-102 -46l-512 -25q-75 -3 -120 41t-48 121l-4 67q-8 55 -25 53.5t-30 -46.5q-4 -12 -3.5 -34.5t5.5 -33.5q9 -21 1 -20l-5 2q-31 25 -31 81q2 70 27 121q1 2 2 5q6 14 6 17.5t-6 6.5q-5 2 -17 -6t-18 -17q-5 -7 -9 -14
t-5.5 -11t-2.5 -7l-2 -4h-2q-8 9 -5.5 36.5t12.5 49.5q26 59 79 98q3 2 4.5 3.5t3 4.5t2 5t1 6.5t1 7t1 9t0.5 9.5q0 41 -2 72v18q-1 5 -1 7v3v2v4.5t-1 10.5q0 12 -7 16q-6 2 -14.5 -3t-9.5 -17q-1 -8 -1 -13.5t1 -7t1 -3.5t-1 -3q-2 -2 -8.5 3t-10.5 17.5t0 26.5
q6 26 31 47q14 12 14 25v20l-24 527q-4 74 36.5 118t108.5 47t113 -36.5t49 -114.5q0 -23 2 -62q4 -27 21 -38q7 -4 15 0t11 12q2 3 5 9q6 9 8 9q8 -12 -3 -41t-28 -41q-6 -4 10 -10q0 -1 2 -1l19 -9q16 -8 29 -20t12 -19q-3 -4 -4.5 -4t-9 4.5t-11.5 5.5q-20 7 -31 4
q-7 0 -9 -2t0 -4.5t4.5 -4.5t4.5 -3q42 -28 45 -107q1 -22 -4.5 -43t-13.5 -32.5t-14 -10.5q-3 1 -3.5 2.5t1 5t3 10t2 16t-0.5 22.5q-2 21 -8.5 36.5t-14.5 21.5t-14 3q-11 -4 -11 -18q5 -128 13.5 -302t14 -284t5.5 -113q0 -18 19 -18z" />
    <glyph glyph-name="M" unicode="M" horiz-adv-x="1781" 
d="M1731 135v-37q-3 -66 -47 -104.5t-107 -36.5q-63 3 -97 28t-48 74q-2 4 -5 4q-14 0 -12 -24q0 -11 4 -18.5t7 -11t1 -5.5q0 -3 -7 1.5t-14.5 18.5t-8.5 35q0 29 14 52q6 15 6 49l-74 741q-2 8 -12 8q-4 0 -7 -2.5t-4 -4.5l-1 -3l-154 -461q-5 -11 -12.5 -37t-11.5 -34
q-8 -23 -6 -47.5t12 -36.5q6 -10 17 -13.5t18.5 -3.5t7.5 -2q-2 -8 -16 -10t-25 4q-17 7 -26 1q-5 -4 5 -9q14 -7 22.5 -24t8.5 -29q0 -14 1 -25t2 -16.5t2.5 -10t2.5 -6t1.5 -2.5t0.5 -2q-2 -9 -14 5q-6 7 -8 14q-2 15 -5 5l-3 -14q-2 -18 -17 -61q-8 -20 -21 -38.5
t-25 -27t-17 -4.5q-2 2 -1.5 2t3 3.5t6 7.5t7.5 13t7 21q7 28 4 48t-12 20q-7 0 -12 -7.5t-10.5 -22.5t-10.5 -23q-47 -93 -157 -88q-130 7 -158 127l-199 821q-4 7 -12 10q-4 0 -7 -2.5t-4 -5.5l-1 -2l-146 -780q-15 -74 -53.5 -107.5t-112.5 -30.5q-63 3 -103.5 45.5
t-37.5 108.5q0 23 2 35l123 586q12 51 6 73q-6 8 -20.5 7t-33 -19t-24.5 -43q-7 -34 -1 -51t11 -27t1 -14q-9 -10 -23 17q-21 38 -16 83q3 66 36 108.5t89 51.5q5 0 8 5q2 2 -2 3q-10 3 -24.5 19t-24.5 32q-7 13 -10.5 24.5t-3 18t4.5 6.5q1 0 1 -1t0.5 -5t3.5 -8l22 -22
q9 -5 13 -1.5t1 15.5q-7 14 -7.5 42.5t9.5 53.5q8 23 22 27q4 1 4 -2q0 -2 -1 -4q-12 -36 -8 -62q8 -28 20 -28q10 0 21 43l45 204q11 60 70 106.5t137 43.5q77 -3 133 -53q8 -6 18 -11q34 -8 60 -34q18 -21 23.5 -41.5t3 -31t-6.5 -9.5q-3 1 -3 7t-2.5 17.5t-12.5 22.5
q-6 6 -12.5 5t-6.5 -7q-1 -3 2.5 -15t9.5 -35.5t9 -46.5l180 -712q4 -8 12 -8q4 0 7.5 3.5t4.5 7.5l1 3l266 760q20 59 79 100.5t132 38.5q77 -3 131 -54.5t61 -111.5z" />
    <glyph glyph-name="N" unicode="N" horiz-adv-x="1488" 
d="M1425 870q10 -3 16.5 -12t4.5 -14q-1 -1 -8 6q-16 11 -25 2q-14 -11 -14 -49q-4 -32 -4 -62l-27 -620q-3 -74 -47.5 -115t-112.5 -39q-31 2 -66.5 21.5t-58.5 52.5l-604 848q-10 7 -18 4q-4 -2 -6 -5t-3.5 -5.5t-2.5 -3.5l-29 -719q-3 -74 -47.5 -115t-112.5 -39
q-68 3 -109 48t-38 118l24 612q-1 39 -11 51.5t-23 1t-25 -37.5q-4 -12 -5.5 -35t1.5 -33q7 -21 -1 -19q-2 0 -5 3q-26 21 -21 82q9 64 39 114q15 25 4 27q-5 2 -16.5 -3.5t-18.5 -14.5q-6 -6 -11 -12.5t-6.5 -10.5l-3 -8t-1.5 -4.5t-2 0.5q-7 10 -2 37t16 47q33 56 88 86
q14 10 17 43q1 13 5 108.5t5 108.5v8v12q3 75 47 116t112 38q32 -2 68 -21.5t59 -52.5l603 -856q7 -7 18 -4q12 2 12 12l19 465q-1 44 -7 67.5t-14.5 25t-17.5 -0.5q-11 -7 -15.5 -11t-13.5 -21t-12 -41q-2 -11 -2 -20.5t0.5 -16t2 -12t2.5 -8.5t1 -5.5t-0.5 -4t-3.5 -1.5
q-8 -1 -17.5 13.5t-15 40.5t-2.5 53q10 94 59 124q26 17 2 19q-9 2 -36 -2q-6 -1 -14.5 -6t-11 -5.5t-5.5 3.5q-1 10 14.5 23.5t36.5 23.5q7 3 22 7q19 6 20 10l-3 5q-20 15 -31 51t0 50q2 3 3 0t3.5 -11.5t4.5 -13.5q13 -19 32 -22q12 -2 25.5 10.5t31 32.5t31.5 30
q39 31 103 31q68 -3 109 -47t38 -119l-12 -274q4 -29 12 -33q3 -2 7.5 3t8.5 15.5t5 22.5q1 6 1 11.5t-0.5 9.5t-1.5 7l-1.5 4.5t-1 2.5t0 1.5t1.5 0.5q5 1 9.5 -6.5t7.5 -22t3 -31.5q-3 -56 -47 -110q-2 -3 -2.5 -5.5t1.5 -4t4 -2l6 -1.5t7 -2z" />
    <glyph glyph-name="O" unicode="O" horiz-adv-x="1482" 
d="M1419 915q32 -125 33 -242t-35.5 -224.5t-100 -195t-160 -153t-216.5 -98.5q-200 -54 -387 4q-110 24 -158 -10q-10 -7 -19.5 -18.5t-14 -17t-7.5 -3.5q-8 4 -2.5 20.5t15.5 26.5q13 13 13 28q0 9 -11 1q-16 -11 -40.5 -13t-35.5 5q-28 11 -46 14.5t-19.5 1t-6.5 0.5
q-3 3 1.5 8t14 8.5t17.5 1.5q12 -3 12 0q0 4 -18 13q-32 19 -60 47q-19 19 -33.5 44t-17.5 40.5t2 21.5q5 2 7 -2.5t11 -19t27 -29.5q34 -30 76 -24q16 4 17.5 7t-13.5 27q-19 19 -43 47q-4 4 -4 7q-24 24 -47 61q-71 108 -109 246q-32 125 -32.5 242.5t36.5 225
t100.5 194.5t160 152t215.5 97q184 46 346 7t293 -152q24 -20 32 -15q11 7 2.5 34t-32.5 59q-11 14 -22 24t-18 14t-12.5 6.5t-7.5 4t0 4.5q11 12 48 -6.5t73 -57.5q75 -90 88 -241q1 -9 3 -12.5t6.5 -2.5t9 4t12.5 8t14 7q22 8 44.5 3t25.5 -16q2 -3 -0.5 -3.5t-8 0
t-12.5 -0.5q-26 -3 -41 -30q0 -1 -2 -3.5t-2.5 -4.5t-1.5 -6.5t-0.5 -10.5t1.5 -14.5t4 -21t8 -27.5q18 -52 28 -91zM864 274q74 20 129 61.5t86.5 95.5t46 119.5t10.5 136t-24 144.5q-25 91 -70.5 165.5t-110 126t-143.5 68.5t-172 -7q-72 -19 -127 -60t-86.5 -95t-46 -120
t-11 -136.5t23.5 -143.5q25 -92 70 -166t108.5 -126t143 -69t173.5 6z" />
    <glyph glyph-name="P" unicode="P" horiz-adv-x="1183" 
d="M1135 1036q18 -144 -37.5 -263.5t-163.5 -191t-248 -89.5l-199 -27h-10q-1 -1 -4 -2.5t-4 -3.5q-6 -6 -6 -15l31 -315q9 -78 -29 -125l-4 -4q-17 -17 -27.5 -35.5t-13.5 -21.5q-26 -26 -64 -37q-30 -6 -48.5 -2t-28 11.5t-5.5 10.5q2 2 7.5 -0.5t17.5 -5.5t27 0
q12 3 19 8.5t7.5 10t-0.5 8.5q-8 4 -16 4q-58 0 -98.5 36.5t-49.5 102.5l-133 1143q-9 73 27.5 121t110.5 57l309 39q109 16 129 39q5 5 8 11.5t4.5 12.5t2.5 12t1 10.5t0.5 8t1 5t2.5 1.5q10 -2 15.5 -17.5t-0.5 -35.5q-6 -21 3 -32q5 -7 11 8q18 41 70 45q15 1 27.5 3
t20 4t13 4t8.5 4l4.5 3t2 1.5t1.5 0.5q11 -2 1 -18q-9 -13 -21 -17q-8 -2 -18.5 -8.5t-18 -15.5t1 -20.5t35.5 -20.5q120 -37 205 -129q102 -112 123 -273zM635 758q93 10 143 78.5t39 162.5q-12 93 -77 147t-160 42l-152 -19q-27 -4 -33 -4q-12 -4 -14 -6q-6 -9 -6 -16
l43 -338q6 -31 23 -32q14 -1 14 18q0 17 -6 38q-2 6 -7.5 15t-6.5 11t3 5q9 1 24.5 -14.5t24.5 -34.5q5 -9 12 -25q8 -19 11 -19q2 0 4 3q13 25 47 40.5t49 4.5q3 -2 0 -3.5t-10 -4.5t-12 -6q-10 -7 -14 -17.5t4 -21.5q8 -8 36 -8z" />
    <glyph glyph-name="Q" unicode="Q" horiz-adv-x="1562" 
d="M1450 672q-1 -1 -3 -2q-3 -1 -3 -2v-2q0 -2 2 -2q11 -2 37 -33q20 -33 8 -37q-1 0 -0.5 1t0.5 3.5t-2 5.5q-9 9 -21 17q-6 2 -8 -2t2 -11q13 -38 2 -69q-8 -20 -16 -21q-2 -1 -2 1v3q9 28 4 45q-3 17 -14 17q-3 0 -5.5 -10t-7 -29t-8.5 -31q-30 -106 -80 -192
q-14 -33 -14 -35q1 -3 6 -4.5t14 1.5t17 11q11 11 15 22t4.5 16.5t4.5 6.5t5.5 -9.5t-7 -31t-28.5 -39.5q-31 -25 -66 -31q-10 -2 -18 -8q-15 -21 -33 -39v-2q-6 -4 -6 -10q0 -8 6 -14l78 -109q28 -37 39.5 -67.5t3.5 -69.5q-10 -51 -60.5 -79t-103.5 -17q-33 6 -60.5 27
t-60.5 65l-74 100l-2 2q-2 0 -6 4q-8 3 -18 -2q-160 -54 -353 -24q-202 33 -345 158t-202 309t-24 393q47 280 236 457q22 24 27.5 39.5t-4 21t-32.5 2.5q-11 -2 -27 -11t-20 -16q-16 -19 -16 -2q6 28 49 49q51 25 96 25q20 0 21 2t0 4q-2 5 -11 11.5t-18 7.5q-11 2 -20.5 1
t-10.5 -2t-2 1q1 9 23 17.5t41 8.5q47 3 98 -22q7 -4 55 12q92 28 185 31q33 4 43 12q32 23 59 23q24 2 41.5 -4.5t24 -14t2.5 -8.5q-2 -2 -6 0.5t-14 6.5t-23 3q-10 0 -17 -4t-9 -8t-1 -6q2 -2 12 -4t11 -2q24 -2 74 -13t79 -24q191 -69 310 -231t141 -371q2 -16 3.5 -38.5
t3.5 -31.5t7 -14q6 -3 16 -1t21 14.5t14 31.5q3 21 -1 36t-8 20.5t-1 8.5q7 9 20 -15q13 -25 13 -54q1 -49 -20.5 -81.5t-61.5 -41.5zM1120 666q18 90 5.5 178.5t-46 160.5t-101.5 123t-159 66q-79 13 -149.5 -4t-124.5 -59t-94 -102t-64 -134q-12 -52 19 -57q28 -8 45 6
q3 2 6.5 6.5t4.5 5t3 -1.5q3 -10 -7 -27t-28 -24q-6 -2 -14 -4.5t-12.5 -3.5t-8 -3.5t-2.5 -6t6 -9.5q89 -103 97 -203q2 -29 -3 -56t-13.5 -42t-16.5 -14q-5 1 -3 6.5t5.5 20.5t-0.5 42q-6 33 -19 52.5t-26 21.5q-12 3 -23 -3.5t-20 -28.5t2 -66q4 -8 4 -12
q75 -194 281 -230q36 -4 96 -8q14 7 16 10q5 10 0 19l-24 43q-31 40 -25 86q11 61 56.5 97t105.5 26q46 -6 74 -39l49 -64h2q8 -8 16 -6l10 6l4 6q57 97 76 226z" />
    <glyph glyph-name="R" unicode="R" horiz-adv-x="1191" 
d="M1159 975q-3 -89 -39 -160q-17 -42 -12 -82q2 -9 8 -15t10 -8.5t2 -4.5q-4 -6 -15.5 0t-16.5 14q-6 12 -17 14q-4 1 -4 -2q0 -2 2 -6q11 -25 -4 -55q-11 -15 -16 -26t-5.5 -14.5t-0.5 -5.5v-1q-5 -5 -10 6q-3 8 1 16q5 9 2 8.5t-12 -10.5q-9 -11 -41 -35
q-16 -12 -35.5 -18.5t-31 -6t-15.5 4.5q-2 3 1.5 3.5t15.5 4.5t24 16q12 10 20.5 20.5t10 17t-1.5 9.5q-2 5 -10 3t-12 -4.5t-18.5 -9.5t-29.5 -13q-2 0 -6 -1t-6 -1q-50 -19 -119 -29q-9 0 -4 -10l328 -377q40 -43 37 -92q-2 -62 -47 -107.5t-111 -44.5q-74 4 -117 58
l-422 549q-5 10 -12 6q-2 0 -3 -1.5t-1.5 -5t-1.5 -4.5l-4 -141q0 -45 10 -55q28 -33 33 -68q4 -28 -2.5 -50t-14 -30t-10.5 -4q-2 3 0.5 8.5t6 17.5t1.5 28q-1 12 -6 19.5t-9.5 8.5t-8.5 0q-6 -6 -6 -26q0 -33 -4 -95v-34q-3 -75 -47.5 -116t-112.5 -38t-109.5 47
t-38.5 119l23 655q0 13 2 15q0 4 0.5 19t0.5 25.5t-1.5 24t-5 22t-10.5 11.5q-11 3 -23.5 -19.5t-15.5 -54.5q-1 -12 -1 -21t1 -16t2.5 -12t3 -8t2 -5.5t0 -3.5t-3.5 -1q-8 -2 -18 13.5t-17 43t-6 55.5q1 56 13.5 97t45.5 100q11 18 -1 17q-4 0 -15 -3q-22 -5 -22 2q0 1 1 4
q3 7 23.5 28t39.5 46t21 45l2 70q3 74 45.5 115t118.5 38l361 -12q243 -8 371.5 -127t119.5 -354zM643 811q86 -3 141 44t58 132q3 86 -47.5 135t-137.5 52l-32 2q-18 -4 -23 -7q-1 -4 0 -8.5t9 -10t20 -7.5q14 -2 25.5 1.5t17 6t8.5 0.5q3 -3 -6.5 -10.5t-28 -12.5t-49.5 0
q-33 6 -63 33l-4.5 4.5l-4 4l-3 3t-2.5 2t-2.5 1.5t-3 1.5t-3.5 0.5h-4q-4 2 -12 2l-35 2l-12 -6q-3 -6 -3 -9l-12 -333q0 -7 2 -9q6 -6 13 -6h6z" />
    <glyph glyph-name="S" unicode="S" horiz-adv-x="1142" 
d="M1098 500q18 -212 -122.5 -356.5t-359.5 -163.5q-49 -2 -112 -4.5t-132 8.5t-127.5 29t-99 57.5t-45.5 93.5q-5 62 29.5 107t95.5 51q43 4 161 -26t189 -24q97 9 148 63.5t45 131.5q-4 39 -30 64t-74 44q-40 12 -64 -4q-5 -2 -23 -16t-28 -18q-60 -26 -105 -13
q-13 5 -23.5 13t-14.5 15t-3 9q1 1 4.5 -2.5t11 -9t15.5 -6.5q22 -3 44 7.5t30 20.5q14 19 8.5 23t-20.5 -4q-30 -12 -66 -12q-44 0 -65 25q-9 9 -3 11q4 1 14 -4t25 -6q15 -2 25 0.5t12.5 6.5t1.5 10q0 5 -8 8q-64 13 -110 26.5t-100.5 40t-90 61t-62.5 90.5t-34 128
q-15 178 84 308t268 179q4 0 12 4q3 0 10.5 3t8.5 6q2 6 -6.5 13.5t-20.5 6.5t-17.5 -4t-6.5 0q-2 1 2 8t15 13.5t26 5.5q21 0 51 -21q17 -14 28 -14h9h2q4 0 13.5 1t14.5 1q3 0 15.5 1t21.5 1q49 -3 68.5 -0.5t23.5 14.5q3 8 -8.5 20.5t-32.5 22.5q-7 3 -14 4.5t-11.5 2
t-8.5 0.5h-6h-4t-2.5 0.5t-0.5 2.5q2 10 28.5 12.5t55.5 -7.5q38 -13 63.5 -31t57.5 -53q8 -9 11 -6t3 11t2 13.5t7 1.5q5 -3 19 -31.5t28 -38.5l6 -6q63 -43 68 -104q6 -62 -28 -110t-95 -54q-37 -4 -124 19.5t-153 17.5q-70 -6 -116 -46t-40 -102q4 -43 43 -67t111 -41
q3 0 41 -8q33 -8 59 8q14 14 -2 31q-3 4 -8.5 8.5t-7.5 6.5t0 3q15 3 40.5 -16.5t31.5 -40.5q3 -7 16 10q7 9 12 14q13 13 29.5 22t22.5 5q3 -3 2.5 -5t-7.5 -7t-10 -9q-9 -14 -12 -28q-2 -7 -1 -9.5t4 -1.5t6 3t5 4q43 29 117 10q35 -10 57.5 -30.5t16.5 -31.5
q-2 -2 -2.5 -2t-4.5 3t-8.5 6t-14 7t-21.5 7q-23 5 -39.5 3.5t-25.5 -6.5t-9 -11q1 -7 9 -12t29 -13.5t38 -17.5q198 -96 219 -334z" />
    <glyph glyph-name="T" unicode="T" horiz-adv-x="1050" 
d="M899 1419q63 -4 98.5 -49t32.5 -102q-5 -58 -42.5 -96.5t-106.5 -34.5q-27 2 -60 4q-12 0 -16 -2q-6 -2 -13.5 -11t-7.5 -18q0 -40 39 -43q15 -1 24.5 0.5t12 3.5t5 1.5t5.5 -3.5q5 -3 -4.5 -14t-31 -19.5t-46.5 -3.5q-47 12 -86 53q-13 16 -29 9t-22 -41l-63 -926
q-4 -75 -50 -115t-114 -35q-67 5 -107 50.5t-34 119.5l10 146q-3 26 -19 29q-13 0 -26 -22t-17 -54q-2 -11 -2 -21.5t1.5 -17t3 -12t3 -9t2.5 -5.5t0 -3.5t-3 -1.5q-8 -2 -17 13t-14.5 42t-3.5 56q3 99 90 207q5 6 5 9.5t-3.5 5.5t-8 3t-12 2.5t-12.5 3.5q-19 7 -29.5 24
t-7.5 27q2 1 3 0.5t5 -4.5t7 -6q17 -14 45 -6q25 5 28 35l39 569q0 6 -6 12q-5 5 -8 5l-207 14q-69 4 -101.5 47.5t-27.5 101.5q3 57 43.5 96.5t103.5 36.5z" />
    <glyph glyph-name="U" unicode="U" horiz-adv-x="1402" 
d="M1341 1061q24 -42 32.5 -71t8.5 -68q1 -20 -4 -39.5t-12 -30.5t-12 -10q-3 3 -1.5 4t4.5 13.5t1 29.5q-3 24 -12 39.5t-17 13.5q-5 -3 -8 -14l18 -312q10 -167 -65.5 -311.5t-212.5 -232t-303 -97.5q-47 -2 -115 5q-44 0 -57 -11q-4 -3 -7 -7.5t-4.5 -9t-2.5 -8.5
t-1.5 -8t-0.5 -7t-1 -4t-2 -1q-9 0 -11 15t3 26q3 7 3 17t-3 12h-2q-3 0 -6 -6q-9 -14 -26.5 -24.5t-30.5 -10.5q-11 0 -19.5 -1t-14.5 -2t-10.5 -2t-7 -2.5t-4.5 -2.5t-2.5 -1.5t-1.5 -0.5h-2q-8 2 3 14q7 8 16 10q8 1 9 3q2 3 -20 5q-16 0 -63 15q-33 11 -58 33t-20 32
q3 3 3.5 2.5t4.5 -3.5t8.5 -6.5t14.5 -7.5t22 -7q31 -8 42 -9.5t22 5.5q5 4 -5 15t-28 26q-110 66 -180 170q-36 45 -56 100q-8 20 -16 29.5t-16 10.5t-17 -1q-10 -3 -23 -10t-17 -9t-9 0q-3 6 3.5 17.5t15.5 19.5q2 1 5.5 4t6 5t6 4.5t6 4.5t4.5 4.5t3 4.5t1.5 4.5t-0.5 4
t-4 3.5q-7 6 -18 18t-12 13q-37 46 -43 90q-3 20 0 39t9.5 29.5t12.5 9.5q3 0 2 -4t-3 -14.5t3 -28.5q3 -15 9.5 -27t13 -18t10.5 -4q15 9 18 34l-12 191q0 5 -1 12l-1 6v2l-29 490q-4 75 36 120t108 48q68 5 112.5 -35t48.5 -115l46 -712q8 -145 99.5 -237t233.5 -83
q136 9 218.5 113t74.5 243l-43 715q-4 73 36 118t108 50q101 6 143 -76h2q10 -29 27 -41q28 -20 34 -49q6 -26 2.5 -43t-9.5 -26.5t-9 -6.5q-2 2 0 7.5t4.5 14t-0.5 23.5q-3 11 -8 16.5t-9 5t-7 -2.5q-5 -5 -5 -25l7 -112q1 -4 6 -29q5 -18 30 -45.5t27 -32.5t-2 -5.5
t-9.5 1.5t-11 2.5t-7 -1.5t2.5 -11z" />
    <glyph glyph-name="V" unicode="V" horiz-adv-x="1267" 
d="M1241 1346q2 -34 -10 -76l-381 -1166q-20 -60 -50.5 -92t-92.5 -35q-62 -4 -97.5 24.5t-62.5 84.5l-514 1112q-16 37 -19 76q-4 63 41.5 108t108.5 48q91 5 143 -93l191 -430q18 -28 32 -28q7 0 10.5 11t2.5 29t-8 37q-6 21 -16 35t-13 14.5t0 6.5q6 5 20.5 -4.5
t31.5 -30.5t26 -45q20 -50 24.5 -90t-2.5 -103q-1 -9 1 -12.5t5 -2t7.5 4.5t9 6.5t8.5 5.5t7 1t3 -7q0 -4 -9.5 -25.5t-11.5 -47.5t17 -82q2 -4 2 -9l17 -36q1 -1 3 -4.5t4 -5.5t5 -1q6 0 10 11v6l164 532q12 44 -8 47q-8 2 -20.5 -9.5t-20.5 -31.5q-7 -16 -8.5 -28.5
t0 -14.5t-2.5 -4q-10 2 -13 26.5t5 53.5q15 42 58 82q24 18 36 23q5 2 5.5 6t-2.5 9t-6 9.5t-8.5 11t-8.5 9.5q-7 7 -12 20t-2 18q2 3 9 -3.5t18 -13t22 -3.5q22 6 35 35l18 61q24 59 68 88h2q2 2 10 6q3 1 8 3.5t8 3.5q33 14 39 22q26 31 62 37q30 4 53 -2.5t32.5 -15
t6.5 -11.5t-9 0t-18.5 7.5t-27.5 1.5q-13 -1 -23.5 -8.5t-12.5 -15t3 -13.5q2 -2 22 -17q70 -37 76 -116z" />
    <glyph glyph-name="W" unicode="W" horiz-adv-x="1859" 
d="M1841 1389q2 -29 -4 -70l-176 -1135q-11 -71 -60 -119.5t-131 -54.5q-73 -6 -131 32t-82 101l-286 746q-5 10 -10 8q-9 0 -9 -10l-2 -6l-67 -303q-11 -62 4 -72q4 -3 12 3t16 19t13 29q5 18 4.5 32t-2.5 16t2 5q11 0 18 -27.5t0 -60.5q-11 -51 -53 -96q-16 -20 -37 -33
q-3 -2 -4 -4t-0.5 -4.5t1.5 -4.5t3.5 -5t4.5 -5.5t5.5 -6t6.5 -5.5t6.5 -5t5.5 -5q10 -9 16.5 -23t3.5 -20q-2 -3 -9.5 2.5t-21.5 12t-26 4.5q-22 -5 -33 -48q-1 -3 -6 -18.5t-8 -28.5l-27 -120q-14 -66 -65.5 -112t-124.5 -52q-82 -6 -137.5 35t-77.5 110l-56 176
q-23 73 -34 99q-6 18 -11.5 25.5t-15.5 10.5q-64 18 -109 66q-17 15 -29 42t-7 38q2 2 4 -1.5t9 -12t19 -15.5q8 -6 22 -9t19 -1q9 6 -5 20l-5 5l-2 2q-44 44 -66 104q-12 37 -11 57.5t9 28.5q7 11 10 1q2 -5 1 -15t5.5 -32.5t14.5 -33.5q35 -43 51 -30q16 14 -8 87
q-6 22 -28 107l-117 377q-14 46 -15 67q-3 53 34.5 97.5t101.5 48.5q133 11 174 -135l227 -813q0 -4 4.5 -11t9.5 -6q4 1 6.5 5.5t3.5 8.5l1 5l114 532q4 22 6 25q1 4 2 11.5t1.5 11.5t1.5 10.5t0.5 10.5t-1.5 8.5t-3.5 7.5t-6.5 5q-5 4 -13.5 -1t-17.5 -19.5t-14 -34.5
q-3 -12 -3.5 -22t0.5 -16t2 -10t0.5 -5.5t-3.5 -1.5q-12 0 -19.5 28.5t-0.5 61.5q13 76 59 98q21 10 2 14q-12 3 -31 0q-3 0 -6 -0.5t-5 -1.5l-4 -2t-3.5 -1.5t-3 -0.5t-2 1t-0.5 3q0 7 14.5 17.5t30.5 15.5q7 3 19 5.5t16 4.5t0 6q-15 13 -21.5 43.5t2.5 40.5q2 2 3 0
t2.5 -9t2.5 -11q7 -17 27 -14q23 6 41 57l2 2q12 57 52.5 92.5t97.5 40.5q57 4 102 -25t65 -83l109 -289q6 -6 10 -8q6 0 13 8t4 20q-2 13 -6 17.5t-3 7.5q2 2 9.5 -1t15 -13.5t8.5 -24.5q0 -27 -16 -53q-9 -18 4 -51q0 -1 1 -4.5t1 -4.5l168 -440v0l2 -8q4 -8 10 -8
q5 2 13 18l102 840q20 148 154 159q64 4 107 -33.5t48 -90.5z" />
    <glyph glyph-name="X" unicode="X" horiz-adv-x="1296" 
d="M1276 188q6 -59 -30.5 -101.5t-98.5 -51.5q-17 -4 -41 -2q-6 0 -8 2h-11q-11 3 -14 0q-4 -2 -2.5 -12t12.5 -17q5 -3 9.5 -4.5t6.5 -1.5h3.5t2 -1l1.5 -3t-5 -5q-22 -9 -44 7q-19 14 -31 47q-6 20 -20 39q-1 1 -2.5 3t-2.5 3l-358 418q-8 10 -14 10q-4 -1 -7 -3.5
t-4 -4.5l-2 -2q-34 -55 -77 -129q-33 -61 -19 -78q17 -20 41 -20q4 0 9 1.5t7.5 1.5t2.5 -3q-3 -10 -22 -18t-38 -5q-6 1 -13 4t-11.5 5t-8.5 2t-5.5 -3.5t-0.5 -11.5q13 -130 -39 -221q-16 -25 -35.5 -44.5t-35 -26.5t-21.5 -1q-3 3 1 5.5t17 15t25 34.5q15 30 16.5 57.5
t-10.5 28.5q-20 5 -55 -49l-12 -20q-20 -33 -41 -49q-1 -1 -3 -2t-3 -2q-1 0 -6 -5q-3 -2 -5 -2q-31 -17 -63 -20q-68 -5 -115 31t-53 100q-2 53 27 106l346 560l4 8q4 8 2 12q0 4 -2 6l-105 119q-78 75 -100 59q-15 -12 -27 -30q-4 -5 -7 -14.5t-5 -13t-6 0.5q-7 7 -4 28
t12 42q14 36 10 38q-2 2 -6 1q-27 -4 -55.5 14.5t-30.5 38.5q2 2 4 1.5t10 -4t13 -5.5q33 -9 35 8q0 16 -15 31l-24 28q-1 2 -4 5t-4 5l-54 60q-35 38 -41 88q-4 67 36.5 111.5t107.5 50.5q36 3 74.5 -15.5t64.5 -48.5l270 -321v0q9 -9 13 -9q6 0 10 9l213 364
q20 34 55 58.5t72 27.5q66 6 114 -31.5t54 -103.5q3 -44 -27 -92l-285 -467q-2 -2 -2 -8q0 -5 5 -10l4 -9l438 -491q38 -48 43 -103z" />
    <glyph glyph-name="Y" unicode="Y" horiz-adv-x="1187" 
d="M1157 1214q15 -34 10 -55q-1 -14 -8.5 -24t-15 -12.5t-8.5 -0.5q-2 2 -1.5 4t1.5 3t3.5 5.5t4.5 12.5q4 11 -1.5 19t-11.5 8q-1 0 -2.5 -2t-4.5 -5.5t-5 -5.5q-6 -6 -8 -10q-53 -61 -123 -141q-25 -29 -16 -41q4 -8 22.5 -1.5t38.5 23.5q5 5 9 9.5t6.5 8t4.5 7.5t3 6.5
l2 5t1.5 3.5l1.5 3h3q5 -5 4.5 -17t-9.5 -31t-24 -36q-33 -38 -96 -57q-20 -8 -47 -8q-6 -1 -8 -4.5t-1.5 -10t2.5 -12.5l5 -15t4 -14q5 -12 3.5 -27t-7.5 -18q-4 -2 -8.5 6t-13 20.5t-19.5 16.5q-14 5 -37 -18q-5 -5 -14.5 -15.5t-14.5 -15.5q0 -2 -2 -4l-4 -4
q-24 -27 -48 -55t-35.5 -41.5t-12.5 -14.5q-10 -10 -12 -34l-52 -521q-7 -63 -49 -102t-118 -31q-77 7 -111 54t-27 110q7 76 17 172q0 21 -9 33q-9 17 -32 0q-30 -21 -35 -64q-3 -29 4 -50t13.5 -29.5t2.5 -12.5q-6 -6 -18 6t-22 37.5t-11 53.5q-5 66 23 112.5t82 61.5
q4 0 7 6q2 3 -3 4q-10 1 -26.5 14.5t-27.5 28.5q-9 12 -13.5 23.5t-4.5 17.5t4 8q2 0 1.5 -1.5t0.5 -5.5t4 -7q9 -12 27 -21q9 -3 12 1.5t-2 15.5q-7 12 -11 40.5t1 53.5q10 29 21 30q4 0 3 -6q-10 -40 -2 -61q9 -27 25 -27q8 0 16 35q1 14 2 28.5t1.5 21.5t0.5 8
q2 11 -4 30l-325 568q-24 50 -19 94q6 62 52 101t110 32q40 -3 72 -22.5t49 -51.5l233 -424q10 -10 17 -10q6 -1 11 0t7 3l2 1l316 373q49 55 133 49q56 -6 92.5 -46t38.5 -93q1 -7 2.5 -19.5t3 -20.5t4.5 -12z" />
    <glyph glyph-name="Z" unicode="Z" horiz-adv-x="1255" 
d="M1161 1348q27 -4 49 -30t19 -44q-1 -5 -13 6q-6 5 -10 8q-28 18 -37 0l-4 -20q-10 -67 -51 -111l-674 -842q-2 -2 -3.5 -4.5t-5 -9.5t0.5 -12q5 -8 14 -8l560 -29q66 -3 105 -40.5t36 -102.5q-3 -57 -50.5 -93.5t-105.5 -33.5l-119 6q-8 0 -20 1t-16 1q-16 0 -36 1.5
t-30 2t-21 0t-17 -2.5t-11 -7q-6 -9 -3 -22.5t21.5 -28t44.5 -17.5q29 -3 50 5.5t30 15t13 2.5q6 -6 -5.5 -18t-36.5 -23t-53 -13q-67 -4 -113 22.5t-63 80.5q-3 5 -5 7t-5 -3q-7 -25 -43 -53q-12 -9 -23.5 -14.5t-17.5 -6t-8 3.5q0 2 1.5 2t5.5 0.5t7 3.5q9 9 21 27
q3 9 -2 12.5t-15 -2.5q-14 -7 -42 -11t-52 1q-27 7 -32 19q-1 3 1 3q1 1 4 0q39 -9 64 0q10 3 16.5 8.5t5.5 12.5q-3 8 -28 12l-271 15q-80 3 -123 46t-40 109q3 61 47 117l356 446q19 29 10 45q-4 7 -11 12t-13.5 7l-13 4t-9.5 3.5t-2 4.5q1 7 16 11t29 1q4 0 14 -1.5
t15.5 -2t12 0t9.5 3.5t2 9q-3 29 0 49q6 62 39 104q14 17 31.5 29.5t29 15t17.5 -1.5q2 -2 -1.5 -4t-14.5 -10.5t-21 -24.5q-13 -21 -16.5 -41t4.5 -22q10 -5 29 13t32 36q18 24 41 47l97 123q12 12 4 23q-3 8 -10 8l-181 10q-13 -4 -14 -6q-2 -6 2.5 -15t15.5 -12
q13 -2 21 0q3 1 6 -2q1 -2 -5 -7.5t-17 -8.5t-27 2q-23 6 -43 35q-11 15 -23 18q-24 0 -32 2l-211 10q-63 3 -101 40.5t-35 99.5q3 58 47 96t103 35l750 -39q44 -3 83 -23q11 -4 22.5 -11t17.5 -9t10 0q12 4 41 28q4 3 7.5 7.5t5.5 8t4 6t3.5 2t3.5 -2.5q6 -7 -3 -27.5
t-23 -36.5l-21 -30q-1 -5 6 -6z" />
    <glyph glyph-name="bracketleft" unicode="[" horiz-adv-x="624" 
d="M494 -72q48 3 80 -22.5t38 -83.5q4 -60 -24 -91t-76 -34l-203 -16q-68 -5 -112 31.5t-50 103.5l-114 1497q-6 66 31.5 109t105.5 48l203 17q48 3 80 -23t36 -86q6 -59 -22 -89.5t-76 -35.5l-65 -4l-11 -2q-7 0 -12.5 -6t-5.5 -14l100 -1286q4 -19 21 -19z" />
    <glyph glyph-name="backslash" unicode="\" horiz-adv-x="833" 
d="M770 129q14 -43 14 -59q-1 -47 -38.5 -78t-88.5 -29q-46 3 -70.5 23.5t-37.5 58.5l-488 1284q-12 37 -12 60q1 47 37.5 77.5t87.5 28.5q84 -5 111 -82z" />
    <glyph glyph-name="bracketright" unicode="]" horiz-adv-x="579" 
d="M408 1473q66 -3 104.5 -45.5t34.5 -108.5l-82 -1499q-3 -67 -46.5 -104.5t-111.5 -34.5l-203 12q-48 2 -76.5 31.5t-25.5 89.5q3 59 35 86t80 24l76 -4q20 0 20 21v6l72 1272v6q0 9 -6 15.5t-15 6.5q-4 0 -10 2l-64 2q-48 3 -76.5 33.5t-25.5 89.5q3 60 35 87t80 24z" />
    <glyph glyph-name="asciicircum" unicode="^" horiz-adv-x="1228" 
d="M1059 784q21 -46 18 -84t-34.5 -56t-75.5 -13q-75 6 -101 55l-194 463l-4 10q-3 9 -8.5 11t-10.5 -5q-4 -4 -4 -6l-287 -424q-38 -41 -108 -35q-45 5 -72 29t-24 64q2 28 34 79l387 564q37 55 115 51q77 -8 101 -74z" />
    <glyph glyph-name="underscore" unicode="_" horiz-adv-x="1024" 
d="M4 -285q-26 0 -43 12.5t-18 36.5t14 38t41 16l1022 55q25 2 42.5 -11t18.5 -36q1 -24 -15 -38.5t-40 -16.5z" />
    <glyph glyph-name="grave" unicode="`" horiz-adv-x="454" 
d="M182 1567l230 -123l16 -10q53 -40 47 -88q-6 -55 -43.5 -98.5t-81.5 -37.5q-4 0 -10 1q-20 2 -41 13q-15 9 -27 15l-219 115q-78 43 -69 129q5 44 43 81t82 31q27 -3 73 -28z" />
    <glyph glyph-name="a" unicode="a" horiz-adv-x="1087" 
d="M467 1114q202 32 323.5 -34t147.5 -224l102 -631q11 -65 -20.5 -116.5t-93.5 -61.5q-49 -9 -84.5 4t-61.5 60q-6 6 -14 6q-4 -2 -12 -13q-34 -51 -101.5 -88.5t-136.5 -48.5q-181 -29 -306.5 43.5t-152.5 239.5q-13 80 5.5 147t64 115.5t102 85.5t132.5 63.5t141 42.5
t141 29q5 0 8 6q6 6 6 13l-12 63q-11 77 -139 55q-47 -7 -84.5 -23.5t-59.5 -35t-40 -36.5t-37 -31.5t-39 -16.5q-64 -10 -102.5 21.5t-45.5 80.5q-10 56 47.5 118.5t146 107t175.5 59.5zM530 219q221 36 185 254l-6 31q0 6 -9 10q-3 6 -10 2q-161 -25 -214 -42
q-139 -44 -142 -144q-1 -17 2 -35q10 -54 64.5 -71t129.5 -5z" />
    <glyph glyph-name="b" unicode="b" 
d="M690 1106q92 -5 169 -42t129 -96.5t87 -137t49 -161.5t9 -171q-6 -105 -46.5 -202.5t-106.5 -172t-161.5 -117t-202.5 -35.5q-70 3 -137.5 35.5t-107.5 87.5q-1 1 -2.5 2t-7 3t-9.5 -1q-3 -1 -6 -4.5t-4 -6.5l-2 -3q-43 -84 -141 -78q-65 5 -103.5 52t-34.5 120l72 1260
q4 73 47.5 115.5t108.5 39.5q65 -5 103.5 -52t35.5 -120l-20 -360q-2 -11 8 -19q4 -4 8.5 -4.5t7.5 0.5l2 2q117 75 256 66zM838 526q4 73 -16 141.5t-71 118.5t-124 54q-57 3 -104 -20t-76.5 -63t-47 -90t-20.5 -104q-3 -56 7.5 -109.5t34.5 -100.5t68.5 -77t102.5 -34
q73 -4 129.5 39.5t84.5 108t32 136.5z" />
    <glyph glyph-name="c" unicode="c" horiz-adv-x="974" 
d="M768 827q-34 -4 -112 14.5t-128 12.5q-60 -7 -104.5 -38.5t-68 -78t-32 -101t-1.5 -112.5q16 -116 94 -196t190 -66q42 6 119.5 46.5t89.5 41.5q53 7 95 -25.5t48 -84.5q7 -53 -27.5 -99.5t-91.5 -76t-112 -48t-100 -24.5q-152 -20 -283 41.5t-212 180.5t-101 271
q-20 149 29 287t159.5 233.5t259.5 114.5q43 9 106.5 5t122 -14.5t103.5 -44t51 -83.5q7 -51 -19 -100t-75 -56z" />
    <glyph glyph-name="d" unicode="d" horiz-adv-x="1191" 
d="M27 616q9 87 36 168.5t73.5 152.5t107 121.5t142 75.5t173.5 15q135 -12 242 -105q1 -1 2.5 -2t7 -2t10.5 2q4 3 6.5 7t2.5 7l1 3l37 360q7 72 53 113t111 35q64 -6 100 -55.5t29 -122.5l-127 -1256q-7 -73 -53 -113t-111 -34q-99 9 -127 98q-4 14 -10 16q-4 2 -8 1.5
t-7 -1.5l-3 -2q-49 -48 -120.5 -69t-141.5 -13q-107 11 -194.5 67.5t-140.5 140t-77.5 186t-13.5 206.5zM580 877q-55 5 -102 -18t-79 -64t-52 -91.5t-25 -103.5q-7 -72 10 -140t66 -119.5t122 -59.5q111 -11 179.5 75.5t80.5 206.5q5 55 -3.5 107t-31.5 96.5t-65.5 74.5
t-99.5 36z" />
    <glyph glyph-name="e" unicode="e" horiz-adv-x="1138" 
d="M889 289q45 -6 75.5 -51t24.5 -93q-10 -61 -83.5 -107t-181 -63.5t-214.5 -1.5q-161 25 -275 117t-162 230t-24 298q17 110 71.5 207t134 164.5t185.5 99.5t219 15q114 -18 207 -82t147.5 -151t78.5 -186.5t10 -190.5q-11 -67 -46 -94t-102 -17l-606 92q-8 0 -10 -2
q-4 -4 -4 -16q6 -96 72.5 -156t168.5 -76q51 -8 101.5 2t83 26t68.5 28t61 8zM621 860q-89 13 -159 -33.5t-100 -132.5v-16q3 -6 11 -6l430 -68q10 0 12 4q4 4 4 19q-3 93 -54.5 156.5t-143.5 76.5z" />
    <glyph glyph-name="f" unicode="f" horiz-adv-x="788" 
d="M633 1305q-18 3 -36 0t-32.5 -10t-25 -30.5t-13.5 -62.5l-6 -96q-2 -17 4 -21l11 -4l4 -2l71 -4q70 -5 108 -38.5t34 -100.5q-4 -65 -47 -93.5t-111 -25.5l-74 6q-10 0 -12 -2q-3 -2 -8 -12l-45 -664q-4 -73 -48.5 -115.5t-109.5 -37.5t-103 53t-34 121l45 663q0 7 -2 9
q-3 8 -17 8l-45 2q-60 4 -92 41.5t-29 97.5q5 54 45 88.5t95 30.5l41 -2q14 -2 20 4l4 10v4l11 131q10 159 101 241t228 73q88 -5 144.5 -40.5t52.5 -105.5q-4 -64 -35.5 -92.5t-93.5 -23.5z" />
    <glyph glyph-name="g" unicode="g" horiz-adv-x="1189" 
d="M1124 125q11 -130 -21.5 -235.5t-102 -177t-170 -114t-226.5 -53.5q-38 -1 -88.5 -2t-107 9.5t-104 27t-80.5 51t-36 80.5q-3 43 31 88.5t76 48.5q37 3 80 -10.5t100 -26t129 -6.5q110 9 174.5 76.5t55.5 177.5v19q-7 15 -13 16q-13 5 -24 -6q-84 -110 -256 -125
q-112 -9 -204.5 30t-153.5 114t-97.5 172.5t-46.5 209.5q-7 88 7.5 174.5t50.5 162t89.5 135t128 97t160.5 44.5q70 5 138.5 -16t115.5 -66l4 -4q10 -6 19 -4q7 2 10 8q0 4 4 8q29 87 127 96q65 5 109.5 -36.5t50.5 -114.5zM586 240q75 6 125.5 54t69 114t12.5 141
q-5 56 -23 107.5t-48.5 94t-78.5 66t-106 19.5q-73 -6 -123 -57t-68 -119t-12 -140q10 -126 76.5 -207.5t175.5 -72.5z" />
    <glyph glyph-name="h" unicode="h" horiz-adv-x="1138" 
d="M711 1104q177 -18 278.5 -136t83.5 -300l-57 -562q-7 -73 -53 -114t-111 -35t-101 55.5t-30 122.5l53 512q10 97 -39 155t-133 66q-87 9 -143 -43t-64 -139l-53 -512q-7 -73 -53 -114t-109 -33q-65 6 -101.5 55t-29.5 121l127 1255q7 73 53 114.5t111 35.5q65 -8 101 -57
t30 -121l-37 -355q-2 -14 4 -20q5 -4 21 -4q49 36 117 48t135 5z" />
    <glyph glyph-name="i" unicode="i" horiz-adv-x="454" 
d="M360 1389q3 -70 -43 -123.5t-114 -57.5q-66 -3 -118.5 45t-55.5 115q-5 63 42 115.5t113 56.5q66 3 119 -42t57 -109zM133 145l-45 785q-4 73 34 121t103 51q65 5 109 -38t47 -116l45 -786q4 -73 -34 -120t-103 -52q-65 -3 -109 39.5t-47 115.5z" />
    <glyph glyph-name="j" unicode="j" horiz-adv-x="454" 
d="M418 1370q-3 -69 -54 -118t-120 -46q-66 1 -113.5 54.5t-44.5 121.5q1 63 53.5 110.5t118.5 45.5q66 -3 114 -53t46 -115zM35 -270l49 1220q1 71 45 115.5t109 42.5q65 -3 103.5 -50t35.5 -120l-47 -1221q-3 -73 -46 -116t-108 -41q-65 3 -103.5 50t-37.5 120z" />
    <glyph glyph-name="k" unicode="k" horiz-adv-x="1034" 
d="M981 209q35 -40 35 -98q-1 -58 -42 -98t-100 -40q-68 3 -139 93l-311 405l-2.5 2.5t-6.5 4t-9 -0.5q-7 -2 -11 -6t-4 -7v-3l-6 -311q-1 -73 -42.5 -117.5t-106.5 -44.5q-65 2 -106 48.5t-40 119.5l21 1259q1 73 43.5 118.5t107.5 43.5q65 0 105 -46.5t39 -119.5l-11 -643
q-2 -12 8 -16q5 -3 10.5 -3t8.5 1l4 2l307 301q64 61 133 61q54 -1 89.5 -42.5t33.5 -92.5q0 -64 -59 -115l-260 -239q-6 -6 -6 -13q0 -8 4 -16z" />
    <glyph glyph-name="l" unicode="l" horiz-adv-x="454" 
d="M88 150l-16 1261q-1 73 39.5 118.5t105.5 47.5q65 0 107 -44.5t43 -117.5l16 -1261q1 -73 -39.5 -119.5t-105.5 -46.5q-65 -2 -107 43.5t-43 118.5z" />
    <glyph glyph-name="m" unicode="m" horiz-adv-x="1744" 
d="M1288 1100q183 -9 287 -119t94 -299l-29 -565q-3 -73 -46.5 -116t-108.5 -40t-103 50.5t-34 119.5l24 514q5 90 -39 149t-121 62q-81 4 -130 -48.5t-54 -143.5l-27 -514q-4 -73 -47 -116t-108 -40t-103.5 51t-35.5 121l26 512q5 90 -39.5 149t-122.5 62q-87 4 -133 -48
t-51 -145l-27 -514q-3 -73 -46.5 -115.5t-108.5 -39.5q-64 3 -103 50.5t-36 119.5l40 786q3 73 47 116t109 40q45 -1 77 -22.5t44 -57.5q4 -17 10 -19q16 -5 23 2q111 94 256 88q170 -9 280 -143q9 -10 15 -10q7 -2 18 4q63 58 146.5 90t156.5 29z" />
    <glyph glyph-name="n" unicode="n" horiz-adv-x="1138" 
d="M1083 195q4 -73 -33 -121.5t-102 -53.5q-65 -6 -109.5 36.5t-50.5 115.5l-38 512q-7 98 -66 146t-143 42q-87 -7 -132.5 -67.5t-39.5 -149.5l41 -512q4 -73 -33.5 -121.5t-102.5 -54.5q-65 -5 -109 38t-50 116l-60 782q-6 73 31 121.5t102 54.5q95 6 131 -65q8 -8 15 -10
q3 -1 20 8q76 98 252 110q178 14 298.5 -83.5t133.5 -280.5z" />
    <glyph glyph-name="o" unicode="o" horiz-adv-x="1138" 
d="M1085 428q-25 -112 -85 -205t-144 -153t-189 -83.5t-221 3.5q-151 34 -253 137t-137 242.5t-1 289.5q33 147 126.5 259.5t230.5 164.5t284 19q147 -34 248.5 -139.5t137.5 -247t3 -287.5zM342 596q-26 -115 14.5 -216t149.5 -126q109 -24 188 50t105 188q14 52 10 108
t-20 104t-55.5 84.5t-96.5 49.5q-110 24 -189.5 -51.5t-105.5 -190.5z" />
    <glyph glyph-name="p" unicode="p" 
d="M1141 571q10 -140 -39 -269.5t-155.5 -219t-248.5 -100.5q-130 -10 -247 61q-2 3 -9 4t-14 -2l-6 -12l24 -328q6 -73 -31 -121t-102 -53q-65 -6 -109 36.5t-50 115.5l-93 1216q-6 73 32.5 121t103.5 53q100 9 143 -82q1 -1 3 -5.5t4 -6.5t7 -2q4 0 7.5 3t5.5 6l2 3
q40 57 108 90t146 39q92 7 172.5 -20t139.5 -79t104 -124t70 -154.5t32 -169.5zM639 248q73 6 123.5 56.5t69.5 118.5t14 140q-6 72 -35.5 136.5t-86.5 108t-130 38.5q-57 -4 -100.5 -32.5t-67.5 -72.5t-34.5 -95.5t-6.5 -106.5q4 -56 21.5 -107.5t48 -95t78.5 -68
t106 -20.5z" />
    <glyph glyph-name="q" unicode="q" 
d="M983 1077q65 -6 101.5 -55.5t29.5 -122.5l-115 -1214q-7 -73 -52.5 -114.5t-110.5 -35.5t-101 55.5t-30 122.5l30 318q2 16 -8 22q-5 5 -16 0q-116 -70 -250 -57q-87 8 -161 46t-126.5 97t-88 133t-49 156.5t-5.5 165.5q10 109 50 208t104.5 177t162 119.5t211.5 31.5
q76 -8 143.5 -43t106.5 -92q4 -8 12 -8q11 0 17 12q46 87 145 78zM784 545q5 55 -4 107t-32 96.5t-66 73.5t-100 34q-73 7 -131 -35t-88.5 -106t-36.5 -137q-7 -71 10.5 -139.5t66.5 -120t121 -58.5q77 -7 135.5 36t88 108t36.5 141z" />
    <glyph glyph-name="r" unicode="r" horiz-adv-x="751" 
d="M569 1126q58 6 104.5 -31t53.5 -112q3 -27 -4 -47.5t-25.5 -36t-35.5 -25.5t-48 -25.5t-49 -25.5q-35 -20 -51 -30t-42.5 -31.5t-38 -40.5t-20 -48t-5.5 -63l45 -450q7 -72 -29.5 -121t-101.5 -55t-111 34t-53 113l-78 799q-7 69 35 113t102 49q112 11 143 -66
q7 -16 19 -18q4 0 8.5 3.5t6.5 6.5l3 4q63 93 172 104z" />
    <glyph glyph-name="s" unicode="s" horiz-adv-x="872" 
d="M664 795q-23 -3 -120.5 31t-150.5 30q-43 -5 -69.5 -28.5t-22.5 -63.5q2 -27 32.5 -47t77 -34t102.5 -29t113 -37.5t105 -53.5t81.5 -83t39.5 -120q14 -150 -92.5 -258t-294.5 -125q-85 -7 -181 12.5t-169.5 67t-79.5 109.5q-2 25 9 55.5t39.5 57t66.5 30.5
q47 4 96.5 -16.5t103.5 -41t113 -15.5q64 6 87.5 29t20.5 65q-2 27 -32.5 47t-77 34t-102.5 28.5t-113 37t-105 53.5t-81.5 83.5t-39.5 121.5q-13 152 89 257t278 122q56 5 119 -3t122 -27.5t99.5 -58t44.5 -89.5q5 -53 -26 -95t-82 -46z" />
    <glyph glyph-name="t" unicode="t" horiz-adv-x="749" 
d="M600 1077q62 -3 100 -36t35 -99q-3 -65 -44 -95.5t-103 -27.5l-66 4q-12 0 -16 -6l-4 -18l-33 -654q-3 -73 -47 -116.5t-109 -40.5t-103.5 51t-35.5 121l33 651q2 14 -2 20q-1 4 -5.5 6t-9.5 3h-4l-43 2q-60 3 -93 39t-30 96q3 56 42 91t94 32l45 -2q14 0 18 4l4 20
l8 150q3 73 46 116.5t108 38.5q65 -3 104 -50t35 -120l-8 -159q0 -3 4 -11q2 -3 6.5 -4.5t8.5 -1.5h4z" />
    <glyph glyph-name="u" unicode="u" horiz-adv-x="1138" 
d="M1085 188q6 -72 -31.5 -121t-101.5 -53q-96 -9 -133 66q-7 12 -18 12q-2 0 -10 -8q-79 -105 -256 -119q-176 -14 -298 83t-139 280l-47 563q-6 72 31.5 121t101.5 53q65 6 109.5 -35.5t50.5 -114.5l45 -512q7 -98 65.5 -145t143.5 -41q88 7 133 68.5t37 150.5l-43 512
q-6 73 31 121.5t102 54.5q64 5 109 -36.5t51 -114.5z" />
    <glyph glyph-name="v" unicode="v" horiz-adv-x="946" 
d="M801 1069q64 -5 105.5 -46t37.5 -108q0 -36 -22 -84l-347 -741q-28 -63 -62.5 -90t-104.5 -23q-68 4 -99.5 36t-52.5 98l-246 780q-14 43 -14 86q4 67 52 102.5t112 30.5q55 -4 84.5 -37t38.5 -76l137 -540q4 -17 18 -19q12 0 21 17l205 518q15 41 48 70t89 26z" />
    <glyph glyph-name="w" unicode="w" horiz-adv-x="1593" 
d="M1436 1065q66 -3 105 -43.5t36 -106.5q-2 -27 -35 -110l-285 -699q-61 -147 -184 -139q-127 6 -164 144l-114 432q-4 13 -17 16q-9 2 -20 -14l-156 -420q-50 -135 -176 -129q-123 8 -170 158l-217 718q-27 90 -25 140q3 50 46.5 82.5t107.5 29.5q52 -3 86 -36.5t47 -86.5
l131 -518q8 -16 14 -16q14 -3 21 12l180 494q23 63 59 93.5t97 27.5t92.5 -36t50.5 -100l131 -503q9 -17 19 -19q5 0 9.5 4t6.5 8l2 5l178 501q18 53 55 83.5t89 27.5z" />
    <glyph glyph-name="x" unicode="x" horiz-adv-x="1042" 
d="M991 268q19 -17 32.5 -44t14.5 -52q4 -64 -33 -106.5t-102 -47.5q-43 -3 -69 11.5t-58 46.5l-248 262q-6 6 -16 6q-9 0 -14 -10l-207 -295q-18 -25 -29.5 -37t-35 -23.5t-54.5 -13.5q-63 -5 -106.5 32t-47.5 101q-6 50 33 103l262 346v2q6 3 6 10q0 4 -3 8.5t-6 7.5l-3 3
l-252 245q-50 50 -53 103q-4 58 39.5 104t101.5 49q59 5 113 -49l209 -225q6 -6 12 -6q5 0 10.5 3.5t8.5 7.5l2 3l170 248q45 60 104 65q58 3 108 -36.5t54 -96.5q3 -54 -37 -108l-215 -279q-1 -1 -2.5 -3.5t-4 -7.5t-1.5 -9q0 -4 4 -8z" />
    <glyph glyph-name="y" unicode="y" horiz-adv-x="995" 
d="M854 1102q49 0 94 -37t45 -90q0 -44 -14 -76l-494 -1229q-48 -116 -139 -116q-71 0 -112 38t-41 89q0 37 18 86q117 285 123 301q7 21 0 38l-320 793q-14 40 -14 76q0 53 45 90t94 37q108 0 148 -105l186 -505q7 -13 14 -13q8 -1 14.5 4t8.5 11l197 503q40 105 147 105z
" />
    <glyph glyph-name="z" unicode="z" horiz-adv-x="1015" 
d="M913 1055q31 -2 61.5 -26t26.5 -75q-5 -48 -38 -86l-494 -569q-2 -2 -4 -4.5t-5.5 -8.5t-2.5 -10q2 -10 14 -16l354 -33q57 -5 91 -43t30 -98q-6 -60 -47 -90.5t-98 -24.5l-684 64q-51 5 -83 34.5t-28 77.5q5 41 35 76l498 578q9 9 4 20q-3 10 -17 10l-303 29
q-58 6 -92.5 44t-28.5 97t47 90.5t97 26.5z" />
    <glyph glyph-name="braceleft" unicode="{" horiz-adv-x="741" 
d="M643 -119q42 2 68.5 -20t29.5 -66q4 -44 -19 -69.5t-65 -28.5l-127 -10q-135 -9 -207.5 51t-82.5 196l-29 398q-3 43 -12.5 71t-25.5 39.5t-31.5 15t-37.5 1.5q-48 -3 -75 23.5t-29 66.5q-3 40 19.5 71t70.5 35q22 1 37 6t29 19t19.5 43.5t2.5 73.5l-28 395
q-9 138 54 208t197 79l127 8q42 3 69 -18.5t30 -65.5t-21 -69.5t-65 -28.5l-49 -5q-90 -6 -82 -124l26 -385q12 -172 -149 -211q-8 -2 -11 -6t0.5 -8t12.5 -5q166 -18 178 -186l27 -387q4 -60 29.5 -87t68.5 -24z" />
    <glyph glyph-name="bar" unicode="|" horiz-adv-x="454" 
d="M317 94q-3 -56 -37.5 -88t-91.5 -29q-55 3 -86 38t-28 91l65 1352q2 56 36 88t91 29t88.5 -38t28.5 -91z" />
    <glyph glyph-name="braceright" unicode="}" horiz-adv-x="718" 
d="M616 672q48 -1 72.5 -31t22.5 -70q0 -40 -26.5 -68.5t-74.5 -27.5q-47 2 -73 -23t-27 -108l-10 -397q-4 -138 -75 -201.5t-206 -58.5l-125 2q-42 2 -66.5 26t-23.5 68q1 45 27 68.5t67 21.5h52q44 -2 67.5 26t24.5 89l10 387q5 167 170 194q9 2 11.5 6t-1 8t-10.5 5
q-163 35 -158 205l10 385q3 117 -88 120l-51 2q-41 2 -65.5 26t-24.5 69q1 44 27.5 67t68.5 23l125 -4q272 -6 266 -275l-10 -397q-3 -83 21.5 -109t72.5 -28z" />
    <glyph glyph-name="asciitilde" unicode="~" horiz-adv-x="1228" 
d="M1036 737q46 4 71 -23.5t28 -68.5q10 -101 -67.5 -192.5t-217.5 -104.5q-50 -5 -117.5 10.5t-122 36t-112.5 36.5t-92 13q-31 -3 -57 -18t-43.5 -35t-34 -40t-37 -35t-44.5 -17q-44 -4 -68.5 23.5t-27.5 68.5q-10 102 67.5 193t217.5 104q50 5 117.5 -10.5t122 -36
t112.5 -36.5t92 -13q31 3 57 18t43.5 35t33.5 40t36 35t43 17z" />
    <glyph glyph-name="uni00A0" unicode="&#xa0;" horiz-adv-x="1024" 
 />
    <glyph glyph-name="sterling" unicode="&#xa3;" horiz-adv-x="1251" 
d="M1026 264q66 -5 103.5 -45.5t33.5 -105.5t-47.5 -100.5t-109.5 -30.5l-799 57q-75 6 -114.5 52t-33.5 118q1 22 20.5 49.5t47.5 59t57 70t52.5 97.5t29.5 127q-3 9 -12 11l-94 6q-66 5 -103.5 45.5t-33.5 105.5t47.5 100.5t109.5 30.5l23 -2q17 0 14 17q-15 43 -25 102.5
t-8 99.5q9 117 87 203.5t197.5 125.5t258.5 30q216 -15 359 -127t133 -262q-4 -70 -52 -110.5t-118 -35.5q-28 2 -50.5 15.5t-38.5 34t-31.5 44.5t-34 48.5t-41 45.5t-57 35t-77.5 17q-81 6 -142 -32t-65 -111q-3 -67 18 -111l19 -35l2 -6q4 -11 27 -14l290 -21
q64 -5 102 -45.5t34 -105.5t-47.5 -100.5t-108.5 -30.5l-240 18h-6q-18 0 -18 -10v-2q-14 -137 -109 -262q-7 -8 -4 -14.5t14 -6.5z" />
    <glyph glyph-name="currency" unicode="&#xa4;" horiz-adv-x="1228" 
d="M1165 352q31 -19 31 -45q4 -39 -20 -74q-19 -32 -68 -36q-37 -3 -59 22l-111 103q-13 10 -29 -3v-2q-107 -86 -268 -92q-167 -9 -276 66q-3 0 -3 2q-14 12 -28 -2h-2l-96 -113q-23 -26 -60 -26q-45 -4 -70 28q-28 35 -28 72q-2 21 26 49l101 111q8 14 -2 28v2
q-84 96 -94 263q-7 176 65 276h2q11 18 -2 31l-2 2l-106 96q-27 22 -31 45q-5 46 20 76q22 35 68 35q32 3 59 -21l103 -92l8 -6q13 -13 29 0q0 2 2 2q47 37 119.5 61t146.5 29q74 3 148.5 -14.5t127.5 -48.5l2 -2q15 -12 29 2l2 2l96 106q23 26 60 29q47 0 69 -31
q29 -34 29 -72q2 -20 -27 -49l-96 -106l-2 -2q-13 -16 0 -29v-2q84 -90 94 -268q6 -162 -69 -273v-2q-10 -16 4 -26zM354 717q6 -117 84.5 -190.5t190.5 -67.5q112 4 183 85t65 197q-6 119 -83.5 194t-191.5 71q-114 -6 -184 -88t-64 -201z" />
    <glyph glyph-name="brokenbar" unicode="&#xa6;" horiz-adv-x="454" 
d="M104 98v398q0 56 33 89t90 33t90 -33t33 -89v-398q0 -56 -33 -89.5t-90 -33.5t-90 33.5t-33 89.5zM104 1057v397q0 56 33 89.5t90 33.5t90 -33.5t33 -89.5v-397q0 -56 -33 -89.5t-90 -33.5t-90 33.5t-33 89.5z" />
    <glyph glyph-name="section" unicode="&#xa7;" 
d="M911 123q-23 -11 -12 -33v-2q63 -106 53 -201q-13 -115 -83.5 -195t-171.5 -112.5t-214 -19.5q-119 12 -231.5 67t-180.5 135t-59 158q6 66 58 103.5t120 31.5q26 -3 48.5 -19.5t38 -40t35.5 -50.5t40 -50.5t52 -41t71 -21.5q55 -7 104.5 19.5t55.5 78.5q3 28 -8.5 54.5
t-27.5 44.5t-51.5 41.5t-59 36t-74.5 38t-74 37.5q-66 34 -113.5 67.5t-93 82.5t-65 113t-11.5 141q12 108 59.5 180t141.5 137q14 11 6 31q-37 54 -52 99t-9 106q13 118 84 200t175 115.5t226 20.5q56 -6 118 -22t129 -46t118 -69t81 -96t23 -122q-5 -56 -50 -96.5
t-101 -34.5q-33 4 -63 26t-54.5 51t-50.5 58t-62.5 51.5t-79.5 26.5q-61 6 -110.5 -29t-55.5 -96q-3 -32 11 -58.5t48.5 -50t69 -41.5t91 -46.5t96.5 -51.5q58 -34 94.5 -57.5t82 -61.5t70 -73t39.5 -84.5t9 -103.5q-11 -118 -66.5 -190.5t-163.5 -135.5zM367 588
q-8 -96 90 -148l225 -125q17 -11 31 -4q99 47 106 131q10 93 -133 168l-194 101q-18 12 -35 2q-82 -53 -90 -125z" />
    <glyph glyph-name="copyright" unicode="&#xa9;" horiz-adv-x="1638" 
d="M1032 1421q99 -24 188 -72.5t157.5 -115t121.5 -149.5t80 -175.5t33 -192.5t-19 -200q-24 -99 -72.5 -188t-115 -157.5t-149.5 -121.5t-175.5 -80t-192.5 -33t-200 19q-100 24 -189 72.5t-157.5 115t-121.5 149.5t-79.5 175.5t-32.5 192.5t19 200q24 100 72.5 189
t115 157.5t149.5 121.5t175.5 79.5t192.5 32.5t200 -19zM729 135q151 -35 296 9t249 154t139 261q35 150 -9 294.5t-154 248.5t-261 139q-150 36 -294.5 -8t-248.5 -154t-139 -260q-36 -151 8 -296t154 -249t260 -139zM1059 805q-6 19 -12 31t-20.5 29.5t-41 30.5t-65.5 22
q-87 21 -148 -30t-88 -159q-25 -108 7 -180t120 -92q31 -8 57.5 -9t43 2t32.5 12t23.5 15.5t19.5 18.5q3 3 13.5 16t14 16.5t13.5 13t17 12t18 6.5t23.5 3t27.5 -4q46 -20 57 -46.5t-2 -80.5q-11 -46 -66 -90t-141 -66.5t-192 0.5q-180 42 -261 183.5t-40 320.5
q42 179 177.5 269.5t316.5 48.5q74 -17 135 -58t95.5 -88t50 -93.5t7.5 -80.5q-12 -54 -33 -72.5t-71 -15.5q-15 4 -27 9t-21 13.5t-14 13.5t-10 19t-6 17.5t-5 22t-5 20.5z" />
    <glyph glyph-name="guillemotleft" unicode="&#xab;" horiz-adv-x="1024" 
d="M332 555l178 -217q25 -31 29 -66q6 -55 -24.5 -96t-84.5 -45q-64 -6 -106 39l-244 303q-21 24 -25 70q-5 49 37 121l168 299q24 37 84 43q52 6 88 -24.5t41 -76.5q3 -44 -14 -80l-129 -252q-6 -10 2 -18zM768 561l170 -221q25 -31 29 -68q5 -54 -26.5 -93.5t-86.5 -43.5
q-66 -3 -106 43l-234 309q-21 24 -25 72q-2 44 41 119l177 293q27 38 86 41q52 4 87 -26.5t40 -76.5q0 -41 -19 -80l-135 -247q-8 -11 2 -21z" />
    <glyph glyph-name="logicalnot" unicode="&#xac;" horiz-adv-x="1228" 
d="M195 870h839q57 0 90 -33t33 -89v-465q0 -56 -33 -89.5t-90 -33.5t-90 33.5t-33 89.5v342h-716q-57 0 -90 33.5t-33 89.5t33 89t90 33z" />
    <glyph glyph-name="registered" unicode="&#xae;" horiz-adv-x="1638" 
d="M639 1499q198 49 390.5 -7.5t331.5 -200.5t187 -341q49 -198 -7.5 -391t-200.5 -332.5t-341 -187.5q-198 -49 -391 7.5t-332.5 201t-187.5 342.5q-49 198 7.5 390.5t201 331.5t342.5 187zM954 217q150 37 259 142.5t151.5 250.5t5.5 295t-142 259t-250 151.5t-296 5.5
q-150 -37 -259 -142t-151.5 -250t-5.5 -296q37 -150 142.5 -259t250.5 -151.5t295 -5.5zM975 737q-18 -6 -2 -24l180 -176q17 -20 21 -39q19 -72 -76 -95q-12 -3 -22.5 -2.5t-19 1.5t-18.5 6.5t-15.5 8.5t-15 12t-13.5 13.5t-14.5 15.5t-14.5 15l-174 195q-10 10 -23 4
q-6 0 -12 -2l-13 -2v-2q-20 -3 -16 -25l53 -213q24 -96 -65 -119q-51 -12 -75.5 6t-37.5 68l-151 614q-9 39 5 66t66 39l223 55q296 75 355 -158q49 -198 -125 -262zM793 1018l-127 -31h-2q-18 -7 -15 -26l33 -136q7 -20 25 -16l131 33q54 13 74.5 37t7.5 75
q-11 51 -44.5 65t-82.5 -1z" />
    <glyph glyph-name="degree" unicode="&#xb0;" horiz-adv-x="819" 
d="M219 1133q0 -69 50.5 -119.5t119.5 -50.5t119.5 50.5t50.5 119.5t-50.5 119.5t-119.5 50.5t-119.5 -50.5t-50.5 -119.5zM59 1133q0 136 96.5 232.5t233.5 96.5t233.5 -96.5t96.5 -232.5q0 -137 -96.5 -233.5t-233.5 -96.5t-233.5 96.5t-96.5 233.5z" />
    <glyph glyph-name="plusminus" unicode="&#xb1;" horiz-adv-x="1228" 
d="M492 807v131q0 56 32.5 89.5t89.5 33.5t90 -33.5t33 -89.5v-131h297q57 0 90 -33.5t33 -89.5t-33 -89.5t-90 -33.5h-297v-131q0 -56 -33 -89.5t-90 -33.5t-89.5 33.5t-32.5 89.5v131h-297q-57 0 -90 33.5t-33 89.5t33 89.5t90 33.5h297zM195 246h839q57 0 90 -33.5
t33 -89.5t-33 -89.5t-90 -33.5h-839q-57 0 -90 33.5t-33 89.5t33 89.5t90 33.5z" />
    <glyph glyph-name="paragraph" unicode="&#xb6;" horiz-adv-x="1269" 
d="M1049 1458q56 1 89 -32t33 -89l9 -1644q0 -56 -33 -89.5t-90 -33.5t-90 33.5t-33 89.5l-6 1560q-4 21 -21 21h-8h-141h-8q-9 0 -15 -6.5t-6 -14.5v-10l6 -1552q0 -56 -33 -89.5t-90 -33.5t-90 33.5t-33 89.5l-4 1032q0 20 -20 20q-211 3 -323.5 94.5t-112.5 254.5
q-1 86 24.5 150.5t68.5 104.5t108.5 65t137 34.5t162.5 9.5z" />
    <glyph glyph-name="periodcentered" unicode="&#xb7;" horiz-adv-x="548" 
d="M274 692q66 0 113 -47.5t47 -112.5q0 -67 -47 -113t-113 -46t-112.5 46.5t-46.5 112.5t46.5 113t112.5 47z" />
    <glyph glyph-name="guillemotright" unicode="&#xbb;" horiz-adv-x="1024" 
d="M692 555q5 8 2 18l-129 252q-20 41 -14 80q5 47 40.5 77t88.5 24q57 -6 84 -43l168 -299q41 -80 37 -121q-3 -44 -27 -70l-242 -303q-42 -45 -108 -39q-53 4 -83.5 45t-25.5 96q5 37 31 66zM256 561q6 9 2 21l-137 247q-20 41 -17 80q3 46 38 76.5t89 26.5q56 -3 84 -41
l179 -293q43 -73 38 -119q-4 -49 -22 -72l-236 -309q-37 -46 -104 -43q-55 4 -86.5 43.5t-26.5 93.5q0 34 27 68z" />
    <glyph glyph-name="ccedilla" unicode="&#xe7;" horiz-adv-x="948" 
 />
    <glyph glyph-name="divide" unicode="&#xf7;" horiz-adv-x="1228" 
d="M1028 662q57 3 92.5 -29t38.5 -86q3 -56 -28 -92t-87 -39l-837 -54q-57 -3 -91.5 28t-37.5 87q-4 55 27 90.5t88 40.5zM590 1063q66 3 116 -40.5t54 -109.5t-40 -115.5t-110 -54.5q-66 -3 -116 40.5t-54 109.5q-3 66 40.5 116t109.5 54zM641 285q66 3 116 -40.5
t54 -109.5t-39.5 -115.5t-109.5 -54.5q-66 -4 -115.5 40t-52.5 110q-4 66 39 115.5t108 54.5z" />
    <glyph glyph-name="Amacron" unicode="&#x100;" horiz-adv-x="1359" 
d="M1303 227q14 -33 20 -75q1 -59 -39 -98.5t-98 -41.5q-113 -5 -154 101q-17 47 -33 94l-6 12q-5 11 -14 14q-5 1 -16 7q-23 13 -19 22q1 1 2 0q0 -1 1 -1.5t3.5 -2t5.5 -2.5q9 -4 21 2q0 8 -2 10l-2 8v7q-2 2 -3 5.5t-1.5 5t-1.5 1.5q-3 8 -11 8q-1 0 -17.5 -0.5t-49 -1.5
t-64.5 -2q-41 -3 -55 -23q-9 -12 4 -34q11 -11 8 -13q-7 -2 -20.5 6.5t-18.5 22.5q-1 4 -2.5 9.5t-2.5 9t-2.5 6t-4.5 2t-8 -3.5q-81 -67 -156 -72q-22 -2 -43 1.5t-32.5 10t-10.5 12.5q0 2 0.5 2.5t2.5 0.5t4.5 -1t7 -2.5t10 -2t13 -0.5t16.5 1q25 4 42 15t15 20
q-5 23 -70 23q-114 -4 -119 -4q-7 0 -10 -6l-53 -187q-31 -109 -143 -112q-62 -3 -108.5 36.5t-47.5 100.5q-2 32 12 67l318 959q15 55 16 74.5t-12 25.5q-12 5 -30.5 -7.5t-37.5 -45.5q-7 -13 -11.5 -25t-5 -18.5t-1 -11.5t-1 -6.5t-3.5 -0.5q-8 2 -11.5 18.5t0.5 43
t17 51.5q43 82 100 94q9 0 15 4t-7 13q-8 6 -34 10q-5 1 -9.5 0.5l-9 -1t-7.5 -0.5t-4.5 1t-0.5 4q6 21 63 25q10 1 27 0q19 -1 19 2q1 1 -1 4q-12 23 -9 60t18 46q3 2 3 -2q0 -2 -1 -6q-1 -12 0 -18q3 -24 22 -33q14 -10 57 12q51 33 107 33q78 3 136 -41.5t89 -120.5
l27 -65q1 -1 2 -4.5t2 -5.5t2 -3q3 -9 7 -12.5t18 -11.5q34 -15 53 -47q14 -25 16 -47t-3 -32t-9 -7q-4 4 -2.5 8t1 16.5t-6.5 24.5q-6 11 -13.5 16.5t-12.5 4.5t-7 -3q-3 -6 0 -18zM854 608q-132 371 -186 520q-8 12 -19 9q-3 0 -6 -1t-4.5 -2.5t-2.5 -3t-2 -4.5l-1 -2
q-135 -470 -152 -530q-3 -10 6 -19q2 -3 6 -4t7 -1l4 1q264 9 327 11q15 0 19 6q7 7 4 20zM274 1595q-38 38 -41 99q-3 63 33 102.5t99 42.5l458 21q36 0 60 8q8 2 12.5 4.5t6 7t2 7t0 8t-0.5 6.5q0 11 -6 20q-3 4 -8 8q-3 3 -2 4q2 2 8.5 1.5t16 -7t16.5 -14.5q4 -6 12 -31
q1 -2 1 -7q2 -7 3 -7.5t2 2.5q26 33 73 39t85 -11q42 -17 59 -46q6 -13 0 -17q-3 -1 -8 6t-18.5 18t-36.5 15q-44 8 -68 -11q-12 -9 -4 -18l16 -17q17 -16 23 -28q15 -27 18 -67q3 -60 -30.5 -100t-91.5 -46h-9l-577 -24q-65 -3 -103 32z" />
    <glyph glyph-name="amacron" unicode="&#x101;" horiz-adv-x="1087" 
d="M594 1114q205 -2 314 -87.5t108 -244.5l-6 -639q0 -66 -40.5 -111.5t-103.5 -45.5q-50 0 -83 18.5t-50 69.5q0 5 -12 8q-3 0 -6.5 -3t-5.5 -5.5t-2 -1.5q-42 -45 -115 -71t-141 -24q-184 2 -295.5 94t-110.5 261q2 379 660 379q6 0 8 4q4 2 8 10v66q0 77 -129 77
q-58 1 -105 -14.5t-71 -34t-52 -34t-53 -15.5q-64 1 -96.5 39t-32.5 88q1 57 68 108.5t161.5 80.5t182.5 28zM506 223q223 -3 223 219l2 31l-6 12q-8 4 -10 4q-162 2 -213 -5q-149 -18 -170 -117q-4 -17 -4 -37q0 -38 27 -63t65 -34.5t86 -9.5zM197 1341q2 63 40 101t101 37
l575 -9q64 0 101 -40q37 -37 37 -101q-2 -60 -37.5 -97t-93.5 -38h-11l-575 8q-62 0 -101 39q-36 39 -36 100z" />
    <glyph glyph-name="Ccaron" unicode="&#x10c;" horiz-adv-x="1275" 
d="M1130 352q42 -1 73.5 -27.5t45 -58t13.5 -57.5q-1 -69 -51.5 -118.5t-128.5 -72.5t-149 -32.5t-138 -8.5q-140 4 -261.5 56t-209 140t-143 208.5t-68.5 259.5q-10 57 -31 68q-11 7 -23.5 -1t-19.5 -36q-5 -21 -3.5 -38t3.5 -19.5t-4 -6.5q-13 0 -22.5 36t-2.5 75
q7 52 24.5 88t57.5 88q8 11 6 14t-9.5 3t-15.5 -1.5t-12.5 0.5t-1.5 9q3 5 45.5 41t51.5 59l8 16q3 8 35 80q2 4 2 12q-2 3 -7.5 3.5t-13.5 -4t-14 -13.5q-9 -12 -11 -24t-2 -17.5t-3 -7.5t-6 6q-13 31 20 75q1 2 2 3q17 28 57 43q21 7 39 25q99 131 245 201.5t322 66.5
q63 -1 133 -14t141 -38.5t116.5 -74t44.5 -111.5q-2 -57 -38 -96.5t-91 -38.5q-13 0 -37 4q-23 8 -33 2q-29 -14 -70 -14q-28 4 -47 15t-24.5 20t-1.5 12q3 1 15.5 -10t31.5 -13q12 -2 20.5 1t11 8t0.5 8q0 8 -18 16q-85 29 -160 29q-123 3 -213.5 -59.5t-135 -165
t-46.5 -230.5q-3 -125 37.5 -227t128 -167.5t209.5 -68.5q74 -1 138 19.5t110 41t79 19.5zM1155 2038q39 -41 38 -99.5t-42 -97.5l-242 -233q-40 -38 -95.5 -38.5t-96.5 36.5l-240 229q-2 0 -6 4q-37 40 -37.5 95.5t37.5 95.5q47 50 111 43q13 0 32.5 -6t26.5 -3q8 5 0 23
t-25 37q-5 5 -9.5 9t-8 6.5t-7.5 4.5t-6.5 3t-5 1.5t-3.5 1t-2.5 1t-1 1t0.5 2.5q5 4 17.5 3.5t33 -10t35.5 -23.5q33 -29 51.5 -56t37.5 -75q7 -16 10.5 -9t9 16.5t10.5 2.5q2 -4 5.5 -36.5t11.5 -49.5q8 -8 14 -8q5 -1 9.5 0.5t6.5 3.5l2 2l131 127q41 40 98 38.5
t97 -42.5h2z" />
    <glyph glyph-name="ccaron" unicode="&#x10d;" horiz-adv-x="948" 
d="M819 778q49 -4 85.5 38.5t39.5 92.5q5 50 -30 91.5t-92.5 66.5t-114 40t-105.5 19q-113 11 -216.5 -27.5t-178.5 -111t-123.5 -172.5t-58.5 -211q-10 -114 19 -220.5t90 -189.5t156.5 -137t211.5 -65q45 -3 102.5 3t119.5 22.5t106 54t49 90.5t-29 94t-86 45
q-13 2 -98.5 -21t-126.5 -20q-75 7 -129 57t-75.5 118.5t-15.5 142.5q10 123 82.5 205.5t190.5 72.5q50 -4 122 -39.5t105 -38.5zM952 1665q38 -41 34.5 -99t-46.5 -96l-250 -223q-41 -37 -96.5 -35.5t-95.5 41.5l-232 238l-4 4q-37 41 -34.5 97t42.5 94q40 40 97.5 39
t97.5 -42l121 -122q9 -9 20 -11q5 0 17 6l133 121q43 38 100 35t96 -45v-2z" />
    <glyph glyph-name="Emacron" unicode="&#x112;" horiz-adv-x="948" 
d="M791 1171q-12 -3 -17 -10q-2 -5 5 -9.5t21 -8t31 -4.5t31 3t15.5 5.5t5.5 -2.5q2 -10 -25 -22.5t-59 -12.5q-37 -3 -60 2q-13 4 -15 2q-2 -1 5 -5l2 -1q13 -6 12 -21q0 -6 -4 -6q-1 0 -3 3.5t-13 11t-33 14.5q-12 3 -24 16t-15 29q-3 15 -10 1q-5 -9 -4 -19q2 -10 -5 -23
t-14 -10q-1 0 0 6.5t2 16.5t-4 22q-16 25 -51 27q-10 0 -14 2l-135 4q-20 0 -23 -21v-16l-8 -240q0 -9 6 -15.5t15 -6.5h16l297 -13q71 -1 108.5 -44t34.5 -101q-2 -57 -42.5 -97.5t-110.5 -39.5l-15 2h-37q-14 0 -34 -23q-21 -24 -52 -30q-15 -4 -28 0.5t-18 11t-3 8.5
t3.5 2t3 -0.5t7.5 -1.5t15 0q12 0 18 9.5t4 15.5q-4 11 -30 14l-150 4q-8 0 -14 -5.5t-6 -14.5v-5l-11 -264q0 -19 21 -22h18l338 -13q70 -3 106.5 -46t33.5 -101q-2 -57 -42 -97.5t-108 -37.5l-528 20q-68 2 -111.5 47t-40.5 113l31 838q0 49 -21 49q-8 0 -17 -14.5
t-13 -36.5t3 -40q2 -6 -1 -7q-6 -1 -13 9t-11.5 28.5t-2.5 37.5q5 52 37 92q11 18 29 33q2 5 3.5 7.5t-4 7.5t-9 7.5t-12 7.5t-11.5 7q-9 6 -17 18t-6 17q2 4 11.5 -0.5t20.5 -9t22 1.5q18 12 22 55l2 16q3 80 45 127.5t121 44.5l508 -18q70 -3 106 -46t33 -101
q-2 -48 -32 -86.5t-82 -47.5zM915 1769q35 -38 35 -102q-3 -59 -39 -95.5t-94 -37.5h-10l-578 22q-63 3 -98 41t-35 103q3 62 42 98t102 35l436 -16q29 0 37 8q2 3 1.5 7.5t-8.5 9.5t-20 7q-17 4 -26 1.5t-15.5 -5t-9.5 -0.5q-3 3 6.5 10t28 11t49.5 -2q14 -2 61 -37
q9 -5 46 -12t57 -21q20 -10 32 -25z" />
    <glyph glyph-name="emacron" unicode="&#x113;" horiz-adv-x="1099" 
d="M936 352q47 3 86.5 -34t42.5 -85q4 -61 -59 -120t-164.5 -97t-210.5 -45q-245 -15 -409 135.5t-179 395.5q-7 112 25 218t95 189.5t159.5 136.5t209.5 60q115 8 220 -34t177.5 -115t117.5 -165.5t51 -185.5q3 -67 -25.5 -101t-95.5 -38l-610 -41q-9 0 -13 -4v-16
q28 -93 106.5 -137t180.5 -38q51 3 99 22.5t76.5 40.5t61.5 39t58 19zM549 862q-90 -6 -148 -67t-69 -152q0 -12 2 -16q8 -4 12 -4l436 28q8 0 11 6q6 6 0 19q-24 89 -88 140.5t-156 45.5zM63 1286q-6 62 28 104t97 48l574 55q63 6 104 -29t47 -96q6 -59 -25 -99.5
t-89 -49.5h-11l-573 -58q-60 -6 -104 29q-42 36 -48 96z" />
    <glyph glyph-name="uni0122" unicode="&#x122;" horiz-adv-x="1546" 
d="M1485 700q-1 -4 -21 -34.5t-26 -55.5q-8 -170 -82 -307t-210.5 -223.5t-316.5 -102.5q-149 -13 -281.5 31t-234.5 135q-2 1 -8 7q-24 19 -29 18q-6 -4 -8 -14t6 -21q5 -7 9 -10.5t6 -4t3 -1.5t1 -4q-2 -2 -9.5 -3.5t-20 5.5t-19.5 20q-13 26 -11 60q3 26 -6 38
q-3 3 -8 13q-29 38 -47 69q-4 4 -4 7q-1 2 -4 7q-23 40 -35 46l-8 2q-6 0 -16.5 -8t-18 -27t-2.5 -41q5 -20 14 -34t16.5 -19t12.5 -9t4 -8q-5 -5 -17.5 -0.5t-30 23t-26.5 41.5q-50 108 33 178q5 5 -7 7q-4 1 -9 1q-22 0 -43 13q-11 7 -18.5 17t-8.5 17.5t2 10.5q1 1 2 -1
t4 -5t6 -5q16 -8 25 -8q27 0 35 23v20q-14 77 -17 105q-18 211 55 389.5t225.5 291.5t356.5 130q149 13 284 -18t215.5 -90.5t86.5 -129.5q6 -65 -26 -107t-87 -47q-38 -3 -73.5 9t-68.5 31.5t-71.5 38t-99.5 28.5t-135 4q-92 -8 -163 -53t-112 -114.5t-58.5 -156
t-8.5 -180.5q16 -198 128 -324t296 -110q58 5 111 24.5t99.5 54.5t75.5 91.5t33 126.5q-3 22 -16 14q-23 -19 -55 -24q-31 -5 -49.5 -0.5t-27.5 12t-5 10.5q2 2 7.5 -0.5t17 -5.5t26.5 0q17 3 23 11t4 14t-11.5 10.5t-23.5 3.5h-4l-95 -8h-36q-10 1 -20 4.5t-16 5.5t-9 0
q-6 -2 -6.5 -13t8.5 -20q6 -6 10.5 -9t6.5 -3t2.5 -0.5t0.5 -3.5q1 -2 -3 -4q-19 -8 -38 9q-4 4 -8 9q-19 25 -19 58q-2 15 -18 53v2q-7 22 -10 43q-4 62 33.5 103t97.5 46l346 31q117 11 164 -63q12 -8 14 -8q5 -1 9.5 7t7 22.5t0.5 31.5q-2 16 -6 26t-8 16q-3 3 -3 4t2 3
q10 3 26.5 -21.5t22.5 -56.5q8 -41 5.5 -74t-17.5 -83q-5 -14 2 -13q4 1 12 5q17 6 17 -1zM948 2062q43 -39 48 -95t-33 -101l-218 -256q-35 -43 -90.5 -49t-99.5 28l-262 205l-4 4q-43 35 -49 90.5t28 98.5q35 46 93 52.5t102 -28.5l139 -106q11 -11 21 -7q2 1 12 11
l117 137q38 43 95 48t101 -32z" />
    <glyph glyph-name="uni0123" unicode="&#x123;" horiz-adv-x="1208" 
d="M1051 29q-24 -257 -189.5 -379.5t-425.5 -100.5q-41 4 -87 13.5t-102 28.5t-98.5 44t-70 63.5t-23.5 84.5q5 42 47 82t84 37q36 -3 75.5 -24.5t94 -44t127.5 -28.5q109 -9 184.5 46.5t84.5 162.5l2 21q0 13 -9 18q-14 6 -24 -4q-105 -91 -275 -76q-90 8 -162.5 45
t-120.5 94.5t-78 132.5t-40 158t-2 172q10 111 54 211.5t112.5 174.5t165 113.5t203.5 29.5q69 -6 134 -39t103 -86l2 -2q8 -8 19 -8q8 3 10 6q1 1 3 4t3 4q46 80 141 72q65 -6 102 -54.5t31 -121.5zM541 236q74 -7 131.5 32t87.5 100.5t37 135.5q6 76 -11 145.5t-66.5 122
t-125.5 59.5q-73 7 -131 -34.5t-88.5 -105t-36.5 -134.5q-11 -127 41 -219t162 -102zM993 1616q34 -46 27 -103t-51 -92l-267 -207q-44 -34 -99.5 -28t-90.5 47l-215 254l-4 4q-34 44 -28.5 99.5t48.5 90.5q43 37 100.5 32.5t94.5 -48.5l117 -137q4 -4 10 -4q7 -2 18 4
l144 112q46 35 102.5 28t91.5 -52h2z" />
    <glyph glyph-name="Imacron" unicode="&#x12a;" horiz-adv-x="555" 
d="M504 877q9 -22 17 -34.5t12 -14.5t4 -3q0 -8 -15 -3q-9 5 -14 12q-7 13 -7 4q0 -5 3 -15q6 -18 6 -63q1 -22 -5 -44t-14 -34.5t-14 -11.5q-4 4 -2.5 5t5 16t1.5 34q-3 26 -12.5 44t-17.5 15q-8 -4 -11.5 -30t-2.5 -50l1 -24l21 -524q3 -75 -37.5 -119t-108.5 -47
t-112.5 37.5t-48.5 115.5v2q-2 26 -7 64q-3 34 -9 50t-17 15q-8 -2 -17 -16.5t-10 -36.5q-1 -11 0.5 -20.5t2.5 -12t4 -8.5q2 -5 -1 -6q-10 -2 -21 21t-11 53q0 44 26 94q12 20 27 35q2 5 3.5 8t-4.5 7.5t-9.5 6.5t-12.5 6.5t-12 6.5q-28 19 -25 32q1 4 10.5 0.5t21 -7.5
t22.5 3q8 7 14 24t6 28q0 7 1 23t1 24l-31 766q-4 74 37 118t109 47t112.5 -37.5t47.5 -115.5l8 -180v-7v-2l8 -100q0 -23 10.5 -45t24.5 -31q9 -5 21 -4.5t17.5 3t8.5 -0.5q1 -6 -11.5 -13t-23.5 -7q-18 2 -25 -8q-4 -5 7 -7q16 -1 31 -13.5t18 -24.5zM657 1714
q3 -60 -30 -99.5t-92 -45.5h-9l-577 -27q-64 -3 -103 33q-41 38 -41 98q-3 62 33 102.5t99 43.5l434 20q33 2 37 10q2 3 1 8t-9 9.5t-21 5.5q-11 1 -20.5 -0.5t-14 -4t-9 -4t-5.5 0.5q-4 3 3.5 10.5t29 13.5t49.5 2q16 -3 63 -32q10 -5 47.5 -9.5t57.5 -15.5q16 -5 34 -23
q40 -34 43 -96z" />
    <glyph glyph-name="imacron" unicode="&#x12b;" horiz-adv-x="612" 
d="M80 162l49 784q4 73 48 116t108 38q65 -3 103 -51t34 -121l-47 -785q-4 -73 -48.5 -115.5t-109.5 -39.5q-65 5 -103 53t-34 121zM-102 1397q6 62 47 96.5t102 28.5l576 -56q61 -6 96 -47t29 -102q-6 -60 -44.5 -94.5t-97.5 -32.5q-6 0 -10 2l-573 53q-65 6 -99 49
q-32 43 -26 103z" />
    <glyph glyph-name="uni0136" unicode="&#x136;" horiz-adv-x="1292" 
d="M1266 205q4 -68 -40 -107.5t-112 -42.5q-41 -3 -75.5 17.5t-86.5 68.5l-88 88q-79 70 -104 70q-12 0 -18 -14.5t-1 -37.5t23 -42q20 -21 40.5 -29t30.5 -8.5t11 -5.5q2 -7 -9 -10q-31 -7 -76 19l-20 13q-54 40 -71 90t6 103q3 3 1 10q-1 3 -5 0q-24 -16 -68 -12
q-15 1 -26.5 4.5t-17 7.5t-3.5 8q1 1 2 0t4 -2.5t8 -1.5q21 0 33 6q8 4 6 10t-12 9q-16 4 -41.5 19.5t-36.5 33.5q-18 27 -10 37q2 3 6 -2q19 -31 47 -43q26 -9 37 2q5 7 -57 69q-20 23 -51 54l-70 67q-10 6 -19 0q-10 -2 -10 -16l27 -475q5 -61 -35.5 -106.5t-108.5 -49.5
q-67 -5 -112.5 33.5t-48.5 103.5l-13 181v2q0 25 -4 61q0 67 -22 74q-8 2 -16.5 -16.5t-8.5 -43.5q-1 -18 3 -31t6 -15t-1 -5q-6 -2 -15 9t-16 32t-8 43q-3 43 4 75.5t29 78.5q4 10 2.5 12t-7 1t-11.5 -3.5t-10 -1.5t-2 6q1 3 28.5 40t26.5 58q0 29 -2 43l-33 582
q-5 64 35 111t108 51q67 3 113.5 -36t50.5 -108l23 -395q0 -11 12 -16q9 -3 19 4l292 350q12 20 25 33q8 10 8 35q0 31 19 69q9 15 20 25.5t20 15t16.5 6.5t12 1t4.5 -3q-1 -3 -16 -9t-25 -23q-7 -11 -8 -19.5t1.5 -13t6.5 -4.5q12 0 21 14q3 4 11 13t11 14l23 28
q55 60 117 64q61 3 108 -36t51 -103q1 -38 -19.5 -75.5t-70.5 -92.5l-354 -391q-4 -8 -4 -13q0 -6 6 -12l487 -453q46 -43 70 -76.5t27 -74.5zM659 -31q62 5 109 -34.5t51 -100.5q6 -78 -53 -125q-11 -11 -98 -92q-23 -20 -56 -20q-36 0 -59 26q-33 33 -16 84l2 2v2
q5 9 8 23q1 7 -4 17t-6 13q-10 24 -13 46q-5 62 34.5 108.5t100.5 50.5z" />
    <glyph glyph-name="uni0137" unicode="&#x137;" horiz-adv-x="1056" 
d="M1034 176q4 -58 -33 -101t-96 -48q-66 -5 -147 79l-344 377q-1 1 -3 2t-7.5 3t-8.5 -1q-7 -3 -10.5 -7.5t-3.5 -7.5v-3l22 -309q4 -73 -33 -121t-102 -53t-109 37.5t-50 115.5l-89 1258q-6 73 32.5 121t103.5 53t109 -38t50 -116l45 -641q-1 -12 11 -16q11 -5 20 4
l279 326q62 68 129 71q53 4 91.5 -33.5t41.5 -89.5q6 -62 -47 -120l-240 -261q-6 -12 -6 -14q4 -12 8 -14l344 -359q40 -40 43 -94zM733 -162q15 -74 -35 -131h-2q-35 -47 -84 -104q-23 -26 -51 -29q-39 -3 -63 18q-41 31 -27 82v2v5q5 16 4 22q0 5 -2 10t-5.5 10t-4.5 7
q-14 24 -19 45q-13 60 20 111t93 65q60 12 111.5 -20.5t64.5 -92.5z" />
    <glyph glyph-name="uni013B" unicode="&#x13b;" horiz-adv-x="950" 
d="M780 303q73 3 113.5 -40t40.5 -101q0 -54 -39.5 -96.5t-103.5 -45.5l-510 -20q-75 -3 -119.5 41t-46.5 121l-2 26q0 4 -1 13t-1 12q0 37 -15 49q-13 7 -24 -4q-3 -1 -6 -4h-3q-2 5 4 14t15 13q3 1 10 2q10 2 10 5l-2 5q-46 56 -49 113q0 16 3 30t8 22t10 7q3 -2 1.5 -2.5
t-3.5 -11t0 -23.5q1 -12 4.5 -22.5t8.5 -15.5t9 -3q10 3 10 55v15l-34 848q-3 74 38.5 117.5t108.5 45.5q68 3 112.5 -37.5t47.5 -115.5q39 -992 41 -1006q0 -20 18 -20q1 0 10 0.5t24 1t30 0.5q44 7 63 33q6 10 6 22.5t-2.5 18t0.5 8.5q7 1 14 -12t5 -23q0 -18 9 -26
q4 -5 5 5q3 17 16 32t25 18q23 9 35 16.5t13.5 10.5t2.5 3q4 1 4 -4q3 -13 -10 -21q-1 0 -2 -1q-13 -8 -3 -8q4 0 13 2q18 6 64 6q22 1 44 -5t34 -14.5t10 -15.5q-4 -4 -5 -2t-15.5 6t-32.5 2t-33 -7.5t-22 -12t-5 -11.5q3 -10 27 -10zM647 -213q6 -76 -53 -125
q-11 -11 -98 -92q-24 -21 -56 -21q-38 0 -59 27q-33 33 -16 84q0 2 2 2v2q1 4 4 11.5t4 11.5q0 7 -4.5 16.5t-5.5 13.5q-10 24 -13 45q-5 62 34.5 109t100.5 51q62 5 108 -34.5t52 -100.5z" />
    <glyph glyph-name="uni013C" unicode="&#x13c;" horiz-adv-x="466" 
d="M39 162l76 1259q4 73 48 116t109 40q65 -5 103.5 -52t34.5 -120l-76 -1260q-4 -73 -48.5 -115.5t-109.5 -39.5q-65 5 -103 52.5t-34 119.5zM301 -217q10 -78 -45 -129q-15 -17 -51.5 -55t-40.5 -43q-22 -22 -53 -25q-36 -3 -62 23q-37 34 -20 84v2v4q6 9 6 22
q1 7 -4 16.5t-6 12.5q-10 18 -17 45q-8 62 28.5 110.5t96.5 57.5q62 9 110.5 -27.5t57.5 -97.5z" />
    <glyph glyph-name="uni0145" unicode="&#x145;" horiz-adv-x="1390" 
d="M1356 205q4 -75 -36 -120t-108 -50q-30 -2 -66.5 12.5t-62.5 42.5q-8 6 -23 19t-23 17.5t-13 2.5t-4 -10t7.5 -21t16.5 -26q7 -9 14 -15.5t11.5 -9t8.5 -4t5 -3t0 -3.5q-6 -8 -34 4t-50 35q-24 28 -34 47q-11 21 -12 12q-1 -2 1 -8q5 -16 -7 -23q-4 -3 -7 0l1 4
q1 3 -1.5 16t-11.5 34q-11 38 8 59q7 10 -1 10q-12 0 -22 -12q-7 -7 -19.5 -10t-16.5 2q-1 2 4.5 5.5t14 10.5t11.5 17q10 23 -12 57q-3 4 -23 29q-38 42 -43 43q-2 -1 -4 -4.5t-0.5 -10t6.5 -12.5q5 -8 11 -12.5t10 -5.5t7 -2.5t3 -4.5q-2 -1 -8.5 -2t-20.5 7.5t-26 25.5
q-16 21 -16 51q0 11 -17 41l-383 434q-11 5 -20 3q-4 -3 -11 -17l31 -463q4 -25 12 -40.5t14.5 -20.5t18.5 -12q12 -5 23.5 -1.5t20 7t9.5 0.5q1 -6 -7 -17.5t-17 -17.5q-3 -2 -11.5 -6t-12.5 -6.5t-10 -7t-4.5 -6.5t3.5 -7q3 -3 27 -35q28 -51 28 -96q0 -19 -6 -37.5
t-13.5 -28t-12.5 -8.5q-3 3 -1.5 4.5t4.5 14t1 28.5q-1 24 -9.5 39t-17.5 15q-8 1 -13.5 -9t-10.5 -32q0 -15 -3 -27q0 -1 -1 -3t-1 -3q-12 -49 -48.5 -77.5t-88.5 -31.5q-68 -5 -114 35t-50 115l-73 1159q-4 75 35.5 120t107.5 50q32 2 68.5 -13.5t64.5 -45.5l688 -789
q9 -9 19 -2q10 2 10 14l-23 367q-6 35 -16 41q-7 7 -25 -2q-9 -6 -8 -6q-2 5 4.5 13.5t16.5 12.5q3 2 10.5 4.5t7.5 3.5t-2 7q-48 55 -51 110q-1 16 1.5 30.5t7 22.5t9.5 7q3 -2 1.5 -2.5t-3.5 -11t0 -23.5q3 -18 11 -30.5t14 -10.5q10 5 10 41l-10 154q-4 75 35.5 120
t107.5 50q85 3 129 -56q4 -3 10.5 -9t8.5 -7q37 -20 47 -51q12 -25 12.5 -46t-4.5 -30t-8 -6q-4 4 -2 7.5t2 16t-6 25.5q-3 6 -10.5 7.5t-8.5 -3.5q-4 -8 -6 -23zM717 -49q60 14 111.5 -18.5t64.5 -92.5q16 -77 -35 -131v-2q-33 -38 -86 -104q-21 -24 -51 -27q-35 -6 -64 16
q-40 32 -26 82q0 4 3 14t3 17q-1 6 -6.5 14.5t-7.5 12.5q-12 19 -19 45q-12 60 20.5 111t92.5 63z" />
    <glyph glyph-name="uni0146" unicode="&#x146;" horiz-adv-x="1064" 
d="M631 1114q177 -6 286 -117t103 -295l-21 -565q-3 -73 -45.5 -116.5t-107.5 -40.5q-65 2 -104.5 48t-36.5 119l18 515q3 99 -49.5 152.5t-136.5 55.5q-88 4 -140 -50.5t-55 -143.5l-18 -514q-3 -73 -46 -117t-108 -41q-65 2 -104.5 48.5t-36.5 119.5l28 786q1 73 45 117
t109 41q94 -3 123 -78q4 -8 12 -12q5 -2 21 6q91 88 264 82zM623 -186q19 -74 -35 -131q-40 -51 -84 -105q-20 -22 -53 -29q-35 -4 -64 19q-37 34 -27 84q2 0 2 2v2q5 20 5 22q0 7 -6 16t-7 13q-11 16 -18 45q-13 60 20 111t93 63q60 14 111 -18.5t63 -93.5z" />
    <glyph glyph-name="Scaron" unicode="&#x160;" horiz-adv-x="1171" 
d="M1073 453q96 -50 72 -166q-9 -49 -40 -74q-14 -12 -18 -4q-2 3 5 10t16 24.5t10 43.5q0 23 -11.5 39.5t-23.5 21.5t-18 2q-6 0 -6 -8q-1 -2 -2 -6t-2 -6q-5 -32 -23 -68v-2q-62 -143 -204 -219t-314 -64q-44 3 -91 9.5t-105 19.5t-108 33.5t-92 47t-65 66t-20 85.5
q5 62 45 101t102 36q38 -2 95 -26.5t121.5 -49t121.5 -27.5q99 -6 156.5 39.5t62.5 122.5q3 49 -32.5 85t-94 60.5t-130 48t-142.5 56.5t-128.5 77t-90.5 117.5t-27 170.5q8 168 125 288q1 0 2 1t2 1q2 2 6 6.5t6 6.5q9 9 9 14q0 6 -6 10.5t-18.5 6t-31.5 -6.5
q-16 -5 -26.5 -14t-16.5 -8q-10 0 3 20q23 33 69 45q37 9 86 2q22 -5 26.5 1t-18.5 26q-14 10 -39.5 16t-58.5 0q-7 -2 -13 -6.5t-9 -9.5t-5.5 -9.5t-3.5 -6.5l-2 -2q-2 3 1 13t13.5 23.5t26.5 22.5q52 30 131 14q12 -3 26.5 -8t30 -12t19.5 -8q13 -4 78 0q59 9 125 6
q39 -3 86 -11.5t102.5 -27t100 -43.5t73 -64.5t25.5 -85.5q-5 -62 -46 -103.5t-102 -37.5q-38 2 -109.5 33.5t-117.5 40.5q-33 0 -41 -15q-1 -3 0 -8t8 -9.5t19 -6.5q15 -3 27.5 0.5t15.5 6t8 -0.5q4 -3 -4 -10t-29.5 -12.5t-48.5 -0.5q-28 5 -64 35q-11 8 -22 8
q-4 0 -16 -4q-64 -30 -70 -100q-2 -34 20 -61.5t61 -46t90.5 -39t107 -39t112 -48t104 -63.5t85 -87.5t53.5 -119.5q9 -24 14 -39q12 -17 37 -12q13 3 22 12q3 3 5.5 6.5t3.5 6t2 2.5q4 -2 4 -10.5t-5 -20.5t-14 -21q-12 -12 -39 -22q-23 -6 -14 -10zM897 2040
q40 -40 41 -97t-39 -98l-235 -241q-40 -40 -96 -42t-97 35l-246 222q-4 4 -6 4q-38 40 -40.5 95t34.5 97q38 42 96 45t101 -35l125 -112v2v-2l10 -8q7 -7 12 -4q4 0 12 4l131 133q40 41 97.5 42.5t97.5 -38.5z" />
    <glyph glyph-name="scaron" unicode="&#x161;" horiz-adv-x="894" 
d="M510 1112q57 -4 118 -22t115.5 -47t88.5 -74t30 -97q-3 -52 -40.5 -88t-88.5 -32q-22 2 -66.5 26t-97.5 49.5t-94 28.5q-43 3 -73 -16t-33 -60q-2 -27 25 -51.5t71 -46t97 -45t105.5 -55t95 -69.5t66.5 -95t19 -125q-11 -150 -134 -239.5t-311 -76.5q-85 6 -176.5 41
t-156.5 93.5t-60 121.5q2 41 40.5 83.5t94.5 39.5q38 -3 75.5 -21.5t64.5 -39.5t69 -40t88 -22q65 -4 92.5 14.5t30.5 61.5q2 27 -24.5 51.5t-70 46t-96.5 45t-105.5 55t-95 70t-66.5 95.5t-19 125q10 153 128 240t294 75zM899 1628q35 -45 27.5 -100.5t-52.5 -91.5
l-266 -207q-43 -34 -98 -28.5t-92 46.5l-215 254l-4 4q-34 44 -28.5 99t48.5 92t100.5 32t94.5 -49l116 -135q3 -6 13 -6q7 -2 18 4l144 113q44 34 101.5 26.5t92.5 -51.5v-2z" />
    <glyph glyph-name="Umacron" unicode="&#x16a;" horiz-adv-x="1402" 
d="M1186 1436q68 -5 108.5 -49.5t36.5 -118.5l-37 -731q-10 -208 -145 -360.5t-334 -196.5q-37 -9 -53 -11q-60 -5 -72 -26q-9 -8 -1 -22.5t36 -22.5q13 -4 25 -5.5t18.5 -1t11.5 1.5t6.5 0t1.5 -4q0 -7 -17 -13.5t-41.5 -8.5t-53.5 4q-51 10 -86 29t-86 61q-16 14 -16 -4
q-1 -26 -1 -27q-2 -4 -8 0q-6 3 -40 48t-56 55q-31 16 -43 24q-108 68 -182 170q-30 38 -41 31q-8 -3 -9.5 -18.5t5.5 -38.5q3 -10 7 -18t7 -11.5t5.5 -6.5t2.5 -3.5t-2 -3.5q-8 -5 -26.5 12.5t-28.5 44.5q-17 39 -10 98q5 24 12 41q6 13 -17 18q-5 1 -28 3q-11 2 -23 9
t-12 13q2 4 10 2t21.5 0.5t19.5 12.5q13 19 8 55q-11 78 -6 135l37 729q4 75 49 115t113 37q67 -3 107.5 -48t37.5 -120l-37 -713q-8 -145 73 -246t224 -108q114 -6 199 60.5t117 174.5q8 28 8 47.5t-5 27t-13 7.5t-17.5 -13.5t-13.5 -35.5q-3 -16 -1.5 -28.5t3.5 -14.5
t-2 -4q-6 -1 -12.5 9.5t-10.5 29t-2 37.5q5 49 39 92q14 18 29 31q5 3 5 7t-4 8.5t-8 7.5t-11.5 8.5t-10.5 7.5q-9 6 -16.5 17.5t-5.5 16.5q2 4 10.5 -1t19.5 -10t23 1q20 11 20 43l27 510q4 75 49 115t113 37zM313 1681q3 62 43 98t103 33l575 -28q61 -3 101 -43
q32 -38 32 -103q-3 -60 -39.5 -95.5t-95.5 -35.5h-10l-578 29q-61 3 -98 43q-36 42 -33 102z" />
    <glyph glyph-name="umacron" unicode="&#x16b;" horiz-adv-x="1138" 
d="M1012 133q-3 -73 -47 -116.5t-109 -41.5q-98 6 -123 86q-5 13 -16 13q-7 0 -10 -6q-93 -93 -271 -84q-177 8 -284.5 119.5t-100.5 295.5l27 564q3 73 46 116.5t107 40.5q65 -3 105 -50t37 -120l-25 -514q-4 -98 48 -153t136 -58q88 -4 141 51t56 144l25 512
q3 73 45.5 117t107.5 41t104.5 -50t35.5 -120zM164 1382q5 63 44.5 98.5t102.5 32.5l576 -34q62 -3 98 -45q37 -43 31 -103q-3 -59 -40 -94t-95 -35h-11l-575 35q-64 3 -98 43q-36 42 -33 102z" />
    <glyph glyph-name="Zcaron" unicode="&#x17d;" horiz-adv-x="1214" 
d="M1108 289q71 -30 74 -115q1 -57 -42.5 -97.5t-101.5 -43.5l-450 -19q-33 -5 -54 -18.5t-32 -26t-15 -14.5q-9 -3 -9 5q0 4 4 16q6 19 -1 19q-4 0 -12 -5q-58 -30 -96 -40.5t-90 -10.5q-26 0 -52 7.5t-40.5 17t-12.5 16.5q1 3 2.5 3.5t6.5 -1.5t11 -4.5t18 -4t26 -0.5
q17 2 28.5 3.5t21.5 4t13.5 6.5t1.5 9q-1 3 -5 4.5t-11.5 2t-14 0.5t-17 -0.5t-15.5 -0.5l-8 -2q-80 -3 -128 36t-51 105q-3 63 37 121l213 324q30 53 12 64t-55 -19q-9 -6 -22.5 -24.5t-14.5 -28.5q-4 -19 -10 -19q-3 2 -4 6q-11 34 25 82q44 54 90 78q21 11 21.5 13.5
t-3.5 6.5q-3 5 -15.5 6.5t-23.5 -1.5q-5 -2 -9.5 -3.5t-7.5 -3.5l-6 -4t-5 -3.5t-4 -2.5t-3 -2t-2 -1.5t-1.5 0t-0.5 1.5q-1 10 18 32.5t38 33.5q55 28 120 28q16 0 35 27l74 111l141 215q11 11 2 22q-2 3 -12 8l-57 -2q-13 -4 -15 -8q-4 -5 2.5 -14t18.5 -10h24
q2 -2 -2.5 -8.5t-16.5 -10.5t-26 0q-25 6 -47 31q-13 16 -28 16h-5l-356 -14q-62 -3 -103 30.5t-44 94.5q-3 58 37.5 100t99.5 45l749 29q83 4 129.5 -37.5t49.5 -101.5q3 -76 -41 -134l-594 -899q-1 -2 -2.5 -4.5t-4 -10t2.5 -11.5q3 -8 12 -8l287 12h4q37 0 60.5 8.5
t30 16.5t13.5 22q6 10 4 23.5t-5.5 20t1.5 9.5q6 2 16.5 -7t14.5 -19l6 -12t6 -12.5t6 -10t7 -5t8 2.5q15 15 37 24q49 25 96 23q29 -1 51 -14t20 -23q-4 -3 -5 -1t-13 6t-29 3q-23 0 -38 -7t-17 -15q-1 -11 17 -18q8 -2 30 -7q10 -3 15 -4q2 -1 5 -2t5 -2h2q1 -1 3 -2t3 -2
zM930 1872q3 7 6 -2q2 -12 -6 -29q-8 -16 -28 -32t-32 -19q-19 -6 -4 -14q12 -6 29 -2q7 0 10 4q2 -3 -1.5 -7.5t-12.5 -9t-21 -6.5q-43 -4 -57 4q-6 3 -6.5 0.5t2.5 -8.5q49 -88 -35 -166q-16 -16 -37.5 -26.5t-34 -10t-14.5 7.5q1 4 9.5 5.5t25 10t31.5 27.5
q13 18 13.5 37t-6 30t-13.5 11q-16 3 -39 -20l-39 -47q-37 -42 -92.5 -48t-98.5 27l-262 203q-4 4 -6 4q-42 37 -47.5 91.5t29.5 99.5q34 46 91 52.5t101 -28.5l133 -102q18 -9 25 -8q10 2 20 12l113 133q37 44 93.5 48.5t100.5 -32.5q43 -37 48.5 -94t-31.5 -100l-4 -4
q-20 -29 -19 -33q2 -7 12 -5t19 7q18 9 35 39z" />
    <glyph glyph-name="zcaron" unicode="&#x17e;" horiz-adv-x="1001" 
d="M877 1065q13 -1 26.5 -5t30.5 -13.5t26.5 -29.5t8.5 -48q0 -28 -7 -45.5t-26 -40.5l-461 -598q-1 -2 -3 -4.5t-5 -9.5t-2 -11q2 -9 16 -14l355 -13q57 -2 93.5 -37.5t35.5 -95.5q-3 -60 -42 -93.5t-96 -31.5l-686 25q-53 3 -86 30t-30 76q0 33 28 78l465 604l2 5
q1 5 1.5 9t-1.5 9q-5 8 -16 8l-305 12q-58 2 -95 38t-34 96q1 60 40 93.5t97 31.5zM897 1593q35 -44 29.5 -101.5t-49.5 -92.5l-265 -209q-43 -35 -99 -30t-91 46l-219 250q0 2 -4 6q-34 43 -28.5 98.5t46.5 92.5q43 37 101 32.5t96 -47.5l112 -129q10 -10 21 -10q8 0 16 4
l139 113q44 35 102 28t93 -51z" />
    <glyph glyph-name="florin" unicode="&#x192;" 
d="M733 899v-2q-1 -11 5 -15.5t16 -4.5l47 4q68 3 107.5 -27.5t43.5 -91.5q3 -72 -43.5 -104t-144.5 -37l-47 -3q-20 -3 -23 -22v-6l-88 -686q-10 -80 -31 -141t-58 -111.5t-97 -79.5t-141 -33q-41 -3 -73 0.5t-63 15t-49 38t-20 67.5q-2 36 9 61.5t25.5 38.5t40.5 21.5
t39.5 10t38.5 3.5q71 2 86 131l84 652v2q3 20 -14 20l-33 -2q-68 -4 -105 29t-40 88q-4 65 35 100.5t110 40.5l62 2h2q17 3 20 23l41 290q19 154 96 235.5t224 90.5q38 2 70 -2.5t63.5 -17.5t51 -41t21.5 -68q4 -68 -36.5 -96t-114.5 -31q-42 -3 -61.5 -32.5t-26.5 -82.5z
" />
    <glyph glyph-name="uni03BC" unicode="&#x3bc;" horiz-adv-x="1138" 
d="M84 -283v1221q0 73 41 118.5t106 45.5t106.5 -45.5t41.5 -118.5v-526q0 -88 56 -139.5t134 -51.5t134.5 51.5t56.5 139.5v526q0 73 41 118.5t106 45.5t106.5 -45.5t41.5 -118.5v-786q0 -73 -41.5 -118.5t-106.5 -45.5t-106 38.5t-41 102.5h-4q-30 -77 -83.5 -115.5
t-105.5 -38.5q-47 0 -101 30t-83 73h-4v-361q0 -73 -41.5 -118t-106.5 -45t-106 45t-41 118z" />
    <glyph glyph-name="uni0401" unicode="&#x401;" horiz-adv-x="987" 
d="M772 260q69 -3 104.5 -46t32.5 -101q-3 -57 -43 -97t-108 -36l-529 28q-68 3 -110 48t-39 114l45 801q0 78 -27 86q-9 3 -22 -17.5t-19 -50.5q-3 -22 -0.5 -38.5t5 -18.5t-2.5 -6q-8 -1 -16.5 14.5t-13.5 41.5t-2 52q5 54 18.5 91.5t48.5 91.5q7 11 5 14t-9 2t-14.5 -3
t-12.5 0t-2 9q3 6 40.5 43t45.5 59h3q14 60 54.5 93t106.5 30l506 -28q69 -4 105 -47.5t34 -102.5q-3 -57 -44 -96.5t-109 -36.5l-340 18q-8 0 -14.5 -5.5t-6.5 -12.5l-14 -258q0 -19 21 -23h4l309 -16q71 -4 107.5 -47.5t33.5 -101.5q-3 -55 -42.5 -94.5t-104.5 -39.5h-2
h-9l-90 7h-14q-7 0 -20 -9q-1 -4 -0.5 -9t9 -10.5t21.5 -8.5q16 -3 30 0.5t18 6t10 -0.5q3 -3 -7 -11t-31 -13t-57 1q-42 14 -67 41q-16 16 -29 19l-86 6q-9 0 -15.5 -7t-6.5 -16v-8l-15 -260q0 -8 6 -14t15 -6h14zM918 1679q-2 -62 -45.5 -104t-104.5 -41q-62 2 -104 45
t-41 104q2 62 45 104.5t104 41.5q62 -2 104.5 -45.5t41.5 -104.5zM438 1796q29 -40 29 -90q-2 -62 -45.5 -104t-104.5 -41q-62 2 -104 45t-41 104q2 62 46.5 104t105.5 41q12 0 28 -4q21 -3 37 2q29 9 55 2q14 -4 22.5 -13.5t9 -16.5t-0.5 -8q-2 -1 -3 -1l-1 1l-1 1
q-1 2 -2.5 3t-5.5 3.5t-9 4.5q-12 5 -21.5 1.5t-9.5 -9.5q0 -7 8 -15q1 -2 4 -5t4 -5v0z" />
    <glyph glyph-name="uni0402" unicode="&#x402;" horiz-adv-x="1341" 
d="M1008 406q0 266 -256 266h-107v-525q0 -75 -42.5 -117t-110.5 -42t-111 42t-43 117v1029h-223q-69 0 -104.5 41.5t-35.5 99.5q0 57 38.5 99t101.5 42h753q63 0 101.5 -42t38.5 -99q0 -58 -35.5 -99.5t-104.5 -41.5h-223v-222h127q245 0 397 -132.5t152 -358.5
q0 -290 -96.5 -505t-329.5 -390q-24 -19 -59 -19q-60 0 -109 37.5t-49 98.5q0 38 35 88q30 44 99.5 135.5t111.5 157.5q31 48 48.5 87.5t25 84.5t9 75t1.5 93z" />
    <glyph glyph-name="uni0403" unicode="&#x403;" horiz-adv-x="909" 
d="M303 1796l242 98q54 21 78 21q44 0 77 -41.5t33 -85.5q0 -87 -84 -121l-229 -90q-14 -6 -31 -13q-20 -8 -42 -8h-9q-44 0 -76.5 47t-32.5 103q0 23 16 46t42 36zM92 147v1151q0 66 43.5 113t116.5 47h524q64 0 100.5 -41.5t36.5 -99.5q0 -57 -36 -99t-101 -42h-377v-1029
q0 -75 -42.5 -117t-110.5 -42t-111 42t-43 117z" />
    <glyph glyph-name="uni0404" unicode="&#x404;" horiz-adv-x="1251" 
d="M1217 217q0 -56 -34 -100.5t-84 -70t-115.5 -42.5t-121 -23t-106.5 -6q-204 0 -366 100t-250.5 271.5t-88.5 382.5q0 158 52 297t143.5 240t223.5 159t286 58q64 0 133.5 -11.5t141.5 -35.5t118.5 -72t46.5 -111q0 -57 -35.5 -97t-91.5 -40q-33 0 -76 18t-103 36t-134 18
q-145 0 -239 -85.5t-128 -225.5h420q71 0 110 -42t39 -100q0 -57 -39.5 -99t-109.5 -42h-426q32 -145 128.5 -234.5t244.5 -89.5q74 0 137 21.5t109 43t79 21.5q62 0 99 -47.5t37 -91.5z" />
    <glyph glyph-name="uni0405" unicode="&#x405;" horiz-adv-x="1099" 
d="M1077 500q18 -212 -122 -356.5t-359 -163.5q-49 -2 -112 -4.5t-132 8.5t-127.5 29t-99 57.5t-45.5 93.5q-5 62 29.5 107t95.5 51q43 4 161 -26t189 -24q97 9 148 63.5t45 131.5q-4 39 -30.5 64t-74.5 44q-39 12 -63 -4q-5 -2 -23.5 -16t-28.5 -18q-59 -26 -104 -13
q-13 5 -23.5 13t-14.5 15t-3 9q1 1 4.5 -2.5t11 -9t15.5 -6.5q22 -3 43.5 7.5t29.5 20.5q14 19 8.5 23t-20.5 -4q-30 -12 -65 -12q-44 0 -65 25q-9 9 -3 11q4 1 14 -4t25 -6q15 -2 25 0.5t12.5 6.5t1.5 10q0 5 -8 8q-64 13 -110 26.5t-101 40t-90.5 61t-62.5 90.5t-34 128
q-15 177 84.5 307.5t268.5 179.5q4 0 12 4q13 0 18 9q2 6 -6 13.5t-20 6.5t-18 -4t-7 0q-2 1 2 8t15 13.5t26 5.5q21 0 51 -21q17 -14 29 -14h8h2q4 0 14 1t15 1q3 0 15.5 1t21.5 1q49 -3 68.5 -0.5t23.5 14.5q3 8 -8.5 20.5t-32.5 22.5q-7 3 -14 4.5t-11.5 2t-8.5 0.5h-6
h-4t-2.5 0.5t-0.5 2.5q2 10 28.5 12.5t55.5 -7.5q38 -13 63.5 -31t57.5 -53q5 -5 8 -6t4 1t1.5 6t0.5 8.5t0.5 7.5t2 4.5t5.5 -1.5t18.5 -31.5t28.5 -38.5l6 -6q63 -43 68 -104q6 -62 -28 -110t-95 -54q-37 -4 -123.5 19.5t-152.5 17.5q-70 -6 -116 -46t-40 -102
q4 -43 43 -67t111 -41q3 0 41 -8q33 -8 59 8q14 14 -2 31q-3 4 -8.5 8.5t-7.5 6.5t0 3q15 3 40 -16.5t31 -40.5q3 -7 17 10q8 10 12 14q13 13 29 22t22 5q7 -3 -5 -12l-9 -9q-10 -17 -13 -28q-2 -7 -1 -9.5t4.5 -1.5t6.5 3t5 4q43 29 117 10q35 -10 57 -30.5t16 -31.5
q-2 -2 -2.5 -2t-4.5 3t-8.5 6t-14 7t-21.5 7q-23 5 -39.5 3.5t-25.5 -6.5t-9 -11q1 -7 9 -12t29 -13.5t38 -17.5q198 -96 219 -334z" />
    <glyph glyph-name="uni0406" unicode="&#x406;" horiz-adv-x="491" 
d="M92 147v1164q0 75 43 117t111 42t110.5 -42t42.5 -117v-1164q0 -75 -42.5 -117t-110.5 -42t-111 42t-43 117z" />
    <glyph glyph-name="uni0407" unicode="&#x407;" horiz-adv-x="491" 
d="M92 147v1164q0 75 43 117t111 42t110.5 -42t42.5 -117v-1164q0 -75 -42.5 -117t-110.5 -42t-111 42t-43 117zM324 1714q0 62 43 105t104 43t104 -43t43 -105t-43 -104.5t-104 -42.5t-104 42.5t-43 104.5zM-127 1714q0 62 43 105t104 43q62 0 105 -43t43 -105
q0 -61 -43 -104t-105 -43t-104.5 42.5t-42.5 104.5z" />
    <glyph glyph-name="uni0408" unicode="&#x408;" horiz-adv-x="833" 
d="M754 1311v-901q0 -99 -24.5 -177t-64.5 -125.5t-94.5 -78t-108.5 -42.5t-114 -12q-45 0 -93.5 7t-100 24.5t-91.5 43t-66 67t-26 92.5q0 45 33.5 85t81.5 40q40 0 119.5 -38t126.5 -38q33 0 56 12.5t34 28t17 43.5t6.5 43.5t0.5 44.5v881q0 75 43 117t111 42t111 -42
t43 -117z" />
    <glyph glyph-name="uni0409" unicode="&#x409;" horiz-adv-x="2097" 
d="M2073 455q0 -213 -130 -334t-346 -121h-391q-74 0 -119 37t-45 110v1041h-405v-459q0 -190 -56 -363t-173 -274q-123 -104 -244 -104q-69 0 -104 41.5t-35 99.5q0 52 26 83t88 60q79 35 135 136t56 260v630q0 74 43 117t110 43h713q68 0 111 -42.5t43 -117.5v-397h211
q113 0 205.5 -27t161.5 -80.5t107 -139.5t38 -199zM1753 459q0 75 -57 123.5t-160 48.5h-186v-361h211q84 0 138 52t54 137z" />
    <glyph glyph-name="uni040A" unicode="&#x40a;" horiz-adv-x="2097" 
d="M2073 455q0 -213 -130 -334t-346 -121h-391q-74 0 -119 37t-45 110v447h-643v-447q0 -75 -42.5 -117t-110.5 -42t-111 42t-43 117v1164q0 75 43 117t111 42t110.5 -42t42.5 -117v-434h643v434q0 75 43 117t111 42t111 -42t43 -117v-410h211q113 0 205.5 -27t161.5 -80.5
t107 -139.5t38 -199zM1753 459q0 75 -57 123.5t-160 48.5h-186v-361h211q84 0 138 52t54 137z" />
    <glyph glyph-name="uni040B" unicode="&#x40b;" horiz-adv-x="1366" 
d="M1321 147q0 -75 -43 -117t-111 -42t-110.5 42t-42.5 117v299q0 105 -71.5 165.5t-190.5 60.5h-107v-525q0 -75 -42.5 -117t-110.5 -42t-111 42t-43 117v1029h-223q-69 0 -104.5 41.5t-35.5 99.5q0 57 38.5 99t101.5 42h753q63 0 101.5 -42t38.5 -99q0 -58 -35.5 -99.5
t-104.5 -41.5h-223v-222h127q247 0 398 -129t151 -362v-316z" />
    <glyph glyph-name="uni040C" unicode="&#x40c;" horiz-adv-x="1251" 
d="M467 1796l242 98q54 21 77 21q44 0 77.5 -41.5t33.5 -85.5q0 -87 -84 -121l-229 -90q-14 -6 -31 -13q-20 -8 -42 -8h-9q-44 0 -76.5 47t-32.5 103q0 23 16 46t42 36zM92 135v1184q0 64 43 107.5t111 43.5q67 0 110 -41t43 -110v-442l504 536q52 57 119 57
q61 0 106.5 -41.5t45.5 -105.5q0 -38 -23 -73.5t-78 -90.5l-387 -381l473 -493q43 -44 64.5 -79.5t21.5 -76.5q0 -68 -46 -104.5t-114 -36.5q-41 0 -74 22t-81 74l-531 573v-522q0 -61 -42.5 -104t-110.5 -43q-67 0 -110.5 40.5t-43.5 106.5z" />
    <glyph glyph-name="uni040E" unicode="&#x40e;" horiz-adv-x="1097" 
d="M201 1759q0 49 22.5 86t69.5 37q39 0 63 -14.5t37 -35t27 -40.5t44 -34.5t77 -14.5q49 0 81 14.5t47.5 35t29.5 40.5t40.5 34.5t67.5 14.5q38 0 65 -40t27 -83q0 -70 -55.5 -120t-134.5 -71.5t-168 -21.5q-59 0 -116.5 12t-109 36t-83 67t-31.5 98zM1096 1323
q0 -27 -17 -70l-538 -1175q-21 -44 -56 -67t-75 -23q-63 0 -113.5 42t-50.5 105q0 30 16 70l119 260l-381 786q-16 33 -16 72q0 62 50 104.5t113 42.5q88 0 132 -90l270 -551l252 551q21 45 57 67.5t78 22.5q62 0 111 -42.5t49 -104.5z" />
    <glyph glyph-name="uni040F" unicode="&#x40f;" horiz-adv-x="1441" 
d="M561 0h-315q-67 0 -110.5 43t-43.5 117v1151q0 75 43 117t111 42t110.5 -42t42.5 -117v-1041h643v1041q0 75 43 117t111 42t111 -42t43 -117v-1151q0 -74 -43.5 -117t-110.5 -43h-328v-229q0 -75 -42.5 -117.5t-110.5 -42.5t-111 42.5t-43 117.5v229z" />
    <glyph glyph-name="uni0410" unicode="&#x410;" horiz-adv-x="1320" 
d="M1300 205q4 -59 -34.5 -101t-96.5 -45q-113 -8 -157 95q-70 174 -72 178q-3 10 -12 8q-1 0 -10.5 -0.5t-29 -1.5t-40.5 -2q-8 -4 -25 -4q-44 -7 -47 -15q-1 -3 4 -6.5t14 -6t19 -3.5q9 0 16 2t9 3.5t5 2.5t3 0q1 -4 -5.5 -8.5t-18.5 -8.5t-25 -5q-48 -5 -99 28
q-3 2 -4.5 2.5t-2.5 -1t-1.5 -3.5t-1 -6t-0.5 -6q-3 -9 -10 -15.5t-12 -4.5q-1 1 6 8q5 16 -2 20q-8 10 -41 10h-2q-67 -5 -156.5 -11.5t-95.5 -6.5q-3 0 -5 -2.5t-1 -5.5l-47 -187q-27 -110 -140 -118q-62 -5 -110 32.5t-52 98.5q-2 34 11 67l86 303q2 7 5 20.5t3 14.5
q0 14 -4 15q-3 4 -13 1t-14 -12q-3 -6 -4.5 -10.5t-1 -5.5t0.5 -2.5t-1 -1.5q-2 -1 -6 5t-3.5 17.5t7.5 22.5q12 18 39 29q20 8 22 18v4q2 23 -14 51q-2 5 -17 29t-20 37q-26 73 -8 127q6 17 17.5 29t21 16t12.5 2q1 -1 -1.5 -2.5t-6.5 -4.5t-8 -6.5t-7.5 -9.5t-4.5 -12
q-4 -26 7 -53t23 -39q21 -20 27 -13t-2 27q-15 46 -10 82q3 48 34 75q14 12 15 3q2 -6 -5 -18.5t-10 -26.5q-4 -20 -0.5 -31t9 -16t10.5 -4q11 4 16 20l135 463q21 75 76 126.5t129 57.5q79 6 139.5 -36t92.5 -117l16 -35q9 -21 24.5 -40.5t24.5 -20.5q4 1 7 7.5t2 20
t-7 29.5q-7 15 -15.5 24t-14.5 12t-10 5.5t-3 5.5q2 11 27 -5q20 -13 33 -34q7 -11 12 -21t6.5 -21.5t2.5 -17.5t-1.5 -19.5t-3 -16.5t-5.5 -18.5t-5 -16.5q-9 -18 0 -27q3 -4 33 -20q7 -3 19.5 -20t16.5 -31q2 -24 -5 -26q-1 0 -3 3q-4 23 -18 37q-18 12 -23 8q-2 -2 -2 -8
l373 -835q17 -41 22 -74zM449 594q3 -4 18 -4l326 24q2 -2 8.5 0.5t9.5 6.5q6 11 4 20q-74 171 -158 391q0 2 -2 2q-3 8 -14 8l-12 6l-4 3q-6 3 -11.5 7.5t-8 8t-1.5 4.5q1 0 1 0.5t1 -0.5t2.5 -2t5 -2.5t7.5 -3.5q8 -2 16 6q1 1 1 5t-1 5q-2 4 -2 8q-23 55 -29 66
q-7 11 -18 8q-15 -3 -15 -12q-101 -414 -133 -537q3 -12 9 -18z" />
    <glyph glyph-name="uni0411" unicode="&#x411;" horiz-adv-x="1189" 
d="M686 872q234 -25 360.5 -145.5t104.5 -339.5q-21 -212 -161.5 -314.5t-356.5 -78.5h-8q-62 2 -84 -29q-8 -7 -7.5 -19t7.5 -20q2 -3 5 -8q3 -4 1 -4q-8 -3 -21.5 8t-17.5 27q-1 4 -2 11t-1.5 10t-2.5 7.5t-4.5 3t-8.5 -3.5q-102 -64 -182 -59q-38 1 -67 14.5t-27 24.5
q5 4 6.5 2t17 -7t35.5 -5q34 2 50.5 8t19.5 22q2 16 -12 31t-41 21l-76 8q-71 6 -112 53t-35 117l77 751q0 3 1 8t1 7q0 3 0.5 19.5t0 22.5t-2 17t-5.5 16.5t-11 8.5q-11 6 -26 -16.5t-21 -55.5q-4 -23 -1 -42t5.5 -22t-2.5 -8q-13 0 -24 36t-7 79q11 104 103 203q5 5 5 8.5
t-3.5 5t-8 2.5t-12 3t-12.5 5q-17 7 -27.5 25.5t-7.5 28.5q3 1 3.5 0.5t4.5 -5.5t8 -8q16 -13 46 -6q16 3 22.5 12.5t9.5 30.5l2 17q7 72 55.5 108.5t120.5 28.5l607 -62q69 -7 103 -52.5t28 -102.5q-7 -57 -49.5 -95.5t-110.5 -31.5l-442 45q-8 2 -15 -4t-8 -15v-4
l-24 -247q-3 -15 18 -23zM625 266q110 -12 172 62q3 4 10 26q3 18 -16 29q-39 17 -58 -16q-5 -9 -8.5 -15.5t-4 -10t-0.5 -6.5v-4t-1 -2.5t-4 -2.5q-5 -1 -10.5 12t-3.5 36t18 42q26 36 86 51q25 8 14 41q-39 83 -184 98l-197 21q-19 0 -22 -19l-31 -297q0 -18 18 -22z" />
    <glyph glyph-name="uni0412" unicode="&#x412;" horiz-adv-x="1224" 
d="M1188 498q20 -211 -97.5 -339t-332.5 -149l-422 -37q-71 -8 -120.5 29.5t-55.5 108.5l-6 53q-2 14 -2 24q-1 1 -3.5 8.5t-3.5 8.5q-5 5 -11 -5q-3 -6 -3 -14q0 -11 3 -18t5.5 -10.5t1.5 -5.5q-2 -2 -8 2.5t-11.5 18t-4.5 32.5q8 32 18 45q8 10 8 24l-2 19v0l-22 239
q1 6 -6 66q-7 66 -23 74q-10 1 -17.5 -17.5t-9.5 -44.5q1 -18 6 -31t7.5 -14t-0.5 -4q-6 -3 -15.5 7.5t-17.5 31t-10 41.5q-4 44 2 76t28 82q5 13 -4 12l-12 -4q-16 -6 -16 -1v3q1 6 26 39.5t27 52.5l-6 60q-4 22 -15 30q-20 17 -34 53q-6 27 -2 43.5t9.5 24t8.5 6.5
q2 -2 0 -8t-4.5 -14.5t0.5 -24.5q3 -8 7.5 -14t8.5 -6.5t6 0.5q5 3 5 22q0 4 -1 13t-1 14l-15 153q-7 72 33.5 117t112.5 51l18 2q75 14 80 17q16 4 18 17t-2 20q-1 3 -14 16q-3 3 -6 4t-4.5 1t-1.5 1q0 5 7 6.5t17.5 -1t20.5 -9.5q13 -11 24 -33q4 -9 11 -12q28 87 139 84
q22 -1 42 -10t29 -18.5t5 -12.5t-10.5 2t-23 11t-40.5 3q-20 -2 -34 -14t-17.5 -24t0.5 -17q4 -4 30 -4l103 8q163 15 283 -74t135 -247q10 -104 -27.5 -180.5t-126.5 -133.5q-2 0 -4 -4l8 -4q131 -9 225.5 -98t106.5 -219zM418 864v-2l137 15q76 6 116.5 53t33.5 123
q-6 70 -56.5 102.5t-122.5 26.5l-139 -15q-15 0 -18 -20l26 -264q3 -19 23 -19zM776 301q103 51 94 170q-8 74 -67.5 112t-163.5 29l-195 -18q-23 -4 -20 -23v-4l27 -288q2 -1 2 -3q0 -9 7 -14.5t15 -5.5l74 8q32 4 37 17q1 4 -5 8t-17.5 7t-24.5 3q-10 -1 -18 -2.5
t-12 -3.5l-7 -3.5t-4 -1t-2 2.5q-1 4 7 10.5t23.5 12.5t32.5 8q62 5 129 -37q6 -2 7 -1t2 9t3 12q1 10 11 18.5t16 6.5q1 0 -0.5 -2t-5.5 -6q-9 -18 0 -27q14 -14 55 6z" />
    <glyph glyph-name="uni0413" unicode="&#x413;" horiz-adv-x="962" 
d="M840 1446q64 -1 99.5 -44.5t33.5 -101.5q-2 -57 -39.5 -97.5t-102.5 -39.5l-356 13q-19 0 -22 -21v-4l-27 -834v-30q3 -16 16 -27q25 -19 31 -45q4 -15 0.5 -25.5t-9 -16.5t-7.5 -5q-2 2 -2 3t0.5 3t0.5 7t-1 14q-1 11 -10 16.5t-15 3.5q-6 -3 -6 -16l-6 -64
q-6 -67 -49 -104t-107 -37q-67 3 -108.5 47.5t-40.5 118.5l18 538q-1 50 -14 86.5t-24 48.5t-21 17q-21 18 -52 4q-4 -1 -9.5 -4.5t-6 -3.5t-2.5 2q-2 11 14 27t37 20q6 1 16 1.5t14.5 0.5t10 2t4 6.5t-3.5 12.5q-70 140 -55 251q9 50 30 86t35 31q4 -3 4 -4t-3 -7.5
t-7 -13.5t-8 -21.5t-6 -31.5q-3 -39 5 -65.5t22 -28.5q28 0 36 68l5 127q2 66 45.5 111t117.5 44l29 -2q13 2 33 19q26 24 72 37q31 4 54 -3t31.5 -16t4.5 -12q-3 -2 -9 1t-18.5 7t-28.5 2q-13 -1 -22.5 -6.5t-10.5 -10t1 -7.5q7 -11 24 -11q3 0 24.5 -2t35.5 -4q92 0 94 -2
z" />
    <glyph glyph-name="uni0414" unicode="&#x414;" horiz-adv-x="1513" 
d="M1356 227q67 -5 107 -50.5t34 -119.5l-18 -266q-4 -74 -50 -113t-114 -34t-107.5 50t-33.5 120l8 129v4q0 16 -19 24l-241 19h-41q-58 5 -66 -15q-6 -11 3.5 -24t37.5 -17q15 -2 26 -0.5t18 3.5t11.5 4t6 1.5t2.5 -3.5q1 -7 -13.5 -16.5t-40.5 -16t-53 -4.5q-52 3 -91 16
t-93 45q-12 7 -15 5t-2 -9t3 -14.5t1 -12.5t-8 -2q-7 2 -47 40t-63 44q-9 3 -29 6.5t-25 4.5l-106 8q-23 -5 -23 -21v-4l-8 -129q-6 -75 -52 -114t-114 -33q-66 5 -105.5 50t-35.5 120l18 266q6 74 53 113t113 34q40 -3 99 189.5t86 396.5q4 54 -13 66q-6 3 -14 -4.5
t-15 -23.5t-10 -36q-2 -9 -2 -18t0.5 -14.5t2 -10.5t2.5 -7.5t1 -4.5t-0.5 -3t-3.5 -1q-7 -1 -15 11.5t-12.5 35.5t-2.5 47q2 58 43 117q19 23 37 39q4 7 5 10.5t-5 9.5t-11.5 10t-14 9.5t-13.5 9.5q-12 8 -22 22t-7 21q2 5 13 -1t24.5 -12t28.5 1q12 8 22 28.5t12 34.5
l7 92q6 75 52.5 114.5t112.5 33.5l168 -13q15 0 21 -2h16l41 -4q44 -3 57 17q6 14 -21 30.5t-65 22.5q-14 2 -26 2.5t-20 -1t-14.5 -3t-10.5 -2.5t-6.5 -2t-4 0t-1.5 4q-2 16 42 32t97 13q69 -6 116.5 -22.5t116.5 -59.5q15 -11 14 -2q-1 12 -22 33q-7 6 -24 19
q-27 22 -19 22q30 -2 64 -22.5t58 -44t50.5 -43.5t44.5 -21q27 -3 41 -9q57 -11 90 -55t29 -111l-76 -1009q0 -13 6 -17h6h7l2 -2h8zM1022 291l63 854q3 17 -18 24l-344 25q-8 0 -14.5 -5.5t-6.5 -14.5v-5l-14 -165q-12 -174 -58.5 -376t-101.5 -315q-5 -14 -2 -20
q4 -4 23 -4l450 -35q21 0 21 18z" />
    <glyph glyph-name="uni0415" unicode="&#x415;" horiz-adv-x="968" 
d="M948 168q3 -57 -32 -102.5t-103 -49.5h-25q-90 -8 -98 -32q-4 -31 8 -45q2 -4 5.5 -8.5t4.5 -5.5t-1 -3q-10 -3 -26.5 8t-23.5 29q-3 6 -4.5 14t-2.5 12.5t-3 8t-5.5 2.5t-10.5 -6q-102 -85 -205 -88q-29 -2 -56.5 3.5t-42.5 14.5t-14 17q0 2 1.5 3t4 0t6 -2.5t9 -3
t12.5 -3t17.5 -1.5t21.5 2q34 4 57.5 17t18.5 24q-10 23 -101 17l-75 -4q-68 -3 -115.5 36.5t-50.5 106.5l-68 1124q-5 80 33 132.5t117 56.5l284 16q29 8 33 17q2 5 -5.5 11t-22 11t-31.5 6q-18 0 -30.5 -4.5t-14 -6.5t-4.5 1q-3 11 23.5 24t58.5 13q43 3 75.5 -4.5
t79.5 -30.5q12 -6 12 0q1 3 -3 15q-5 14 -1 15q1 0 4 -1q4 -1 34.5 -25.5t49.5 -25.5q3 -3 7 -3q51 -9 79.5 -45.5t30.5 -85.5q3 -57 -32.5 -101t-102.5 -48l-340 -21q-7 0 -13.5 -7t-6.5 -15l2 -17l14 -237q0 -9 8 -16t17 -7l14 2h18q44 7 47 25q-4 27 -20 35q-6 4 -20 8
l-6 3l1 1q15 11 50.5 -3.5t50.5 -37.5q3 -4 6 0t9 16.5t11 20.5q9 20 23.5 34.5t23.5 14.5q2 -1 3.5 -2.5t1.5 -3t-1 -4t-2.5 -5l-3 -5t-3.5 -5.5t-3 -6q-8 -28 -8 -36q2 -24 18 0q40 50 132 47q28 0 53 -8t38 -18.5t11 -18.5q0 -3 -1.5 -3.5t-6.5 1.5t-11.5 4t-19 3.5
t-27.5 0.5q-25 0 -44 -5t-27 -12t-6 -14q1 -2 2 -3.5t4 -2t5.5 -1t7 -1t7.5 -0.5q64 0 101 -39t40 -94q3 -57 -34 -101.5t-107 -48.5l-311 -18q-9 -2 -16 -9t-7 -14v-4l17 -264q0 -9 7.5 -14.5t16.5 -5.5h19l336 20q69 4 109.5 -35t43.5 -96z" />
    <glyph glyph-name="uni0416" unicode="&#x416;" horiz-adv-x="2037" 
d="M2030 1384q2 -1 3 -8t-1.5 -19.5t-8.5 -23.5q-3 -4 -4 -6t-6 -7.5t-12 -14.5q-8 -10 -8 -27q-1 -3 -2 -12t-2 -13q-7 -32 -32.5 -63.5t-76.5 -75.5q-52 -49 -45 -63q13 -19 45 2q10 7 17 16t12 10q3 1 3 -3q3 -16 -21 -41q-11 -11 -23 -19q-10 -6 -31 -12.5t-35 -6.5
q-41 -5 -2 -22q43 -12 80 8q11 7 18 31q0 -3 0.5 -10t-5 -19.5t-15.5 -21.5q-30 -33 -96 -39q-11 0 -34.5 4t-29.5 4q-38 0 -78 -31q-2 0 -4 -2l-149 -133l-6 -12q0 -9 4 -11l434 -507q40 -45 59.5 -81.5t18.5 -78.5q-4 -68 -52 -102t-116 -31q-41 3 -73 27t-77 77l-469 567
q-10 10 -18 7q-14 -6 -14 -17l-25 -477q-3 -61 -48.5 -101t-113.5 -36q-59 3 -99 37.5t-46 89.5q0 2 -0.5 9t-1 11.5t-1.5 11.5t-2.5 11t-3 9t-4.5 7.5t-6 3.5q-5 2 -10 -4.5t-9 -19.5t-5 -29q0 -22 8 -40q3 -7 0 -9q-8 0 -19 22.5t-12 51.5q-5 66 45 147q3 5 3 7.5
t-2.5 3.5t-6 1t-9 0.5t-9.5 1.5q-11 3 -20 14.5t-7 16.5q0 2 7 -3q1 -2 3 -3q17 -7 33 0q25 20 37 59q8 36 8 62l8 162q0 12 -8 16q-10 5 -20 -2l-529 -514q-52 -49 -86 -69t-75 -17q-66 3 -110.5 42t-41.5 107q3 42 26.5 76t67.5 74l490 457q4 8 4 12q0 2 -6 14l-4 4
l-351 381q-51 59 -72 95.5t-18 74.5q3 64 50 103t108 36q71 -5 117 -63l444 -528q14 -7 21 -5q5 1 8.5 7.5t3.5 9.5l20 395q3 64 48.5 104.5t113.5 36.5q67 -3 108 -46t38 -111l-23 -396q0 -14 12 -16q10 -6 19 0l499 477q56 56 121 51q26 0 56 -10q14 -7 22 -4q5 2 7 12
t-5 19q-5 6 -9.5 9t-6.5 3.5t-3 1.5t-1 4t8 4t20 -5t19 -19q13 -13 10 -53q0 -26 18 -41h2q16 -5 33 14q9 11 12 20q0 3 3 2z" />
    <glyph glyph-name="uni0417" unicode="&#x417;" horiz-adv-x="1099" 
d="M1026 1305q11 4 24 0t17 -9q0 -2 -12 -2q-22 0 -25 -16q-6 -17 2 -49q30 -83 15 -187q-13 -90 -59 -161t-124 -105v-2q-2 0 -6.5 -3.5t-5.5 -8.5q0 -13 6 -19l2 -2q94 -56 140 -163.5t28 -219.5q-13 -91 -61.5 -167t-122.5 -127.5t-176 -72.5t-215 -5q-103 14 -215 59
q-9 0 -13 4q-17 7 -27.5 8t-21.5 -2.5t-16 -3.5q-40 -5 -70 10q-25 12 -39.5 29.5t-14 27t2.5 11.5q3 1 5 -2.5t4.5 -8.5t10 -12t17.5 -12q11 -6 19.5 -6.5t12 2.5t3.5 6q0 8 -15 23q-2 2 -5.5 4.5t-4.5 3.5q-1 0 -3 1t-3 1q-91 78 -78 168q8 60 52 96t104 27
q31 -5 66 -26.5t64 -45.5t82 -48.5t115 -33.5q80 -11 144 35t76 125q8 54 -3 92t-41 60.5t-58 34.5t-70 25q-3 1 -5 1q-77 23 -114.5 55.5t-28.5 100.5q8 53 36 77t73 31l2 2q7 1 26 4q15 8 17 11q0 6 -7 13.5t-18 8.5q-7 -1 -11.5 -2t-6 -2l-3 -2t-2 -1t-2.5 1q-3 2 1 9.5
t15.5 13t26.5 2.5q21 0 50 -23l7.5 -7.5t5 -5.5t3.5 -3t6 -2q7 0 31 4q87 25 102 118q8 60 -26 104.5t-101 53.5q-60 9 -119.5 -4t-107 -27.5t-80.5 -9.5q-61 9 -92 58t-23 112q10 62 71 99.5t151 50.5q18 3 43.5 5t36.5 4.5t12 6.5t-1 9.5t-11 11t-23 6.5q-10 1 -19.5 -1
t-11.5 -3t-8 2q-8 5 11 14q27 14 61 8q37 -11 61 -29q14 -9 19.5 -7t-2.5 24q-5 12 -24.5 27t-39.5 18q-9 1 -17.5 -3t-13.5 -8t-6 -3q0 7 14 16t35 12q47 3 99 -35q8 -6 23 -22.5t20 -20.5q30 -36 57 -45q56 -10 94 -28q20 -8 38 -16.5t27 -13.5t19.5 -10t13.5 -4t11 3
q15 11 -15 57q-6 9 -12.5 15.5t-10.5 8.5t-7.5 4.5t-4 3t0.5 3.5q6 6 27.5 -6t41.5 -35q44 -52 51 -145q0 -5 1 -6.5t4 -1t5.5 1.5t7.5 4t9 4z" />
    <glyph glyph-name="uni0418" unicode="&#x418;" horiz-adv-x="1458" 
d="M1354 686l32 -498q6 -75 -33.5 -120t-107.5 -48q-68 -5 -114 34.5t-50 113.5l-49 719q0 9 -10 12q-8 4 -21 -2l-581 -864q-22 -33 -56.5 -53t-66.5 -23q-63 -5 -107.5 29t-54.5 98l-2 2q0 3 -1 12.5t-2 17.5t-2.5 17t-4.5 15t-8 8q-8 2 -15.5 -15t-7.5 -39q-1 -19 8 -45
q1 -3 -2 -4q-6 -1 -13 8.5t-12 27.5t-5 38q-5 63 47 147q3 4 3 6.5t-2.5 3.5t-5.5 2t-8.5 1.5t-9.5 1.5q-13 4 -20.5 13.5t-5.5 16.5q0 2 7 -2q1 -1 3 -2q15 -11 30 -2q7 4 9 13.5t0 40.5l-60 899q-6 75 34 120t108 50t113.5 -35t49.5 -115l50 -727q0 -2 4.5 -6.5t9.5 -5.5
q9 -3 16 4l224 334l2 4q8 17 4 39q-9 45 8 80q12 28 30.5 45t28.5 17t13 -1q0 -3 -6 -6t-16 -12t-17 -25q-6 -13 -5 -22t5 -14t8 -5q6 4 18 16q7 12 26.5 37t27.5 37q32 52 36 58l195 290q22 34 57 54t66 22q68 5 114 -34.5t50 -114.5l14 -189l4 -76q3 -23 19 -26
q14 0 25.5 27.5t10.5 66.5q0 13 -1 25t-3.5 19.5t-5 13.5t-4.5 9.5t-3 6.5t-0.5 4t3.5 2q16 5 39 -36.5t27 -92.5q6 -68 -4 -117t-44 -125q-8 -18 2 -16q14 3 29 26q6 9 17 30q12 23 15 24q1 0 1 -4q3 -39 -21.5 -86t-50.5 -86.5t-24 -61.5v-2z" />
    <glyph glyph-name="uni0419" unicode="&#x419;" horiz-adv-x="1441" 
d="M913 1501q-32 -9 -34 -26q0 -6 16 -13t39 -8q6 -1 11.5 -1h9.5t7.5 1t6 2t4.5 1.5t3 1t2.5 0.5t2 -0.5t0.5 -2.5q0 -9 -25 -19.5t-55 -9.5q-41 0 -69 7.5t-68 31.5q-10 5 -10 0q1 -5 12 -18l29 -21q1 -2 -2 -2q-31 1 -78.5 34.5t-55.5 35.5q-30 8 -45 16q-80 24 -130 71
t-50 118q0 49 23.5 86t70.5 37q33 0 55.5 -10.5t33 -26t23.5 -34t26 -34t40.5 -26.5t67.5 -11q49 0 81 14.5t48 35t30.5 41t40.5 35t66 14.5q38 1 66.5 -40t26.5 -83q1 -75 -60.5 -125t-159.5 -72zM1380 1409q2 2 8.5 -2.5t11 -16t1.5 -24.5q0 -16 -25 -47q-3 -3 -2 -4
q2 -14 2 -47l-59 -830v-12q-7 -63 12 -70q4 -3 9.5 3t11 19t8.5 28q4 21 -2 45q-1 3 2 4q10 0 18.5 -26t5.5 -56q-8 -72 -51 -137q-5 -9 -3.5 -11.5t7.5 -2t12 2t9.5 0.5t1.5 -6q-2 -4 -16 -16.5t-28 -30t-18 -35.5l-2 -28q-4 -75 -50 -115t-114 -35t-107.5 50t-35.5 120
l51 717q0 9 -10 16q-6 4 -20 -2l-693 -776q-26 -31 -63.5 -45.5t-69.5 -11.5q-68 5 -107.5 50t-33.5 120l80 1159q6 75 52 114.5t114 34.5q66 -5 105.5 -50t35.5 -120l-51 -725q0 -2 3 -8.5t7 -7.5q13 -3 21 2l454 516q28 36 31 51q0 6 -11 9.5t-28.5 0t-30.5 -17.5
q-14 -16 -18.5 -31.5t-4 -23t-3.5 -8.5q-5 -2 -8 7q-7 29 15 67l3 5q59 84 137 58q3 -3 8 0q2 1 0 4q-6 4 -10 19.5t-2 27.5q-1 11 1 20t5 13.5t6 3.5q1 -1 -1 -4t-1 -6q-3 -12 6 -25q10 -13 13 4q0 10 11 31t24 29q22 16 26 10q0 -2 -2 -4q-21 -17 -29 -37q-4 -22 5 -27
q8 -3 36 25l60 67q28 31 65 46t68 12q53 -3 86 -29q19 -11 35 -37q4 -6 6 -10q3 -2 7.5 -1t9 8t5.5 15q1 7 0 11.5t-2 6.5l-1.5 3t-0.5 1.5t2 2.5z" />
    <glyph glyph-name="uni041A" unicode="&#x41a;" horiz-adv-x="1251" 
d="M702 782q-6 -6 -6 -12q0 -8 4 -10l158 -193q7 -10 14 -10q21 7 25 27q2 12 -1 25q0 1 3 1q2 1 6 -5t7.5 -18t2.5 -24q0 -8 -4 -37q-3 -7 1.5 -20t11.5 -21q6 -5 14.5 -15t9.5 -11q36 -50 56 -43q7 2 3 18t-16 37q-4 7 -8.5 12t-8 8t-7 5.5t-5.5 3.5t-3.5 2t-1.5 1.5
t1 2.5q5 3 16 0.5t28 -14.5t30 -27q22 -25 29 -47q11 -15 11 -8q0 2 -1 6q-2 14 8 20q4 2 6 -2l-1 -3q0 -3 1.5 -14.5t8.5 -31.5q9 -32 -11 -55q-9 -7 -1 -7q12 -1 22 9q5 5 18 7t15 -3q1 -1 -1 -2l-6 -3t-8.5 -5t-9 -8t-6.5 -11q-7 -19 20 -69q1 -2 3.5 -5.5t3.5 -5.5
q66 -83 61 -145q-6 -68 -54 -101t-116 -28q-41 3 -72.5 28t-74.5 80l-455 578q-6 6 -19 6q-12 -5 -12 -16l-18 -223q0 -3 -1 -8.5t-1 -8.5q0 -33 10 -51q21 -29 27 -68q0 -28 -8.5 -48t-17 -26.5t-11.5 -2.5q-1 4 6.5 17.5t7.5 33.5q0 12 -3.5 19.5t-7.5 9.5t-7 1
q-7 -7 -7 -14l-8 -104q-5 -62 -52 -102t-114 -34q-67 5 -106 48t-35 110l68 819q0 11 -2 17q3 67 -19 67q-9 0 -18.5 -13.5t-12.5 -35.5q-2 -11 -2.5 -19.5t0.5 -13t2 -8t0.5 -4.5t-2.5 -2q-6 -1 -12 9.5t-9 28.5t-1 38q6 41 39 92q13 18 30 29q3 5 4 8.5t-4 9t-8 8t-10 8
t-10 7.5q-10 6 -18 18.5t-5 18.5q1 2 10 -4t20.5 -11t23.5 0q9 6 26 49q0 7 4 23l2 41q5 64 51.5 104.5t114.5 34.5t107 -50t35 -114l-33 -393q0 -10 10 -18q10 -3 18 2l514 465q56 52 123 47q60 -5 102 -50.5t38 -109.5q-3 -37 -29.5 -71.5t-85.5 -82.5z" />
    <glyph glyph-name="uni041B" unicode="&#x41b;" horiz-adv-x="1415" 
d="M1341 195q6 -75 -33.5 -120t-107.5 -50t-114 34.5t-50 114.5l-67 983l-4 37q0 12 -7 12q-2 4 -20 4l-352 -24l-19 -4q-6 -4 -6 -15l29 -442q13 -189 -30.5 -365t-153.5 -286q-56 -53 -112 -84t-124 -37q-69 -3 -107 36t-43 97q-3 52 21 84t84 66q33 16 68 51q19 33 22 47
q6 12 -4 33q-3 5 -13 7.5t-23 -2t-21 -16.5q-9 -12 -13 -20.5t-4 -11t-1 -4.5t-5 -3q-6 -1 -10.5 13t0.5 36t24 40q25 30 91 43q23 4 37 30.5t16 67.5v5q0 6 0.5 14t0.5 18.5v20.5t-0.5 20.5t-0.5 17.5l-43 629q-6 79 39 127l12.5 12.5t12.5 13.5t7 12t2 13q-2 11 -10 19.5
t-18 9.5q-6 2 -13.5 3.5t-10.5 2t-1 2.5q12 14 49 8t56 -25q7 -7 10 10q1 3 2 11l4 20q6 23 17.5 41t21.5 19q3 -1 4 -2.5t0 -4.5t-2 -6.5t-3 -8.5t-3 -9q0 -27 4 -37q1 -9 3.5 -11t5 0.5t4.5 6t3 6.5q24 55 117 78q43 8 76 0.5t35 -20.5q0 -3 -2 -4t-7 0t-12 1.5t-19.5 -1
t-27.5 -5.5q-35 -10 -51 -25t-14 -28q0 -50 245 -28v-3l318 23q66 5 112 -35t52 -115z" />
    <glyph glyph-name="uni041C" unicode="&#x41c;" horiz-adv-x="1781" 
d="M1731 135v-37q-3 -66 -47 -104.5t-107 -36.5q-63 3 -97 28t-48 74q-2 4 -5 4q-14 0 -12 -24q0 -11 4 -18.5t7 -11t1 -5.5q0 -3 -7 1.5t-14.5 18.5t-8.5 35q0 29 14 52q6 15 6 49l-74 741q-2 8 -12 8q-4 0 -7 -2.5t-4 -4.5l-1 -3l-154 -461q-5 -11 -12.5 -37t-11.5 -34
q-8 -23 -6 -47.5t12 -36.5q6 -10 17 -13.5t18.5 -3.5t7.5 -2q-2 -8 -16 -10t-25 4q-17 7 -26 1q-5 -4 5 -9q14 -7 22.5 -24t8.5 -29q0 -14 1 -25t2 -16.5t2.5 -10t2.5 -6t1.5 -2.5t0.5 -2q-2 -9 -14 5q-6 7 -8 14q-2 15 -5 5l-3 -14q-2 -18 -17 -61q-8 -20 -21 -38.5
t-25 -27t-17 -4.5q-2 2 -1.5 2t3 3.5t6 7.5t7.5 13t7 21q7 28 4 48t-12 20q-7 0 -12 -7.5t-10.5 -22.5t-10.5 -23q-47 -93 -157 -88q-130 7 -158 127l-199 821q-4 7 -12 10q-4 0 -7 -2.5t-4 -5.5l-1 -2l-146 -780q-15 -74 -53.5 -107.5t-112.5 -30.5q-63 3 -103.5 45.5
t-37.5 108.5q0 23 2 35l123 586q12 51 6 73q-6 8 -20.5 7t-33 -19t-24.5 -43q-7 -34 -1 -51t11 -27t1 -14q-9 -10 -23 17q-21 38 -16 83q3 66 36 108.5t89 51.5q5 0 8 5q2 2 -2 3q-10 3 -24.5 19t-24.5 32q-7 13 -10.5 24.5t-3 18t4.5 6.5q1 0 1 -1t0.5 -5t3.5 -8l22 -22
q9 -5 13 -1.5t1 15.5q-7 14 -7.5 42.5t9.5 53.5q8 23 22 27q4 1 4 -2q0 -2 -1 -4q-12 -36 -8 -62q8 -28 20 -28q10 0 21 43l45 204q11 60 70 106.5t137 43.5q77 -3 133 -53q8 -6 18 -11q34 -8 60 -34q18 -21 23.5 -41.5t3 -31t-6.5 -9.5q-3 1 -3 7t-2.5 17.5t-12.5 22.5
q-6 6 -12.5 5t-6.5 -7q-1 -3 2.5 -15t9.5 -35.5t9 -46.5l180 -712q4 -8 12 -8q4 0 7.5 3.5t4.5 7.5l1 3l266 760q20 59 79 100.5t132 38.5q77 -3 131 -54.5t61 -111.5z" />
    <glyph glyph-name="uni041D" unicode="&#x41d;" horiz-adv-x="1456" 
d="M1268 1432q68 -5 107.5 -50t35.5 -120l-84 -1162q-6 -74 -52 -113t-114 -34t-107.5 50t-33.5 120v2v2v2l4 41q-3 14 -8 16q-7 2 -19.5 0t-26 -18t-16.5 -39q-3 -26 4.5 -44.5t13 -25t1.5 -10.5q-7 -10 -24 17q-20 30 -23 67q-6 116 94 156q2 3 2 4t-7 4.5t-9 5.5
q-18 5 -37 27q-7 11 -10 22.5t-1.5 19t5.5 7.5q1 1 1.5 -0.5t1.5 -6t3 -7.5q16 -12 22 -15q24 -10 39 8q5 8 8 27l13 168q0 8 -4 14q-4 2 -11 2l-608 43q-5 2 -10 0q-8 -5 -8 -16l-31 -426q-6 -75 -52 -115t-114 -35q-66 5 -105.5 51.5t-35.5 121.5l6 83q0 43 -17 54
q-13 11 -34 -2q-2 -1 -5.5 -4t-4 -3t-1.5 1q-3 7 6 18.5t23 17.5q4 1 10.5 1.5t9.5 1t7 2t3 4t-3 8.5q-59 81 -56 164q1 22 6.5 42.5t13 31t13.5 8.5q4 -4 2.5 -5.5t-5.5 -16t-3 -32.5q1 -26 9.5 -43.5t17.5 -15.5q20 0 30 70l56 774q6 74 52 113t114 34q67 -5 106 -50
t35 -120l-31 -411q0 -10 6 -19l21 -4q171 -13 329 -25q44 0 52 15q3 8 -14 18.5t-42 14.5q-18 3 -31.5 0.5t-15 -5t-4.5 1.5q-1 6 11.5 13.5t34 12.5t42.5 3q5 -1 26.5 -4t29.5 -6q19 -8 18 -2q-1 2 -6 6q-14 9 -10 23q1 4 4 4q1 0 2.5 -3t11.5 -11.5t31 -18.5
q12 -5 23.5 -19t11.5 -30q1 -13 8.5 -4t5.5 20q0 10 8 22t14 11q1 -1 -0.5 -7.5t-3.5 -16t2 -21.5q9 -27 41 -35h9q18 0 20 2q6 6 6 12l31 416q6 75 52 115t112 35z" />
    <glyph glyph-name="uni041E" unicode="&#x41e;" horiz-adv-x="1478" 
d="M1419 915q32 -125 33 -242t-35.5 -224.5t-100 -195t-160 -153t-216.5 -98.5q-200 -54 -387 4q-110 24 -158 -10q-10 -7 -19.5 -18.5t-14 -17t-7.5 -3.5q-8 4 -2.5 20.5t15.5 26.5q13 13 13 28q0 9 -11 1q-16 -11 -40.5 -13t-35.5 5q-28 11 -46 14.5t-19.5 1t-6.5 0.5
q-3 3 1.5 8t14 8.5t17.5 1.5q12 -3 12 0q0 4 -18 13q-32 19 -60 47q-19 19 -33.5 44t-17.5 40.5t2 21.5q5 2 7 -2.5t11 -19t27 -29.5q34 -30 76 -24q16 4 17.5 7t-13.5 27q-19 19 -43 47q-4 4 -4 7q-24 24 -47 61q-71 108 -109 246q-32 125 -32.5 242.5t36.5 225
t100.5 194.5t160 152t215.5 97q184 46 346 7t293 -152q24 -20 32 -15q11 7 2.5 34t-32.5 59q-11 14 -22 24t-18 14t-12.5 6.5t-7.5 4t0 4.5q11 12 48 -6.5t73 -57.5q75 -90 88 -241q1 -9 3 -12.5t6.5 -2.5t9 4t12.5 8t14 7q22 8 44.5 3t25.5 -16q2 -3 -0.5 -3.5t-8 0
t-12.5 -0.5q-26 -3 -41 -30q0 -1 -2 -3.5t-2.5 -4.5t-1.5 -6.5t-0.5 -10.5t1.5 -14.5t4 -21t8 -27.5q18 -52 28 -91zM864 274q74 20 129 61.5t86.5 95.5t46 119.5t10.5 136t-24 144.5q-25 91 -70.5 165.5t-110 126t-143.5 68.5t-172 -7q-72 -19 -127 -60t-86.5 -95t-46 -120
t-11 -136.5t23.5 -143.5q25 -92 70 -166t108.5 -126t143 -69t173.5 6z" />
    <glyph glyph-name="uni041F" unicode="&#x41f;" horiz-adv-x="1456" 
d="M1421 188q4 -75 -36.5 -120t-108.5 -50q-67 -3 -112.5 37.5t-49.5 114.5l-63 1024q0 6 -7 10q-4 2 -20 2q-1 0 -44.5 -3t-117 -7.5t-137.5 -7.5l-291 -19q-14 0 -18 -2q-6 -6 -6 -14l61 -1022q6 -74 -34.5 -119.5t-108.5 -50.5q-68 -3 -113 36.5t-49 113.5l-6 102
q-7 47 -23.5 79.5t-27 42.5t-19.5 13q-29 13 -53 -2q-3 -2 -8.5 -6t-6.5 -4.5t-4 0.5q-3 11 12 29.5t36 25.5q6 1 15.5 2t14.5 2t9 3t4 6.5t-5 11.5q-84 129 -79 246q3 51 20 88t33 34q5 -6 2 -7.5t-9 -22.5t-5 -49q0 -39 9 -65t23 -26q28 0 33 56l-37 590q-4 74 37 119.5
t107 50.5l419 24l95 6q56 8 61 25q3 11 -19.5 21t-52.5 10q-22 1 -38 -4t-17.5 -8t-5.5 1q-3 13 29 29.5t71 19.5q53 3 92 -5.5t99 -35.5q16 -7 16 2q0 3 -4 15q-8 21 1 20h3q5 -2 45 -33t64 -36l92 6q66 5 112 -35t50 -115z" />
    <glyph glyph-name="uni0420" unicode="&#x420;" 
d="M1057 1249q87 -128 84 -286q-1 -145 -71.5 -256t-187 -168t-257.5 -56l-203 2h-8q-7 0 -11 -4q-6 -6 -6 -14l-4 -317q0 -75 -47 -119q0 -1 -1 -2t-1 -2q-20 -16 -33.5 -34t-15.5 -20q-27 -20 -68 -26q-27 -3 -47.5 4t-28 15t-4.5 11q3 2 8.5 -1t17 -7.5t26.5 -3.5
q12 1 19.5 5.5t8.5 9.5t0 8q-1 2 -14 6q-57 8 -92 49.5t-35 108.5l12 1151q0 73 42 116t118 43l311 -4q107 0 133 23q7 6 12.5 14.5t7.5 16t3 14t2.5 10t3.5 2.5q10 -3 12 -18t-6 -37q-8 -18 -1 -31q5 -8 13 4l1 2q12 18 33.5 26.5t39.5 6.5q34 -2 53.5 1t23.5 6t5 3
q10 -4 -2 -18q-10 -11 -24 -13q-8 -1 -19 -6t-20 -13t-2.5 -20t32.5 -24q70 -33 117 -78t70 -80zM608 754q95 -1 153 60t60 155t-56 156t-153 63l-153 2h-33q-8 0 -16 -4q-7 -7 -7 -15l-4 -342q3 -31 19 -34q12 -2 16 14v2q4 19 -2 39q-1 7 -4.5 16t-4 11.5t4.5 5.5
q9 0 22 -17.5t21 -38.5q2 -6 5 -19q7 -26 11 -27q2 0 5 3q17 22 52 32.5t48 -1.5q3 -2 0 -3.5t-11.5 -4t-13.5 -4.5q-11 -5 -16.5 -14.5t0.5 -20.5q8 -10 37 -14h20z" />
    <glyph glyph-name="uni0421" unicode="&#x421;" horiz-adv-x="1259" 
d="M793 -18q-49 -4 -62 -25q-9 -8 -1 -23.5t34 -23.5q21 -6 38 -5.5t19.5 2.5t5.5 -3q0 -13 -35.5 -20.5t-74.5 -0.5q-51 12 -86 30.5t-86 59.5q-7 6 -10.5 7t-4.5 -2.5t-1.5 -8t0 -10.5t0 -10.5t-2.5 -6.5t-8 1q-4 3 -38.5 47.5t-55.5 54.5q-55 26 -86 51
q-132 91 -214 238.5t-101 329.5q-20 211 51 390.5t222 294t355 134.5q47 2 104 3t118 -11.5t112 -32t86.5 -57.5t40.5 -89q4 -44 -15.5 -82t-56.5 -55q-34 -23 -32 -41q0 -23 18 -35q6 -4 18 -8l6 -3l-1 -1q-15 -9 -49.5 5t-47.5 36q-6 8 -15 -13q-8 -19 -11 -24
q-11 -20 -26.5 -34t-25.5 -13q-4 4 -3 6t6.5 10.5t7.5 14.5q8 24 8 35q0 6 -2 9.5t-3.5 4t-4 -1t-4.5 -3t-5 -4.5l-2 -3q-38 -47 -129 -47q-28 0 -53 8t-38 18.5t-11 18.5q1 3 2.5 3.5t6.5 -2t11.5 -5t18.5 -4.5t27 -1q55 2 77 35q33 66 -49 72q-15 0 -55 -4
q-122 -12 -204 -85t-114.5 -180t-19.5 -235q12 -123 64 -219.5t146.5 -151t215.5 -43.5q74 7 135 35t104.5 54t75.5 28q62 7 103 -36.5t47 -88.5q5 -56 -24.5 -103t-77 -77.5t-110.5 -53.5t-118 -34t-106 -16h-4z" />
    <glyph glyph-name="uni0422" unicode="&#x422;" horiz-adv-x="1015" 
d="M893 1440q63 -3 99 -47.5t34 -102.5q-3 -59 -40 -98t-105 -35q-27 0 -60 2q-3 0 -9 -1t-9 -1q-5 -2 -12 -11.5t-7 -17.5q0 -15 9.5 -28.5t31.5 -14.5q12 0 20.5 1.5t11.5 3t5 3t3.5 1t4.5 -3.5q5 -3 -3.5 -14.5t-29.5 -20.5t-46 -4q-43 5 -89 49q-13 18 -29 10.5
t-20 -43.5l-45 -928q-3 -75 -47 -114.5t-112 -36.5q-52 2 -89.5 28.5t-50.5 73.5q-2 2 -2 10l-2 2v11q-4 24 -4 39q0 39 -18 41q-13 0 -25.5 -22t-15.5 -56q-3 -23 1.5 -41.5t7 -21t-2.5 -7.5q-14 -2 -27 32.5t-12 78.5q3 102 86 209q5 6 5.5 9.5t-3 5.5t-8 3t-12 2.5
t-13.5 3.5q-18 7 -29 23t-8 26q2 2 3 1.5t5 -5t7 -6.5q18 -12 45 -4q16 4 21.5 15t8.5 36l33 690q-4 11 -6 13q-8 4 -10 4l-207 10q-68 3 -101.5 45.5t-31.5 101.5q3 57 43.5 98t103.5 38z" />
    <glyph glyph-name="uni0423" unicode="&#x423;" horiz-adv-x="1126" 
d="M1102 1260l-148 -338q-6 -29 4 -37q11 -8 34.5 11t41.5 54q9 16 14 30t5.5 22.5t0 15t0.5 9t5 1.5q10 -2 15 -24t1 -56t-18 -65q-28 -64 -59 -103.5t-93 -89.5q-19 -15 -4 -16q13 0 35 12q12 5 34 21q19 13 20 9q0 -1 -1 -3q-16 -36 -59.5 -66t-84.5 -53.5t-50 -42.5
q-1 -1 -2 -3t-2 -3l-203 -471q-21 -44 -56 -67t-75 -25q-63 -2 -114 39t-52 104q0 28 14 72q107 239 109 249q6 12 0 25l-391 766q-17 35 -17 72q-1 62 48 105.5t112 43.5q88 3 133 -86l268 -520q5 -8 13 -8q4 0 7 2.5t4 5.5l1 2l149 344q1 3 4.5 10.5t4.5 10.5
q14 35 1 53.5t-33 16t-30 -6.5q-8 -6 -19 -6t-17.5 3.5t-4.5 8.5h6q6 1 22.5 12t39.5 35q40 35 78 25q15 -4 14 3q0 11 -18 21l-5 2q-20 8 -28.5 22.5t-3.5 23.5q1 2 9 -3.5t22.5 -13t29.5 -6.5q12 0 33 14q43 52 108 52q62 2 112.5 -40.5t51.5 -105.5q0 -29 -16 -69z" />
    <glyph glyph-name="uni0424" unicode="&#x424;" horiz-adv-x="1710" 
d="M1671 674q-12 -161 -98 -293q-18 -29 -36 -50t-25 -28t-5 -12q9 -14 41 6q11 8 17.5 17t9.5 10q8 1 3 -14q-9 -31 -44 -50q-32 -16 -64 -16q-11 -1 -16.5 -3.5t-3 -7.5t17.5 -12q7 -6 33.5 -5.5t44.5 11.5q4 3 7.5 7.5t5 8.5t2.5 8t2 6t2 1q1 -2 0.5 -9t-6.5 -19t-15 -23
q-36 -32 -96 -35q-9 -1 -21 0.5t-26 4.5t-17 3q-7 1 -135 -22q-4 -2 -14 -2q-16 -4 -21 -4q-64 -7 -108 -5q-33 2 -121 25q-12 4 -20 -4q-4 -8 -4 -10l-3 -19q-4 -75 -49.5 -114t-113.5 -33q-68 5 -108 50t-34 120q0 14 2 20q0 9 -6 15l-16 2q-4 0 -12.5 -1t-12.5 -1
q-17 -2 -38 -3t-33 -1.5t-24 -2.5t-17.5 -7t-6.5 -13q0 -12 14.5 -28.5t41.5 -28.5q12 -6 23.5 -9t17.5 -3.5t11 0t7 -0.5t2 -4q-2 -13 -38 -15t-76 11q-50 20 -83 44t-75 71q-15 15 -16 5t-3 -24t-10 -8q-4 3 -23 47.5t-44 69.5q-107 86 -163 219t-44 283q9 116 55 217
t119.5 172.5t175.5 109t215 29.5q48 -3 121 -22q10 -2 16 4q4 2 6 6t2 7v3q7 73 52.5 111.5t113.5 33.5q66 -6 105.5 -49.5t36.5 -113.5v-11q-1 -3 2 -10q3 -4 7.5 -6t7.5 -2h3q70 8 123 4q151 -12 265.5 -98.5t170 -220.5t43.5 -289zM682 481q4 4 4 11l2 10v16
q0 19 -7.5 43.5t-16.5 36.5q-22 28 -29 74q-1 20 2 36.5t8 26.5t11 16.5t10.5 8.5t5.5 0q2 -3 -2 -8.5t-9 -17.5t-4 -29q0 -13 4.5 -22.5t9.5 -11t9 0.5q5 2 11 14t7 25q4 24 9.5 70t5.5 48v2l12 166v11q0 6 -2 10l-10 6q-42 14 -64 14q-114 9 -203 -65.5t-98 -198.5
q-9 -126 66.5 -211t191.5 -94q32 -2 66 8q6 2 10 4zM1053 436q114 -9 202.5 63t98.5 199q9 125 -67 212t-191 96q-22 2 -66 -7q-2 0 -10 -4q-4 -8 -4 -10v-10l-39 -496q-2 -14 2 -20l10 -6q33 -15 64 -17z" />
    <glyph glyph-name="uni0425" unicode="&#x425;" horiz-adv-x="1310" 
d="M887 784q-1 -1 -2 -3t-2 -3q0 -8 2 -10l4 -8l354 -549q30 -54 25 -109q-6 -60 -49.5 -95.5t-106.5 -33.5q-1 0 -33 4q-6 3 -8 3q-2 2 -8 2q-4 4 -8 4q-13 4 -15 2q-2 -1 -4 -6t0 -11.5t8 -11.5t11 -8t6.5 -3t2.5 -0.5t1 -2.5q1 -3 -5 -5q-21 -8 -40 13l-2 2
q-19 19 -23 51q0 16 -12 43q-1 1 -2 3t-2 3l-291 461q-6 12 -12 12q-3 0 -6 -2t-4 -4l-2 -2q-44 -49 -101 -112q-44 -55 -33 -74q14 -24 37 -27q5 -1 13 0q6 -1 6 -2q-5 -10 -24 -14.5t-38 2.5q-6 2 -12.5 6t-10.5 6.5t-8 4t-5.5 -1.5t-2.5 -11q-13 -135 -79 -211
q-19 -22 -42.5 -38t-38.5 -19.5t-22 2.5q-3 4 1.5 6t19.5 12t30 29q21 27 27.5 54t-4.5 30q-23 9 -64 -39l-16 -19q-23 -27 -49 -41q-4 0 -6 -2q-1 0 -3 -1t-3 -1l-5 -2q-28 -11 -67 -8q-68 6 -107.5 50t-33.5 108q5 56 45 100l442 488l6 8q4 4 4 10q0 4 -2 6l-82 137
q-63 89 -88 76q-17 -11 -31 -24q-4 -5 -9 -14.5t-6.5 -11t-6.5 0.5q-7 7 0 28t20 40q18 30 18 33q-2 5 -7 6q-27 0 -51.5 23.5t-22.5 43.5q2 2 4 1t8 -6t12 -7q30 -20 35 2q5 9 -6 31l-22 36q0 5 -4 9l-41 67q-28 45 -25 94q6 66 54.5 103t115.5 31q36 -3 70.5 -28.5
t54.5 -59.5l207 -365v0q6 -10 12 -10t12 6l275 319q26 30 64 48.5t75 15.5q66 -6 106.5 -52t34.5 -112q-6 -50 -41 -88z" />
    <glyph glyph-name="uni0426" unicode="&#x426;" horiz-adv-x="1597" 
d="M1593 -47q6 -8 1.5 -30t-13.5 -38q-26 -44 -74 -69q-11 -7 -14 -35q0 -13 -4 -23q-12 -58 -54.5 -88.5t-101.5 -27.5q-68 3 -108.5 48t-36.5 120l8 155q-1 1 -2 4t-2 4q-3 4 -7.5 6t-7.5 3h-3l-977 49q-67 3 -108.5 48.5t-37.5 119.5l58 1149q3 74 47.5 114t111.5 37
q68 -3 109 -48t37 -120l-49 -1016q-2 -12 4 -18q8 -4 10 -4l53 -4h33h4q2 -2 4 -2l84 -4q23 4 27 6q3 6 0.5 18t-19.5 25t-39 14q-25 2 -41.5 -5t-23 -12.5t-10.5 -2.5q-10 7 15 25q28 19 62 22q58 6 98.5 -16t55.5 -68q9 -9 10 -2q2 9 12.5 23.5t22.5 23.5q9 8 19 12.5
t15 4.5t7 -3q0 -1 -1 -1t-3.5 -1t-5.5 -4q-12 -9 -17 -23q-3 -8 1.5 -11t11.5 3q48 21 80 13q27 -7 29 -18q-2 -3 -5 -3q-31 8 -55 0q-24 -9 -21 -22q0 -7 39 -11l133 -6l35 -2q6 0 10 2q7 7 7 12l51 1024q4 75 49 115t113 37q67 -3 107.5 -48t37.5 -120l-39 -754
q4 -39 14 -43q5 -3 11 3t11 19.5t7 29.5q4 22 -3 40q-2 6 1 7q10 2 20 -24.5t9 -55.5q-3 -32 -9 -55q-5 -13 -2 -15t6 4q0 1 1 2q7 12 20 10q4 0 4 -3q0 -1 -3 -3t-10.5 -12.5t-15.5 -30.5q-5 -10 -18 -20.5t-27 -11.5q-14 -2 -3 -9q10 -6 20 -6q9 2 20 -5t8 -13
q0 -1 -6.5 0.5t-15.5 3t-18 -3.5q-24 -14 -31 -35l-2 -33v-8q0 -8 2 -10q6 -6 12 -6l35 -2q67 -3 108 -48.5t37 -119.5l-2 -39q6 -35 21.5 -37.5t27.5 25.5q5 9 7.5 27.5t-0.5 27.5q-6 15 -1 16q2 0 5 -4q21 -16 16 -67q-8 -57 -33 -93q-10 -17 -7 -20q1 -1 3 -2q3 -2 13 3
t16 11q8 8 12 16.5t5 11.5t3 1z" />
    <glyph glyph-name="uni0427" unicode="&#x427;" horiz-adv-x="1310" 
d="M1202 272q24 0 58 -34q11 -11 17.5 -22t7.5 -17t-3 -9q-2 -1 -2 2q-1 2 -1 3t-1.5 3.5t-3.5 4.5q-18 13 -29 16q-9 3 -11.5 -2t3.5 -14q9 -13 17.5 -42t5.5 -50q-6 -30 -18 -34q-3 -1 -3 3v2q4 40 -6 63q-12 20 -29 23q-9 0 -12 -14q2 -18 -2 -48q-2 -2 -2 -4v-2
q-4 -16 -8 -24v-2q-19 -40 -54.5 -62t-81.5 -24q-68 -2 -112 39t-45 116l-13 340q0 3 -4 11l-12 6l-233 -8q-160 -5 -291.5 52t-210.5 166.5t-84 252.5l-10 315q-3 75 38 119t109 47q68 2 112.5 -39.5t47.5 -116.5l10 -299q3 -103 85 -161.5t204 -53.5l156 6q15 2 21.5 9.5
t2 14.5t-15.5 9q-18 3 -41 0q-6 -1 -15.5 -4.5t-12 -3.5t-5.5 4q0 10 18 22.5t41 18.5l24 6q21 4 22 7q0 2 -3 5q-21 18 -30 54.5t4 48.5q2 2 3 -1t3 -11t4 -13q5 -12 15 -18t20 0q12 9 12 45l-10 334q-3 75 38 118t109 45t112.5 -39t47.5 -114l27 -813q4 -94 12 -107
q9 -14 31 5q29 24 28 67q0 24 -6 41.5t-13 24.5t-11 12.5t-2 9.5q8 13 32 -16q25 -30 33 -72q12 -65 -9 -114t-73 -72q-3 0 -6 -6q-2 -5 4 -5z" />
    <glyph glyph-name="uni0428" unicode="&#x428;" horiz-adv-x="2109" 
d="M2042 879q20 -6 34 -24t11 -30q0 -3 -8 5q-4 4 -8 6q-28 14 -54 0q-7 -4 -15.5 -11.5t-22 -25t-24 -50t-13.5 -75.5l-5 -70v-17v-17t0.5 -13t3 -11.5t5.5 -4.5q4 -1 8 0.5t9 10t7 23.5t0 25.5t0 13.5q5 8 14 -10q14 -28 5 -63q-13 -40 -31 -60q-11 -13 -9 -18t25 2
q13 6 28 23.5t19 39.5q1 8 -2.5 16.5t-6.5 12.5l-3 4q3 1 9 -4.5t11 -18t5 -26.5q3 -44 -39 -94q-6 -8 -47 -41q-23 -23 -27 -55v-3l-10 -200q-4 -74 -50.5 -114.5t-113.5 -37.5l-1065 64q-19 -4 -25 -15q-5 -13 4 -25t37 -16q15 -2 26 -0.5t18 3.5t11.5 4t6 1.5t2.5 -3.5
q2 -13 -32.5 -26.5t-74.5 -12.5q-52 3 -90 15.5t-94 45.5q-16 10 -16 -2q1 -4 3 -13q5 -21 -2 -21q-2 0 -5 1q-5 2 -46 38.5t-65 41.5q-18 3 -35 6l-115 6q-67 5 -107 50.5t-36 119.5l66 1149q4 75 48.5 115t112.5 35q68 -3 108.5 -48t37.5 -120l-60 -1022q-2 -4 2 -10
q6 -9 17 -9l43 -2l352 -20h33q9 -3 16 4q4 8 4 10l27 463q3 47 -10 55q-5 3 -15.5 -1.5t-21 -19.5t-12.5 -36q-2 -22 4.5 -37.5t12 -22t3.5 -10.5q-4 -5 -13.5 3.5t-18.5 28t-11 40.5q-6 52 14.5 88.5t61.5 50.5q3 0 6 4q0 4 -2 5q-16 3 -43 30q-24 35 -12 39q1 0 0.5 -1
t0 -3.5t3.5 -5.5q13 -13 22 -16q6 -2 8 1.5t-2 10.5q-6 11 -10 35t0 39q6 23 16 25q3 -2 3 -5q-8 -27 0 -49q10 -20 20 -18q10 0 10 67q2 16 2 37v59q-3 16 -14 27q-26 24 -31 47q-3 13 1.5 25t11 17t8.5 3t2 -3t-0.5 -2.5t-1.5 -7t0 -13.5q0 -11 8 -17t14 -4q13 4 13 16
q1 4 4 48l2 30q4 75 49 115t113 37q68 -5 108 -50t37 -120l-59 -1012v-10q0 -6 2 -10q11 -7 16 -7l29 -2l381 -24l26 -2q11 0 17 6q1 1 6 10l57 1022q4 75 50 115t114 35q68 -3 107.5 -48t35.5 -120l-6 -103q5 -63 37 -63q12 0 22 25.5t11 64.5q1 18 -1.5 33t-5.5 22l-6 14
q-5 9 1 11q14 3 32 -35t21 -88q5 -114 -78 -246q-5 -8 -5 -12.5t4.5 -6t9.5 -2t14 -1.5t16 -2z" />
    <glyph glyph-name="uni0429" unicode="&#x429;" horiz-adv-x="2240" 
d="M2232 -115q4 -75 -36.5 -119t-108.5 -47q-66 -5 -111.5 36t-48.5 116l-8 156q0 2 -4 10q-7 7 -14 4h-11l-1304 -66q-99 -14 -119 -47q-16 -29 -4 -53q2 -4 5.5 -9t4 -6.5t-1.5 -2.5q-12 -2 -28.5 13.5t-20.5 37.5q-1 7 -1 16v14t-2 10.5t-6 4t-12 -3.5q-139 -73 -251 -55
q-33 5 -62.5 16.5t-44 24.5t-10.5 22q1 3 2 3.5t3.5 -0.5t6 -3.5t9.5 -5.5t13 -6t18 -5t24 -3q92 -3 92 18q3 5 -11 12q-41 14 -67 51.5t-29 92.5l-41 1151q-3 75 37.5 120t108.5 48t113 -37.5t48 -114.5l33 -1016v-8q2 -8 6 -10q6 -6 17 -6l22 2l393 18l39 2q10 0 15 8
q4 2 4 8l-15 295q-5 49 -21.5 86t-27.5 49t-20 17q-26 12 -53 -2q-4 -2 -9 -6.5t-6 -5t-4 1.5q-3 11 11.5 29t35.5 24q7 2 16 3t14.5 1.5t9.5 2.5t4 6t-5 11q-84 133 -76 248q2 33 11.5 63t21.5 45.5t21 12.5q3 -1 3.5 -2.5t-0.5 -4t-3 -6t-4.5 -9.5t-4.5 -13.5t-3 -18.5
t-1 -24q0 -39 9.5 -65.5t23.5 -26.5q31 0 31 92l-10 221q-4 74 36.5 118.5t108.5 49.5q68 3 113 -37.5t49 -115.5l51 -1012q-2 -14 4 -20q7 -7 17 -4h18l442 22q13 0 19 8q4 4 4 10l-51 1022q-4 74 36.5 118.5t108.5 49.5q68 3 112.5 -37.5t47.5 -115.5l12 -209q0 -3 1 -9.5
t1 -9.5q3 -22 34 -60t61 -82t32 -83q1 -7 -5 0q-2 3 -10 12l-24 31q-24 26 -34 23q-6 -2 3 -17q42 -70 57.5 -117t18.5 -114q3 -35 -4.5 -68.5t-19 -52.5t-21.5 -18q-3 1 -4 2.5t0 4t2.5 6.5t3 10t2.5 14.5t1.5 19.5t-1.5 25q-4 26 -13 48.5t-19.5 33t-18.5 6.5
q-20 -10 -20 -62l2 -49v-2q0 -5 1 -24.5t1 -32.5l12 -248q1 -1 2.5 -4.5t3.5 -5.5q3 -4 14 -7l33 2q67 3 112.5 -37t49.5 -114z" />
    <glyph glyph-name="uni042A" unicode="&#x42a;" horiz-adv-x="1259" 
d="M1219 389q-14 -121 -72 -213q-11 -18 -34 -46t-33 -45.5t-3 -29.5q10 -20 33 -20q7 -1 19 0q8 -1 8 -2q-9 -15 -45.5 -18t-59.5 10q-7 3 -7 -6q-1 -5 0 -18t1 -21q-4 -60 -25 -66q-3 -1 -4 0.5t-1 4.5t0.5 7.5l1 9t-0.5 9.5q-3 21 -10 35q-4 8 -7.5 9t-5 -3t-2.5 -8
t-1 -7q-13 -59 -94 -102q-35 -19 -73 -19.5t-40 11.5v3t1.5 1.5t3.5 1t5 0.5t6.5 0.5t8.5 2t10.5 3t13 5t14.5 7.5q57 35 52 68q-1 14 -6 21.5t-17.5 10.5t-24.5 3t-36.5 0.5t-44.5 1.5q-18 0 -58 4l-379 45q-71 9 -111.5 56.5t-31.5 117.5l119 993q3 10 -4 17q-4 4 -11 4
l-139 20q-47 6 -76.5 31t-39 57.5t-5.5 69.5q6 56 49 93t105 30l309 -39q68 -8 105 -55.5t28 -122.5l-45 -379q0 -4 4 -12q10 -5 11 -5l86 -10q58 -5 90 13q37 24 75 24q31 -1 53.5 -11.5t30 -20.5t3.5 -11q-4 -2 -9.5 2t-17.5 10t-29 7q-12 0 -21.5 -4t-12.5 -9t-1 -8
q7 -10 23 -16q12 -2 34.5 -10t26.5 -9q163 -53 246 -172.5t62 -300.5zM537 643q-7 -3 -7 -8l-22 -189q-3 -22 0 -28q8 -21 31 -17q41 5 36 45q-1 14 -3.5 23.5t-4.5 11t-2.5 5t2.5 6.5q4 5 16.5 -2.5t23.5 -27.5t9 -46q-6 -49 -41 -92q-29 -36 27 -48l86 -10
q85 -9 144.5 35.5t68.5 128.5q9 75 -41.5 130t-152.5 67l-160 20q-2 0 -10 -4z" />
    <glyph glyph-name="uni042B" unicode="&#x42b;" horiz-adv-x="1748" 
d="M1681 571q-5 -12 -2.5 -15t9.5 -1.5t14.5 5t12.5 3t3 -7.5q-2 -6 -19.5 -28.5t-32 -51.5t-13.5 -57v-23l12 -184q4 -75 -35.5 -120t-107.5 -48q-68 -5 -113 35t-51 115l-76 1159q-4 75 35.5 120t107.5 50t114 -35t50 -115l39 -584q1 -14 2 -22t3.5 -19t7.5 -16t12 -4
q11 2 20 22t10 50q0 14 -2 25.5t-5 17.5t-5 10.5t-1.5 6.5t3.5 3q7 2 17.5 -12t19.5 -39t10 -51q4 -52 -4 -91.5t-35 -97.5zM881 29q-55 -19 -62 -43q-4 -13 6 -24.5t39 -12.5q14 0 25.5 2t17.5 5t10.5 5t6 1.5t2.5 -3.5q3 -7 -10.5 -17.5t-39 -19.5t-51.5 -10
q-53 -4 -91.5 4t-98.5 35q-9 4 -12.5 3.5t-4 -4t1 -8.5t3.5 -10.5t3 -10t-1 -6.5t-7 -1q-6 2 -47 33.5t-65 36.5q-12 4 -23 4l-147 -11q-72 -5 -121 35t-53 111l-60 917q-2 32 -5 58t-7 45t-7 32t-8 24t-7 15.5t-8 13.5t-7 11q-25 38 -33 57q-23 67 -4 109q5 14 14.5 24.5
t17.5 14t11 2.5q1 -1 -4 -4.5t-11.5 -10.5t-8.5 -16q-4 -22 5 -46t19 -32q20 -18 25 -12t-2 23q-10 25 -10 69q5 45 34 66q10 8 11 2q1 -5 -5.5 -15t-9.5 -24q-7 -40 7 -54q5 -6 12 3q12 12 20 16q37 30 90 33q66 5 112 -35t50 -115l27 -393q0 -7 6 -10l10 -4h10l185 12
q113 8 207 -13t166.5 -70t116 -132.5t50.5 -196.5q9 -151 -51.5 -261.5t-177.5 -168.5q-33 -18 -61 -28zM444 612q-2 -2 -6 -10l8 -115q1 -4 2.5 -14t2.5 -14q3 -13 22 -27q21 -14 35 -43q4 -16 1.5 -27t-8 -16.5t-7.5 -3.5q-2 1 -2 2t0.5 2.5t0.5 3.5v6.5t-1 10.5
q-3 12 -12.5 16t-14.5 2q-8 -8 -8 -16v-29l4 -68q0 -6 6 -12q3 -2 8 -2.5t9 0.5h3l185 12q84 5 135 60.5t45 140.5q-5 75 -64 119.5t-163 38.5l-170 -13q-9 0 -11 -4z" />
    <glyph glyph-name="uni042C" unicode="&#x42c;" horiz-adv-x="1191" 
d="M692 887q233 -18 363 -141t112 -345q-17 -212 -156 -322t-354 -93l-213 18q-44 0 -151 10l-25 2q-6 2 -16 2q-58 6 -78 -8q-2 -2 -6.5 -5.5t-7 -5.5t-5.5 -5t-5 -6.5t-3 -7.5q-1 -6 -1 -14.5t-0.5 -11.5t-2.5 -1q-14 10 -12.5 47t16.5 59q6 6 -6 8q-4 0 -13 1l-24 2
q-58 13 -61 32q0 3 1.5 4.5t5 1t7 -2t8.5 -2.5t9 -1q23 0 37 7q21 9 -5 17l-2 1q-28 9 -51.5 37t-36.5 69q-9 26 -10.5 52t4 42t13.5 17q3 1 4 -0.5t1 -6.5v-12t3 -19t8 -25q23 -58 57 -72q9 -3 16.5 13.5t10.5 43.5l86 1071q6 74 52.5 113t113.5 33q68 -5 106.5 -50
t32.5 -120l-31 -393q0 -7 6 -13q4 -4 9 -4l10 -2zM850 432q6 84 -59 137q-30 20 -35 23q-20 10 -41 16q-28 5 -43 -6q-13 -10 10 -33q4 -4 12 -10q10 -7 6 -8q-16 -8 -46.5 7t-39.5 40q-5 12 -21 -9q-1 -1 -4 -5q-5 -6 -7 -9q-14 -19 -31.5 -31.5t-26.5 -8.5q-3 4 -2 5.5
t7.5 9t9.5 13.5q14 25 14 37q-3 24 -39 31l-37 2q-8 0 -10 -2q-6 -6 -6 -10l-27 -330q0 -4 4 -12q10 -5 11 -5l10 -2l184 -14q84 -6 142 41.5t65 132.5z" />
    <glyph glyph-name="uni042D" unicode="&#x42d;" horiz-adv-x="1251" 
d="M1214 774q17 -210 -57 -388t-227.5 -290.5t-356.5 -128.5q-93 -7 -199.5 6t-180.5 56q-32 18 -46 14q-6 -2 -9.5 -10.5t1.5 -20.5q3 -7 6.5 -10.5t4.5 -4t2 -2t0 -3.5t-8 -2.5t-17 8t-14 22.5q-3 7 0 56q2 8 -0.5 18t-7.5 25t-7 26q-4 16 -4 27q-2 26 9.5 58t42 60
t73.5 32q32 2 79.5 -15.5t112.5 -34t138 -10.5q142 10 230 101t112 231q3 9 -2 14q-3 3 -8.5 4t-10.5 0h-4l-395 -32q-70 -6 -113.5 33.5t-46.5 95.5q-5 58 31 102.5t107 50.5l190 15q46 4 53 4q34 1 37 25q2 23 -30 37q-13 5 -27 7q-18 2 -28.5 -1.5t-10.5 -5t-8 2.5
q-4 4 5 15t30 20t47 4q42 -5 88 -49q11 -12 24.5 -16.5t20.5 5.5t-6 50q-53 103 -144 157t-213 44q-74 -5 -132.5 -27.5t-100.5 -44.5t-74 -25q-56 -4 -94 33t-43 94q-6 75 53 131q22 23 65.5 50.5t65 45.5t10.5 33q-11 12 -31.5 15.5t-54.5 -8.5q-16 -6 -31 -13.5
t-22.5 -12.5t-15.5 -9.5t-10 -4.5t-5 3q-6 14 27 39t82 38q114 30 256 -28q9 -1 13 -2t5.5 5t1 10.5t-1 13.5t-0.5 16q1 22 15.5 39.5t27.5 17.5q2 -1 1.5 -2.5t-3.5 -7t-4 -10.5q-10 -28 8 -52q0 -1 3 -5t5.5 -6t7.5 -6.5t12 -7.5t17.5 -6.5t25.5 -7t34 -6.5q13 0 33 -4h2
q2 0 6 -1t6 -1q241 -41 398 -229t179 -459z" />
    <glyph glyph-name="uni042E" unicode="&#x42e;" horiz-adv-x="2103" 
d="M1421 25q-18 -3 -39 -4.5t-35 -1.5t-26.5 -1t-18 -5.5t-4.5 -12.5q2 -12 17.5 -26.5t42.5 -22.5q10 -3 19 -4.5t15 -2t11.5 0t8.5 1.5t5 1t3 -0.5t1 -3.5q0 -13 -35 -20t-75 1q-51 12 -87.5 32t-84.5 62q-10 8 -13 6.5t-4 -8.5t0 -15t-1.5 -12.5t-8.5 -0.5q-3 2 -32 46
t-64 68q-129 72 -219.5 195.5t-128.5 280.5q-7 16 -9 18q-2 6 -18 6h-2l-162 -8q-4 0 -12 -4q-4 -12 -4 -17l2 -14l20 -412q4 -75 -36.5 -119.5t-108.5 -47.5q-67 -3 -112 37t-48 114l-39 721q-13 150 -21.5 189.5t-33.5 48.5q-13 4 -47 -9q-5 -2 -11 -5t-9.5 -5.5t-7 -4
t-6 -0.5t-3.5 5q-3 10 16 28t43 29q38 21 38 27q0 3 -5 6q-28 17 -40 56t1 57q2 3 4 -0.5t6.5 -12.5t8.5 -14q18 -31 37 -16q10 5 10 43l-2 18q-3 75 37.5 120t107.5 48q68 3 113.5 -37t48.5 -114l20 -412l2 -4q-2 -7 5 -14q4 -2 12 -2l172 8q9 0 12 6l6 20q14 109 60 213
q9 24 20.5 45.5t20 33t14 20.5t4 12.5t-11.5 5.5q-12 4 -29.5 -8.5t-36.5 -44.5q-8 -13 -12.5 -25t-5.5 -18.5t-1.5 -11.5t-1 -6.5t-3.5 -0.5q-8 2 -11.5 18.5t0.5 43t17 51.5q44 83 102 92q17 6 17.5 9.5t-7.5 8.5q-1 0 -2 1q-14 7 -34 10q-5 1 -9.5 0.5l-9 -1t-7.5 -0.5
t-4.5 1t-0.5 4q6 21 63 25q7 0 21 -1q26 -1 25 3l-1 4q-12 23 -9 59t18 45q3 2 3 -2v-9q-1 -10 -1 -15q2 -10 10 -27.5t16 -24.5q11 -11 25 -14t34 3t33 11.5t39.5 18.5t36.5 18q131 62 275 68q151 8 286 -44.5t232 -149t156.5 -232t68.5 -289.5q10 -205 -64.5 -377
t-222.5 -281t-344 -128zM1323 1245q-123 -7 -208.5 -78.5t-121.5 -178t-30 -234.5q5 -96 33.5 -178t78 -145.5t126 -97.5t171.5 -30q134 7 220 85t120 204q13 63 -12 84q-31 31 -37 72q-5 31 0.5 54t13.5 32t11 6q3 -7 0 -11t-7 -17.5t-2 -29.5q3 -13 9 -22t11 -9.5t9 1.5
q14 14 16 41q4 52 -4 94q-31 164 -134 264.5t-263 93.5z" />
    <glyph glyph-name="uni042F" unicode="&#x42f;" horiz-adv-x="1206" 
d="M1167 303q3 0 8 -6.5t8 -19.5t1 -27q-3 -43 -54 -88q-8 -6 -28 -17.5t-25 -15.5q-12 -6 -20 -37q-4 -26 -8 -35v0q-18 -50 -59 -74.5t-95 -21.5q-68 6 -107.5 51.5t-33.5 120.5l30 406q0 12 -12 14q-6 0 -18 -6l-465 -486q-26 -25 -59.5 -35.5t-63.5 -7.5
q-65 4 -105.5 55.5t-35.5 112.5q3 47 47 88l151 138l6 8q7 4 4 14q0 6 -6 13t-18 8q-15 2 -26 0q-3 -1 -3 2t6 7.5t18 8t25 2.5q16 0 35 -4q20 -3 27 4h2l135 125q2 2 4.5 5.5t3.5 4.5q0 7 -8 15q-156 42 -247.5 147.5t-80.5 261.5q11 167 97 277q14 18 35 40t30.5 33.5
t7.5 16.5q-5 14 -29 17t-55 -13q-15 -9 -28.5 -19t-20 -16t-13.5 -11.5t-9 -5t-6 2.5q-8 13 21.5 42t76.5 50q108 46 258 8q6 -1 10 -1t5.5 2.5t1.5 5t-1 7.5t-2 9.5t-2.5 10.5t-1.5 11q-1 22 11 41t24 21q2 -1 2 -2.5t-2.5 -7.5t-3.5 -11q-4 -29 16 -49q1 -1 3.5 -4t5 -5
t7.5 -5.5t13 -6t19 -5.5t27.5 -5t37.5 -4q6 0 10 -2h17h16q45 -5 51 12q3 5 -3 11t-18.5 11t-27.5 7q-23 4 -42 -3q-6 -2 -7 1q0 10 26 20t56 7q39 -1 66 -10.5t69 -34.5q9 -5 9 0q-1 6 -13 18q-6 6 -20 16l-8 7h1q31 -1 77.5 -39t55.5 -41q5 -3 18.5 -5.5t24.5 -4.5l11 -1
q75 -6 113 -51.5t32 -118.5l-68 -858q-3 -86 17 -106q4 -1 9.5 -1t12 8t10.5 22q3 10 4 19t1.5 12.5t3.5 6.5q4 6 9 -9q10 -30 -5 -66q-3 -10 -15.5 -27t-23.5 -27q-13 -10 -12 -16.5t24 -1.5q14 5 32.5 19t25.5 34q3 9 0.5 17.5t-4.5 14.5zM807 819l24 322q0 8 -2 10
q-4 4 -12 8l-194 15q-87 8 -142.5 -35t-62.5 -129q-6 -85 42.5 -138t133.5 -59l184 -14h10q7 -2 11 2q8 5 8 16v2z" />
    <glyph glyph-name="uni0430" unicode="&#x430;" horiz-adv-x="1087" 
d="M516 1116q203 19 320.5 -57t130.5 -234l55 -637q6 -66 -30 -115t-99 -55q-50 -3 -84 11.5t-55 64.5q-6 6 -13 6q-5 -2 -14 -12q-38 -49 -107.5 -81t-138.5 -38q-184 -15 -303.5 67t-134.5 249q-6 69 11 127.5t50 100.5t84 76t104.5 56t120 38.5t123.5 25t121 14.5
q11 0 17 6q4 8 4 14l-6 62q-5 78 -135 65q-58 -5 -98 -21t-56.5 -32t-38 -30.5t-45.5 -16.5q-64 -6 -100 28.5t-41 84.5q-5 57 49 109.5t137.5 84.5t171.5 39zM512 219q222 20 203 240l-2 33q-4 8 -8 10q-4 4 -11 4q-166 -13 -226 -29q-142 -38 -143 -148q0 -10 1 -20
q4 -54 58 -75.5t128 -14.5z" />
    <glyph glyph-name="uni0431" unicode="&#x431;" horiz-adv-x="1138" 
d="M649 1073q141 -15 250 -104t160.5 -220.5t36.5 -273.5q-14 -147 -92 -263.5t-207.5 -178t-282.5 -45.5q-186 19 -300 129t-151 280q-12 50 -14 113.5t1 109t11 121.5q18 163 82 322.5t142 222.5l28.5 21t28.5 20.5t32.5 20.5t35 18t41 16.5t46 13.5t54.5 11t61 6t71 3
t81 -3q23 -1 69.5 18.5t71.5 16.5q56 -6 92 -48.5t31 -88.5q-7 -65 -72.5 -112.5t-169.5 -43.5q-87 9 -167 2.5t-156 -37.5q-33 -12 -64.5 -42t-46.5 -64q0 -1 -1 -5t-1.5 -7.5t0.5 -6.5q4 -2 9.5 0t10.5 5l5 4q49 37 124 56.5t150 12.5zM543 256q112 -11 181 68t81 192
q7 71 -9.5 136t-66.5 115.5t-127 59.5q-113 11 -180.5 -65t-79.5 -189q-7 -71 9.5 -138t66 -119t125.5 -60z" />
    <glyph glyph-name="uni0432" unicode="&#x432;" horiz-adv-x="1067" 
d="M793 608q91 -18 153 -83t68 -156q10 -158 -81.5 -252t-252.5 -103l-418 -28q-56 -3 -100.5 34t-48.5 93l-54 815q-4 56 34.5 98t96.5 47l396 27q123 8 209.5 -61.5t93.5 -190.5q9 -144 -98 -215h-3q0 -2 -2 -2q-4 -4 -4 -13q0 -4 3 -6.5t7 -3.5h3h-2zM602 788
q-3 52 -40 78t-91 23l-92 -6l-8 -2q-9 0 -11 -4q-6 -6 -6 -15l13 -194q1 -1 2.5 -5t3.5 -6q4 -4 10 -4l104 6q57 3 87.5 37.5t27.5 91.5zM580 209q62 5 99.5 43t33.5 100q-3 55 -47.5 85t-122.5 26l-144 -10q-6 0 -10 -4q-6 -9 -6 -17l14 -217q0 -6 4 -10q9 -6 17 -6h4z" />
    <glyph glyph-name="uni0433" unicode="&#x433;" horiz-adv-x="866" 
d="M715 1065q62 -7 98 -42t29 -101q-7 -65 -50.5 -93.5t-103.5 -21.5l-299 24q-6 0 -10 -2q-8 -5 -8 -16v-10l-68 -645q-7 -73 -53 -114.5t-111 -33.5q-65 6 -100.5 55.5t-28.5 122.5l84 803q4 54 45 88t97 29z" />
    <glyph glyph-name="uni0434" unicode="&#x434;" horiz-adv-x="1239" 
d="M1079 272q64 -2 104.5 -45t43.5 -114l6 -211q1 -73 -38.5 -119.5t-104.5 -48.5t-108 42.5t-44 117.5l-4 100q0 6 -2 8q-9 9 -19 6h-2l-581 -16h-6q-12 0 -17 -8q-2 -2 -2 -11l6 -90q3 -73 -36.5 -119.5t-104.5 -48.5t-108 42.5t-44 117.5l-12 201q-2 74 37.5 120.5
t103.5 47.5h5q9 3 14 8q2 2 2 4q61 246 51 657q-3 78 36 122.5t105 47.5l525 15q65 2 107.5 -42.5t45.5 -117.5l19 -651q0 -4 4 -8q5 -7 16 -7h2zM778 264l-16 570v4q0 8 -6 14q-4 4 -11 4l-219 -6q-6 0 -10 -4q-6 -4 -6 -17v-2q0 -320 -51 -559l-2 -10q-1 -7 4 -18
q2 -2 12 -2h10l279 8q9 0 14 8q2 2 2 10z" />
    <glyph glyph-name="uni0435" unicode="&#x435;" horiz-adv-x="1134" 
d="M889 289q45 -6 75.5 -51t24.5 -93q-10 -61 -83.5 -107t-181 -63.5t-214.5 -1.5q-161 25 -275 117t-162 230t-24 298q17 110 71.5 207t134 164.5t185.5 99.5t219 15q114 -18 207 -82t147.5 -151t78.5 -186.5t10 -190.5q-11 -67 -46 -94t-102 -17l-606 92q-8 0 -10 -2
q-4 -4 -4 -16q6 -96 72.5 -156t168.5 -76q51 -8 101.5 2t83 26t68.5 28t61 8zM621 860q-89 13 -159 -33.5t-100 -132.5v-16q3 -6 11 -6l430 -68q10 0 12 4q4 4 4 19q-3 93 -54.5 156.5t-143.5 76.5z" />
    <glyph glyph-name="uni0436" unicode="&#x436;" horiz-adv-x="1593" 
d="M1544 276q39 -34 43 -96q2 -59 -36.5 -100.5t-96.5 -44.5q-36 -3 -68 18t-77 64l-361 348q-9 5 -14 0q-4 -3 -5.5 -8t-0.5 -9v-4l4 -294q3 -73 -35.5 -120t-103.5 -50t-108.5 39.5t-47.5 115.5l-4 299q0 12 -8 15q-7 5 -17 -5l-313 -409q-27 -31 -44 -47.5t-42.5 -32
t-50.5 -16.5q-59 -3 -101 35t-45 96q-4 61 33 100l315 379l2.5 2.5t3.5 6.5t1 9q0 6 -5 11l-274 253q-60 57 -63 113q-3 52 31 95t87 44q32 2 70.5 -12t65.5 -43l317 -330q1 -1 2.5 -1.5t6 -1.5t7.5 1q6 4 6 17l-12 231q-3 73 35.5 120t103.5 50t109 -40t47 -116l12 -229
q1 -12 9 -16q7 -5 14 2l285 368q25 32 61 50t68 20q54 3 91.5 -36t39.5 -91q3 -56 -51 -119l-248 -289q-4 -8 -4 -12q-2 -4 2 -8l6 -8z" />
    <glyph glyph-name="uni0437" unicode="&#x437;" horiz-adv-x="907" 
d="M733 553q65 -45 96 -124.5t19 -160.5q-23 -144 -143 -225t-302 -51q-104 16 -194 58.5t-142 104t-42 124.5q5 41 47 79.5t98 30.5q37 -6 68 -26.5t50 -42t54.5 -42.5t81.5 -28q57 -9 96.5 10.5t46.5 65.5q9 56 -14 88.5t-60.5 46t-75 25.5t-60.5 40.5t-15 77.5
q7 45 33.5 65.5t60 23.5t66.5 5.5t59 21t33 60.5q5 29 -12.5 53t-65.5 31q-40 7 -90 -7t-92 -29t-64 -11q-51 7 -79 51.5t-19 96.5q8 51 53.5 87.5t105.5 50.5t128 19t121 -6q84 -13 146 -47.5t95.5 -81t46.5 -99t4 -106.5q-11 -67 -46.5 -120t-92.5 -80q-6 -6 -6 -13
q-1 -4 0.5 -8t3.5 -6z" />
    <glyph glyph-name="uni0438" unicode="&#x438;" horiz-adv-x="1138" 
d="M874 1120q65 5 109.5 -37.5t48.5 -115.5l45 -787q3 -73 -35.5 -120t-103.5 -52q-65 -3 -108.5 40t-47.5 116l-22 399q-4 10 -12 12q-3 0 -7 -2.5t-7 -4.5l-3 -3l-350 -520q-49 -71 -117 -76q-65 -3 -109.5 40t-48.5 116l-45 786q-3 72 36 119.5t104 52.5q65 3 108 -39.5
t47 -115.5l23 -393v2q2 -11 12 -13l15 8l327 490q64 95 141 98z" />
    <glyph glyph-name="uni0439" unicode="&#x439;" horiz-adv-x="1138" 
d="M639 1151q-50 4 -101.5 20.5t-99 45t-75 74t-23.5 100.5q5 49 30.5 83t71.5 31q35 -3 58 -19.5t35.5 -38t25.5 -43.5t36 -38.5t58 -19.5q30 -2 54 10.5t40.5 31.5t34 38t45 31t64.5 9q36 -3 59.5 -45.5t20.5 -85.5q-4 -52 -39.5 -91.5t-86.5 -59.5t-105 -28.5t-103 -4.5z
M954 1077q64 -4 101.5 -53t31.5 -121l-67 -784q-6 -73 -50.5 -115t-109.5 -37q-65 6 -102 54.5t-31 121.5l35 400q-2 10 -10 12q-3 1 -7 -0.5t-7 -3.5l-3 -2l-422 -465q-56 -63 -127 -57q-65 5 -102 54t-31 122l68 782q6 73 51.5 115t110.5 37q64 -6 101.5 -54.5
t31.5 -121.5l-35 -392q0 -10 10 -12q3 -1 7 0.5t7 3.5l3 2l393 438q78 85 153 76z" />
    <glyph glyph-name="uni043A" unicode="&#x43a;" horiz-adv-x="1099" 
d="M1018 274q39 -32 47 -94q5 -59 -31 -103t-94 -48q-36 -4 -69 14.5t-80 58.5l-375 326q-12 6 -15 6q-4 -2 -6.5 -5.5t-2.5 -6.5l-1 -2l29 -281q7 -72 -29.5 -121t-101.5 -57q-64 -6 -109.5 35.5t-52.5 114.5l-80 782q-7 73 29.5 121.5t101.5 56.5q64 6 109.5 -35
t52.5 -114l25 -238q8 -8 12 -8q3 0 6.5 2.5t5.5 5.5l2 2l262 369q22 33 57.5 53t67.5 22q54 6 93 -30t44 -88q5 -57 -45 -123l-231 -289h2h-2l-2 -4q-5 -4 -2 -12q0 -4 1.5 -7t3.5 -5l1 -1z" />
    <glyph glyph-name="uni043B" unicode="&#x43b;" horiz-adv-x="1163" 
d="M981 1067q64 -6 101.5 -54.5t31.5 -121.5l-63 -770q-6 -73 -50.5 -115.5t-109.5 -36.5q-65 5 -102 53t-33 121l55 662q0 8 -4 10q-2 4 -10 8l-219 19q-1 0 -6 -2t-7 -4q-1 -1 -2 -5t-2 -6l-22 -286q-21 -260 -135.5 -390t-284.5 -118q-59 6 -90.5 47t-28.5 94q5 41 31 73
t69 42q54 11 93 66t49 173l34 435q6 73 51 114.5t109 36.5z" />
    <glyph glyph-name="uni043C" unicode="&#x43c;" horiz-adv-x="1478" 
d="M1409 121q3 -14 0 -29q-3 -60 -44 -98.5t-101 -34.5q-71 3 -107 41.5t-41 97.5l-41 498q0 8 -12 8q-4 0 -7 -2.5t-4 -5.5l-1 -2l-189 -506q-13 -41 -51.5 -69.5t-108.5 -24.5q-122 10 -145 115l-115 528q0 8 -12 10q-4 0 -6 -2t-4 -5l-2 -3l-101 -485
q-12 -58 -51.5 -91.5t-109.5 -27.5q-59 4 -96.5 47.5t-32.5 101.5q0 19 4 29l202 803q11 47 67 83.5t126 32.5q66 -4 115 -45t61 -88l125 -518q2 -8 12 -8q4 -1 7.5 1.5t4.5 5.5l1 3l192 492q19 45 73 78.5t120 29.5q72 -6 121.5 -49.5t54.5 -91.5z" />
    <glyph glyph-name="uni043D" unicode="&#x43d;" horiz-adv-x="1138" 
d="M965 1067q65 -6 100.5 -56t26.5 -122l-91 -783q-9 -73 -54.5 -113t-110.5 -32t-100.5 57.5t-26.5 122.5l32 265q0 6 -2 10q-5 8 -16 8h-2l-334 31h-2q-12 0 -18 -6q-5 -5 -5 -9v-10l-24 -260q-6 -73 -51.5 -114.5t-110.5 -35.5t-101.5 55t-29.5 122l70 784
q8 72 52.5 113.5t108.5 35.5q65 -6 102.5 -55t31.5 -121l-21 -215v-10q0 -6 2 -10q6 -6 10 -8l351 -31q6 0 12 6q4 4 4 8l31 228q9 73 55 113t111 32z" />
    <glyph glyph-name="uni043E" unicode="&#x43e;" horiz-adv-x="1138" 
d="M453 1102q148 32 284.5 -22t227.5 -168t122 -261q16 -91 11.5 -177.5t-37 -166t-82.5 -143.5t-126 -110.5t-167 -65.5q-114 -23 -221 1.5t-189.5 85.5t-141 154.5t-81.5 204.5q-16 89 -11 175.5t38 168t83 146.5t125.5 112.5t164.5 65.5zM631 254q56 12 96 47t57.5 82
t22.5 102t-8 107q-12 54 -37 101.5t-60.5 85.5t-86 55t-107.5 4q-57 -12 -97 -48t-57 -83.5t-21.5 -103t9.5 -107.5q11 -53 36 -100.5t60.5 -84t86 -53t106.5 -4.5z" />
    <glyph glyph-name="uni043F" unicode="&#x43f;" horiz-adv-x="1138" 
d="M872 1106q65 5 109.5 -39t48.5 -117l45 -776q4 -73 -34 -121t-103 -51t-109 40t-47 116l-41 661v2q0 9 -8 17q-2 2 -10 2l-348 -19q-4 0 -8 -4q-7 -7 -7 -12l54 -664q4 -73 -34.5 -121t-103.5 -51t-108.5 40t-46.5 116l-62 774q-3 72 36 119.5t104 50.5z" />
    <glyph glyph-name="uni0440" unicode="&#x440;" horiz-adv-x="1189" 
d="M698 1075q92 -7 168 -45.5t127 -98.5t85 -137.5t47 -161.5t8 -171q-8 -105 -49.5 -202t-108.5 -170.5t-163 -115t-204 -34.5q-123 9 -229 92l-8 6q-4 4 -11 4q-14 0 -14 -8l-2 -6l-25 -295q-6 -73 -50 -116t-109 -38t-102 53t-33 121l86 1186q6 73 50 116t109 38
q101 -6 129 -99h2v-2q4 -6 15 -10q6 0 10 4l8 4q45 48 116 69.5t148 16.5zM590 211q72 -5 129 38.5t86 107.5t33 135q5 73 -14.5 141.5t-70 119.5t-122.5 56q-111 7 -177.5 -75t-74.5 -199q-5 -76 13.5 -145t69.5 -121t128 -58z" />
    <glyph glyph-name="uni0441" unicode="&#x441;" horiz-adv-x="1015" 
d="M520 844q-61 -12 -104.5 -47t-63 -82t-26 -104t7.5 -113q24 -116 109 -191.5t198 -52.5q42 8 118 55t89 49q52 10 97.5 -20t55.5 -82q9 -43 -11 -84t-57 -71t-84 -55.5t-89.5 -40t-77.5 -21.5q-154 -31 -291.5 21.5t-228.5 166.5t-123 266q-31 149 9 291t146 246t257 135
q49 10 108 11.5t122.5 -6.5t110 -38t56.5 -80q12 -50 -10.5 -101.5t-71.5 -59.5q-35 -7 -116 6t-130 2z" />
    <glyph glyph-name="uni0442" unicode="&#x442;" horiz-adv-x="1001" 
d="M836 1102q61 5 103 -23t46 -94q6 -65 -31.5 -100.5t-97.5 -40.5l-178 -13q0 -1 -3.5 -2.5t-4.5 -3.5q-6 -3 -6 -10l53 -663q6 -73 -32 -122t-103 -55q-65 -5 -109.5 38t-50.5 116l-51 659q-3 10 -9 13q-4 4 -10 4l-190 -14q-60 -6 -97.5 25t-41.5 91q-3 56 30 96t88 44z
" />
    <glyph glyph-name="uni0443" unicode="&#x443;" horiz-adv-x="1028" 
d="M889 1059q49 -5 91.5 -45.5t39.5 -91.5q-6 -47 -21 -76l-585 -1188q-55 -112 -148 -104q-71 4 -109.5 45t-33.5 92q3 40 24 84q146 295 150 301q3 8 0 18l-272 815q-11 43 -9 76q4 53 51.5 86.5t96.5 30.5q111 -9 139 -115l162 -522q2 -10 12 -12q5 0 9.5 2.5t5.5 4.5
l2 3l241 502q46 100 154 94z" />
    <glyph glyph-name="uni0444" unicode="&#x444;" horiz-adv-x="1736" 
d="M1290 1155q109 -7 192.5 -63t129.5 -143.5t66.5 -190.5t13.5 -213q-5 -84 -29 -163.5t-66.5 -147.5t-98.5 -118.5t-130.5 -76.5t-157.5 -21q-105 6 -194 74q-2 2 -5 4t-10.5 5.5t-11.5 2.5q-8 0 -8 -12l-20 -315q-4 -73 -48.5 -116t-109.5 -38q-65 3 -103 51t-34 121
q20 310 20 316q0 11 -8 14q-4 1 -10.5 -1t-11.5 -4l-5 -3q-99 -55 -202 -49q-135 9 -233.5 96.5t-142 216t-34.5 270.5q7 110 40 210t90 180.5t146.5 125t198.5 37.5q55 -3 110.5 -26t94.5 -60q13 -13 22 -10q7 0 11 8l12 144q4 73 48.5 115.5t109.5 37.5q65 -3 103 -51
t34 -121l-15 -143q4 -9 9 -11q4 -1 8 0.5t9 3.5t7 3q89 68 213 61zM524 334q71 -3 126 28.5t59 98.5l20 330q4 54 -47 95t-119 46q-68 4 -120 -40.5t-78 -109.5t-31 -139q-4 -72 13 -138t63 -116t114 -55zM1169 293q68 -5 120 38.5t78 107.5t30 136q8 115 -42 211.5
t-147 102.5q-73 5 -126.5 -27t-57.5 -90q-16 -266 -20 -332q-4 -55 45.5 -98.5t119.5 -48.5z" />
    <glyph glyph-name="uni0445" unicode="&#x445;" horiz-adv-x="1093" 
d="M1030 301q21 -18 36.5 -44t18.5 -50q9 -65 -25.5 -110t-98.5 -52q-31 -5 -56.5 2t-38 15.5t-37.5 29.5l-264 248q-6 6 -16 6q-3 -1 -8 -5t-6 -5l-205 -303q-15 -25 -26 -38.5t-33.5 -26t-53.5 -17.5q-64 -8 -109.5 25.5t-54.5 97.5q-3 24 5 53.5t22 50.5l258 357
q4 8 4 14q0 8 -8 12l-273 232q-50 47 -59 100q-7 57 33.5 105.5t97.5 56.5q63 8 115 -41l221 -211h2q1 -1 3 -2l6 -3t7 -1q12 4 17 12l176 258q22 33 44.5 50.5t55.5 21.5q58 8 110.5 -29t59.5 -94q6 -55 -30 -111l-224 -297q-2 -2 -2 -10q0 -6 6 -12z" />
    <glyph glyph-name="uni0446" unicode="&#x446;" horiz-adv-x="1214" 
d="M1067 205q61 -8 96 -55t31 -117l-41 -197q-12 -74 -54 -115t-106 -38q-63 4 -101.5 53.5t-33.5 120.5q2 11 5.5 21t10 23t9.5 21l8 17q4 11 -6 18l-19 4l-665 47q-64 5 -101.5 53t-33.5 121l55 772q4 73 49.5 116t110.5 38q64 -5 101.5 -53t33.5 -121l-47 -662
q0 -8 6 -14q4 -4 8 -4h10l328 -25h10q6 0 10 4q7 3 7 11l47 663q6 72 50 114.5t109 37.5t102.5 -53t33.5 -121l-48 -662q0 -7 5 -12q4 -4 10 -4z" />
    <glyph glyph-name="uni0447" unicode="&#x447;" horiz-adv-x="1067" 
d="M811 1102q65 3 108 -41t46 -117l39 -784q3 -73 -37 -120t-105 -50t-107.5 39.5t-45.5 115.5l-11 209q-2 7 -8 13q-4 4 -10 4l-8 -2l-162 -7q-182 -9 -309.5 89t-134.5 260l-9 192q-3 72 36 119.5t104 50.5t108 -41t47 -117l8 -180q3 -59 51 -88t126 -26l133 6
q0 1 3.5 2.5t4.5 3.5q6 3 6 10l-12 289q-4 73 35 120t104 50z" />
    <glyph glyph-name="uni0448" unicode="&#x448;" horiz-adv-x="1638" 
d="M1456 1057q65 -5 102 -52.5t33 -119.5l-55 -774q-4 -72 -48.5 -114.5t-109.5 -37.5l-1185 84q-65 5 -102.5 53t-33.5 121l56 772q4 73 48.5 116t108.5 38q65 -5 103.5 -53t34.5 -121l-50 -664q5 -10 7 -12q8 -4 10 -4l266 -19q6 0 10 2q2 2 3.5 4.5t2 5t0.5 4.5v4v1
l48 655q6 73 50 116t109 38t102 -53t33 -121l-47 -664q0 -6 4 -10q1 -1 11 -6l266 -19q6 0 10 4q8 8 8 15v4l45 655q6 73 50.5 115t109.5 37z" />
    <glyph glyph-name="uni0449" unicode="&#x449;" horiz-adv-x="1757" 
d="M1583 244q63 -2 104 -45.5t44 -114.5l-13 -205q2 -74 -37.5 -120.5t-103.5 -47.5q-65 -2 -108 42.5t-46 117.5l17 90q0 9 -8 14q-2 5 -11 5h-8l-1177 -39q-65 -2 -108 42t-46 117l-25 774q-3 73 37 119.5t105 48.5t107.5 -42t45.5 -117l21 -662q0 -9 8 -14q2 -2 8 -2
l266 8q7 0 11 4q6 6 6 12l-21 664q-3 73 37 119.5t105 48.5q65 3 107.5 -41t43.5 -117l23 -665q0 -5 6 -11q8 -4 10 -4l266 8q1 1 5.5 2.5t5.5 2.5q6 9 6 18v2l-23 657q-1 73 38.5 119.5t104.5 48.5t108 -42t44 -117l23 -664q0 -6 4 -8q6 -6 10 -6h8z" />
    <glyph glyph-name="uni044A" unicode="&#x44a;" horiz-adv-x="1261" 
d="M778 670q179 -21 276.5 -119t78.5 -268q-18 -163 -128 -245.5t-274 -64.5l-383 43q-65 6 -100.5 56t-28.5 123l72 647q0 10 -2 12q-3 3 -13 8l-81 15q-61 9 -91 46t-24 97q6 55 46 87.5t95 27.5l246 -37q65 -6 100.5 -55.5t28.5 -122.5l-23 -205v-2q-2 -8 5 -19
q4 -4 10 -4l8 -2zM715 221q52 -6 86.5 20t38.5 76q5 43 -24.5 74.5t-90.5 38.5l-156 16l-8 3q-2 0 -12 -5q-5 -5 -8 -14v-2l-17 -164l-2 -2q0 -12 6 -16q3 -6 9 -6z" />
    <glyph glyph-name="uni044B" unicode="&#x44b;" horiz-adv-x="1476" 
d="M1253 1081q65 -3 104.5 -51t35.5 -121l-39 -784q-4 -73 -47.5 -116t-108.5 -40t-103.5 50t-35.5 120l39 787q4 73 47 115.5t108 39.5zM641 682q117 -13 199.5 -57.5t126 -128t32.5 -199.5q-17 -162 -126.5 -245t-272.5 -66l-385 39q-64 6 -100 55.5t-29 122.5l78 770
q7 73 52.5 113t109.5 34q65 -6 101.5 -55.5t29.5 -122.5l-23 -221q0 -10 6 -16q5 -5 9 -5zM582 233q50 -6 84.5 21t40.5 78q3 43 -26.5 73t-90.5 37l-156 15l-10 2q-6 0 -10 -4q-4 -5 -8 -15l-17 -170q0 -10 4 -14q2 -2 10 -6z" />
    <glyph glyph-name="uni044C" unicode="&#x44c;" horiz-adv-x="1024" 
d="M565 725q117 10 207 -18.5t148 -103t67 -189.5q13 -164 -79 -265.5t-257 -113.5l-383 -33q-65 -5 -110.5 37t-51.5 115l-63 772q-6 73 31.5 121.5t101.5 54.5q65 5 110.5 -37t51.5 -115l18 -227q0 -4 6 -10q4 -2 11 -2zM588 274q51 3 80 35.5t26 83.5q-5 43 -39.5 67.5
t-95.5 20.5l-156 -12l-10 -2q-6 -2 -10 -4q-4 -8 -4 -10l14 -181q0 -4 6 -10q4 -4 11 -4z" />
    <glyph glyph-name="uni044D" unicode="&#x44d;" horiz-adv-x="966" 
d="M502 1116q149 -22 258.5 -119.5t156.5 -236t25 -287.5q-35 -233 -206 -375t-400 -108q-44 6 -99 25t-111 49.5t-90.5 77.5t-27.5 100q7 52 50 84t96 26q13 -2 89 -44.5t117 -49.5q85 -11 152.5 33.5t103.5 122.5q5 7 0 12q-2 4 -14 4l-207 16q-55 8 -86 42.5t-22 91.5
q8 59 47.5 82.5t95.5 15.5l180 -12l15 -2q6 0 10 2q7 4 4 14q-46 150 -190 170q-50 7 -128.5 -10.5t-111.5 -12.5q-49 7 -74 56.5t-18 99.5q8 50 53.5 83t104 43t121.5 13t106 -6z" />
    <glyph glyph-name="uni044E" unicode="&#x44e;" horiz-adv-x="1593" 
d="M967 1145q113 11 217 -27.5t178.5 -111t122.5 -172.5t57 -211q14 -152 -39 -286.5t-168 -223t-268 -101.5q-199 -18 -348 92t-205 299q-5 16 -6 17q-6 6 -10 6h-6l-84 -8q-3 0 -11 -4q-4 -4 -4 -15l10 -268q6 -73 -31 -121.5t-102 -54.5q-64 -6 -108.5 35.5t-52.5 113.5
l-56 785q-6 73 31 121.5t102 54.5t110.5 -36t51.5 -114l19 -223q3 -9 8 -14q4 -2 10 -2l88 6l8 2q7 0 11 4q3 3 5 7.5t3 8.5v3q37 177 162 300t305 138zM1042 281q76 7 126.5 57.5t68.5 117.5t12 140q-6 75 -35.5 139t-88 106.5t-134.5 35.5q-77 -7 -127.5 -58.5t-68 -119.5
t-11.5 -142t35.5 -137.5t88 -104.5t134.5 -34z" />
    <glyph glyph-name="uni044F" unicode="&#x44f;" horiz-adv-x="983" 
d="M680 1122q64 8 110.5 -33t53.5 -114l86 -768q7 -73 -28.5 -122.5t-100.5 -57.5q-65 -6 -111 34t-53 113l-27 229q0 10 -8 13q-4 2 -7 0.5t-5 -4.5l-2 -2l-269 -396q-33 -51 -100 -59q-60 -6 -103.5 31.5t-49.5 93.5q-4 49 26 86l203 262q4 8 4 12q-2 8 -12 13
q-103 20 -172 82.5t-80 166.5q-20 174 70 270.5t270 117.5zM584 643l-27 238q0 6 -8 10q-2 4 -10 4l-9 -2l-73 -8q-64 -6 -99.5 -45.5t-29.5 -104.5q7 -63 50 -94t107 -25l84 11q7 0 11 4t4 12z" />
    <glyph glyph-name="uni0451" unicode="&#x451;" horiz-adv-x="1130" 
d="M889 1130q-60 13 -92.5 65t-18.5 112q13 60 64.5 92t111.5 18q60 -13 92.5 -64.5t18.5 -111.5q-13 -60 -64.5 -92.5t-111.5 -18.5zM449 1233q-60 14 -92 65t-17 111q13 60 64.5 92.5t111.5 18.5q60 -13 92.5 -65t18.5 -112q-13 -60 -65.5 -92t-112.5 -18zM862 322
q46 -6 77.5 -51.5t23.5 -92.5q-8 -62 -74 -113t-169 -75t-208 -8q-162 22 -277 112.5t-164.5 228t-27.5 298.5q16 110 70 207t132.5 165.5t184 101.5t217.5 17q114 -16 207.5 -79t149.5 -149.5t81 -186t13 -191.5q-9 -66 -45 -94t-103 -19l-606 86q-6 2 -10 -2t-4 -22
q9 -93 76 -151.5t167 -72.5q51 -7 98 7t74.5 34.5t59.5 36.5t57 13zM612 868q-88 12 -157 -35t-99 -131q0 -2 -1.5 -10t-0.5 -10q3 -6 13 -6l432 -62q8 0 12 4q2 2 2 15q-3 94 -55 158t-146 77z" />
    <glyph glyph-name="uni0452" unicode="&#x452;" horiz-adv-x="1148" 
d="M801 401q0 147 -51.5 205t-141.5 58q-88 0 -138 -57t-50 -146v-309q0 -73 -41.5 -118.5t-106.5 -45.5t-106 45.5t-41 118.5v905h-51q-54 0 -84.5 31.5t-30.5 85.5q0 50 33 83t82 33h51v123q0 73 41 118.5t106 45.5t106.5 -45.5t41.5 -118.5v-123h354q56 0 91.5 -28.5
t35.5 -87.5q0 -58 -36 -87.5t-91 -29.5h-354v-250h4q42 53 116 77.5t152 24.5q119 0 208 -43.5t142.5 -140t53.5 -238.5q0 -123 -22 -236t-54 -195.5t-83 -165.5t-94.5 -137t-103.5 -120q-20 -27 -55 -51q-23 -18 -57 -18q-47 0 -94.5 36.5t-47.5 84.5q0 26 35 82
q111 157 176 266q105 174 105 368z" />
    <glyph glyph-name="uni0453" unicode="&#x453;" horiz-adv-x="839" 
d="M254 1464l242 99q52 20 77 20q44 0 77.5 -41.5t33.5 -85.5q0 -87 -84 -121l-229 -90q-9 -4 -18.5 -7.5t-13 -5.5t-9.5 -3.5t-6.5 -2t-6 -1t-6.5 -0.5h-9h-13q-44 0 -76.5 46.5t-32.5 102.5q0 23 16 46t42 36zM74 152v809q0 54 37 91.5t92 37.5h495q62 0 102 -31.5
t40 -97.5q0 -65 -40 -97.5t-102 -32.5h-329v-679q0 -73 -41.5 -118.5t-106.5 -45.5t-106 45.5t-41 118.5z" />
    <glyph glyph-name="uni0454" unicode="&#x454;" horiz-adv-x="948" 
d="M924 178q0 -53 -40.5 -95t-101 -64t-117.5 -33t-102 -11q-154 0 -276 78t-187 207t-65 283q0 111 39.5 215t107.5 182.5t167.5 126t213.5 47.5q50 0 107 -9.5t116.5 -29.5t98.5 -58.5t39 -88.5q0 -51 -32 -96.5t-81 -45.5q-35 0 -109 29t-124 29q-81 0 -138 -43.5
t-86 -116.5h215q56 0 91.5 -29t35.5 -88q0 -58 -36 -87t-91 -29h-227q23 -89 85 -147t151 -58q42 0 124 30.5t95 30.5q52 0 89.5 -38t37.5 -91z" />
    <glyph glyph-name="uni0455" unicode="&#x455;" horiz-adv-x="872" 
d="M825 901q0 -52 -34.5 -91.5t-85.5 -39.5q-22 0 -68.5 21.5t-101 43t-95.5 21.5q-43 0 -71.5 -21t-28.5 -61q0 -27 28 -50t73.5 -41t100 -38t109 -47.5t100 -62.5t73.5 -90t28 -123q0 -150 -116 -248.5t-304 -98.5q-86 0 -180 28.5t-163 82.5t-69 117q0 41 35.5 86
t91.5 45q38 0 77 -16t67 -34.5t71.5 -34.5t90.5 -16q65 0 90.5 20.5t25.5 63.5q0 27 -28 49.5t-73.5 40.5t-100 38t-109 47.5t-100 63t-73.5 90.5t-28 124q0 153 112 248.5t288 95.5q57 0 119 -13.5t119 -38.5t93.5 -67t36.5 -94z" />
    <glyph glyph-name="uni0456" unicode="&#x456;" horiz-adv-x="454" 
d="M80 152v786q0 73 41 118.5t106 45.5t106.5 -45.5t41.5 -118.5v-786q0 -73 -41.5 -118.5t-106.5 -45.5t-106 45.5t-41 118.5zM227 1544q66 0 116 -49t50 -113q0 -69 -48.5 -119.5t-117.5 -50.5q-66 0 -116 51t-50 119q0 63 50 112.5t116 49.5z" />
    <glyph glyph-name="uni0457" unicode="&#x457;" horiz-adv-x="454" 
d="M80 152v786q0 73 41 118.5t106 45.5t106.5 -45.5t41.5 -118.5v-786q0 -73 -41.5 -118.5t-106.5 -45.5t-106 45.5t-41 118.5zM305 1382q0 62 43.5 105t104.5 43t104 -43t43 -105t-43 -104.5t-104 -42.5q-62 0 -105 43t-43 104zM-145 1382q0 62 43 105t104 43q62 0 105 -43
t43 -105q0 -61 -43 -104t-105 -43t-104.5 42.5t-42.5 104.5z" />
    <glyph glyph-name="uni0458" unicode="&#x458;" horiz-adv-x="454" 
d="M80 -283v1221q0 73 41 118.5t106 45.5t106.5 -45.5t41.5 -118.5v-1221q0 -73 -41.5 -118t-106.5 -45t-106 45t-41 118zM227 1544q66 0 116 -49t50 -113q0 -69 -48.5 -119.5t-117.5 -50.5q-66 0 -116 51t-50 119q0 63 50 112.5t116 49.5z" />
    <glyph glyph-name="uni0459" unicode="&#x459;" horiz-adv-x="1699" 
d="M1659 350q0 -163 -101 -256.5t-266 -93.5h-385q-65 0 -106 45.5t-41 118.5v667h-250v-305q0 -260 -103.5 -399t-273.5 -139q-59 0 -94 39t-35 92q0 41 24 74.5t66 46.5q121 37 121 252v434q0 73 41 118.5t106 45.5h545q65 0 106.5 -45.5t41.5 -118.5v-230h209
q180 0 287.5 -87t107.5 -259zM1364 354q0 43 -33 71t-94 28h-182v-209h194q52 0 83.5 30t31.5 80z" />
    <glyph glyph-name="uni045A" unicode="&#x45a;" horiz-adv-x="1699" 
d="M1659 350q0 -163 -101 -256.5t-266 -93.5h-385q-65 0 -106 45.5t-41 118.5v274h-381v-286q0 -73 -41.5 -118.5t-106.5 -45.5t-106 45.5t-41 118.5v786q0 73 41 118.5t106 45.5t106.5 -45.5t41.5 -118.5v-242h381v242q0 73 41 118.5t106 45.5t106.5 -45.5t41.5 -118.5
v-242h209q180 0 287.5 -87t107.5 -259zM1364 354q0 43 -33 71t-94 28h-182v-209h194q52 0 83.5 30t31.5 80z" />
    <glyph glyph-name="uni045B" unicode="&#x45b;" horiz-adv-x="1179" 
d="M1096 152q0 -73 -41.5 -118.5t-106.5 -45.5t-106 45.5t-41 118.5v309q0 98 -54.5 150.5t-138.5 52.5q-88 0 -138 -57t-50 -146v-309q0 -73 -41.5 -118.5t-106.5 -45.5t-106 45.5t-41 118.5v905h-51q-54 0 -84.5 31.5t-30.5 85.5q0 50 33 83t82 33h51v123q0 73 41 118.5
t106 45.5t106.5 -45.5t41.5 -118.5v-123h354q56 0 91.5 -28.5t35.5 -87.5q0 -58 -36 -87.5t-91 -29.5h-354v-250h4q42 53 116 77.5t152 24.5q178 0 291 -107t113 -290v-360z" />
    <glyph glyph-name="uni045C" unicode="&#x45c;" horiz-adv-x="1024" 
d="M356 1464l242 99q52 20 78 20q44 0 77 -41.5t33 -85.5q0 -87 -84 -121l-229 -90q-9 -4 -18.5 -7.5t-13 -5.5t-9.5 -3.5t-6.5 -2t-6 -1t-6.5 -0.5h-9h-13q-44 0 -76 46.5t-32 102.5q0 23 15.5 46t41.5 36zM84 152v786q0 73 41 118.5t106 45.5t106.5 -45.5t41.5 -118.5
v-270l323 370q26 30 64 47t70 17q54 0 89.5 -40.5t35.5 -92.5q0 -56 -58 -117l-274 -281l358 -346q37 -37 37 -98q0 -59 -40 -99t-99 -40q-25 0 -51.5 14t-44.5 30.5t-46 45.5l-360 383h-4v-309q0 -73 -41.5 -118.5t-106.5 -45.5t-106 45.5t-41 118.5z" />
    <glyph glyph-name="uni045E" unicode="&#x45e;" horiz-adv-x="985" 
d="M182 1360q0 49 22.5 86t69.5 37q35 0 59.5 -14.5t39 -35l29 -41t39 -35t59.5 -14.5q30 0 52.5 14.5t37 35t30 41t42 35t63.5 14.5q38 0 65 -40t27 -83q0 -69 -55 -119.5t-125 -72t-137 -21.5q-50 0 -103 12t-102.5 36t-81 67t-31.5 98zM336 86l-326 813q-14 40 -14 76
q0 53 45 90t94 37q108 0 148 -105l202 -555l217 555q40 105 148 105q49 0 94 -37t45 -90q0 -44 -14 -76l-494 -1229q-48 -116 -139 -116q-71 0 -112.5 38t-41.5 89q0 35 19 86z" />
    <glyph glyph-name="uni045F" unicode="&#x45f;" horiz-adv-x="1138" 
d="M424 0h-193q-65 0 -106 45.5t-41 118.5v774q0 73 41 118.5t106 45.5t106.5 -45.5t41.5 -118.5v-680h381v680q0 73 41 118.5t106 45.5t106.5 -45.5t41.5 -118.5v-774q0 -73 -41.5 -118.5t-106.5 -45.5h-188v-233q0 -73 -41.5 -118.5t-106.5 -45.5t-106 45.5t-41 118.5v233
z" />
    <glyph glyph-name="uni0490" unicode="&#x490;" horiz-adv-x="909" 
d="M913 1317q0 -57 -36 -99t-101 -42h-377v-1029q0 -75 -42.5 -117t-110.5 -42t-111 42t-43 117v1151q0 66 43.5 113t116.5 47h366v101q0 73 41.5 118t106.5 45t106 -45t41 -118v-242z" />
    <glyph glyph-name="uni0491" unicode="&#x491;" horiz-adv-x="839" 
d="M840 961q0 -65 -40 -97.5t-102 -32.5h-329v-679q0 -73 -41.5 -118.5t-106.5 -45.5t-106 45.5t-41 118.5v809q0 54 37 91.5t92 37.5h342v112q0 73 41 118.5t106 45.5t106.5 -45.5t41.5 -118.5v-241z" />
    <glyph glyph-name="endash" unicode="&#x2013;" horiz-adv-x="1024" 
d="M903 700q56 -1 88.5 -36t30.5 -91q-3 -56 -37.5 -87.5t-89.5 -28.5l-778 30q-55 3 -87 38t-30 91q3 55 37 86.5t90 30.5z" />
    <glyph glyph-name="emdash" unicode="&#x2014;" horiz-adv-x="2048" 
d="M2050 686q57 -3 89 -37t30 -90t-36 -88t-91 -31l-2044 62q-57 3 -89 37t-30 90t36 88t91 31z" />
    <glyph glyph-name="quoteleft" unicode="&#x2018;" horiz-adv-x="491" 
d="M438 1278l-147 -317q-17 -34 -51 -55t-62 -23q-55 -5 -99 31.5t-48 91.5q-2 35 18 84l146 317q16 34 50 56t62 24q56 3 102 -33.5t50 -91.5q2 -32 -21 -84z" />
    <glyph glyph-name="quoteright" unicode="&#x2019;" horiz-adv-x="491" 
d="M291 961q-17 -34 -51 -55t-62 -23q-55 -5 -99 31.5t-48 91.5q-2 35 18 84l146 317q16 34 50 56t62 24q56 3 102 -33.5t50 -91.5q2 -32 -21 -84z" />
    <glyph glyph-name="quotesinglbase" unicode="&#x201a;" horiz-adv-x="491" 
d="M307 -199q-12 -35 -44 -59t-60 -27q-55 -8 -102 25t-56 88q-5 35 12 84l123 330q14 34 47 57.5t62 28.5q55 8 102.5 -26t54.5 -87q3 -24 -14 -86z" />
    <glyph glyph-name="quotedblleft" unicode="&#x201c;" horiz-adv-x="909" 
d="M463 1262l-137 -324q-14 -34 -47 -56.5t-62 -25.5q-55 -6 -100 29t-51 90q-5 34 14 84l135 323q14 34 48.5 57t62.5 25q55 6 102 -28.5t53 -89.5q3 -37 -18 -84zM834 1309l-136 -324q-16 -36 -48 -58t-60 -24q-56 -6 -102 29t-52 90q-4 29 15 84l135 324q16 34 49 56
t61 25q56 6 103 -28.5t53 -89.5q3 -38 -18 -84z" />
    <glyph glyph-name="quotedblright" unicode="&#x201d;" horiz-adv-x="909" 
d="M326 938q-14 -34 -47 -56.5t-62 -25.5q-55 -6 -100 29t-51 90q-5 34 14 84l135 323q14 34 48.5 57t62.5 25q55 6 102 -28.5t53 -89.5q3 -37 -18 -84zM698 985q-16 -36 -48 -58t-60 -24q-56 -6 -102 29t-52 90q-4 29 15 84l135 324q16 34 49 56t61 25q56 6 103 -28.5
t53 -89.5q3 -38 -18 -84z" />
    <glyph glyph-name="quotedblbase" unicode="&#x201e;" horiz-adv-x="909" 
d="M309 -215q-18 -33 -52.5 -53.5t-61.5 -20.5q-56 -3 -99.5 34.5t-46.5 92.5q0 35 21 82l155 316q17 34 51.5 53.5t63.5 21.5q56 3 100 -35.5t47 -93.5q2 -31 -22 -82zM717 -197q-12 -35 -44.5 -59t-60.5 -27q-54 -9 -102 24t-55 87q-5 37 12 86l121 328q12 35 44.5 59
t61.5 29q55 8 103 -25t57 -88q5 -34 -14 -84z" />
    <glyph glyph-name="dagger" unicode="&#x2020;" horiz-adv-x="1290" 
d="M504 -305v1075h-336q-53 0 -85 34t-32 95t32 95t85 34h336v313q0 67 38 104.5t103 37.5t103 -37.5t38 -104.5v-313h336q53 0 85 -34t32 -95t-32 -95t-85 -34h-336v-1075q0 -67 -38 -104t-103 -37t-103 37t-38 104z" />
    <glyph glyph-name="daggerdbl" unicode="&#x2021;" horiz-adv-x="1290" 
d="M504 -305v317h-336q-53 0 -85 34t-32 95t32 95t85 34h336v500h-336q-53 0 -85 34t-32 95t32 95t85 34h336v313q0 67 38 104.5t103 37.5t103 -37.5t38 -104.5v-313h336q53 0 85 -34t32 -95t-32 -95t-85 -34h-336v-500h336q53 0 85 -34t32 -95t-32 -95t-85 -34h-336v-317
q0 -67 -38 -104t-103 -37t-103 37t-38 104z" />
    <glyph glyph-name="bullet" unicode="&#x2022;" horiz-adv-x="1024" 
d="M168 709q0 151 106.5 257.5t257.5 106.5t258 -106.5t107 -257.5t-107 -258t-258 -107t-257.5 107t-106.5 258z" />
    <glyph glyph-name="ellipsis" unicode="&#x2026;" horiz-adv-x="2048" 
d="M381 283q66 0 113 -47t47 -113t-47 -113t-113 -47t-113 47t-47 113t47 113t113 47zM995 326q66 0 113 -47t47 -113t-47 -113t-113 -47t-112.5 47t-46.5 113t46.5 113t112.5 47zM1669 264q66 0 113 -46t47 -112t-47 -112.5t-113 -46.5t-113 46.5t-47 112.5t47 112t113 46z
" />
    <glyph glyph-name="perthousand" unicode="&#x2030;" horiz-adv-x="2199" 
d="M18 1077q-6 136 79.5 237t219.5 107t229 -87.5t101 -229.5q6 -134 -80.5 -235t-220.5 -107q-135 -6 -229 87t-99 228zM438 1096q-2 51 -32 85t-78 31q-49 -1 -77 -38t-26 -89q3 -52 33.5 -84.5t79.5 -29.5q49 1 75.5 37t24.5 88zM920 1436q19 39 38 53.5t54 15.5
q46 2 84 -30.5t41 -79.5q0 -27 -15 -62l-628 -1315q-19 -30 -26.5 -40t-24.5 -20t-40 -11q-41 -2 -80 31t-40 77q-2 28 16 76zM766 367q-6 136 80.5 238t220.5 106q134 6 229 -87.5t101 -228.5q5 -136 -81 -237t-220 -107t-229 87t-101 229zM1188 385q-3 52 -33.5 86
t-79.5 33q-49 -3 -75.5 -40t-24.5 -87q2 -51 32 -84.5t78 -32.5q49 1 77 37t26 88zM1542 272q-21 134 55 244.5t209 130.5q132 20 236 -64t123 -218q21 -134 -54 -242.5t-208 -128.5t-236.5 62t-124.5 216zM1960 334q-8 52 -42 82.5t-83 23.5q-48 -7 -71 -46.5t-15 -90.5
q8 -52 41 -81.5t82 -22.5t71.5 46t16.5 89z" />
    <glyph glyph-name="guilsinglleft" unicode="&#x2039;" horiz-adv-x="606" 
d="M344 569l143 -241q19 -32 19 -70q-3 -55 -39 -90.5t-90 -32.5q-31 2 -58.5 16.5t-42.5 38.5l-192 336q-16 26 -16 76q2 39 55 111l213 270q34 34 90 31q53 -3 84 -37.5t29 -81.5q-3 -38 -27 -76l-166 -227q-7 -14 -2 -23z" />
    <glyph glyph-name="guilsinglright" unicode="&#x203a;" horiz-adv-x="606" 
d="M266 561q7 11 0 21l-137 245q-19 39 -16 80q3 46 37.5 77t87.5 28q58 -6 86 -41l178 -293q43 -75 41 -119q-4 -44 -23 -72l-233 -309q-39 -48 -105 -45q-55 4 -86 43t-28 94q4 38 28 68z" />
    <glyph glyph-name="uni2116" unicode="&#x2116;" horiz-adv-x="2222" 
d="M1761 197q-101 7 -177 59t-112.5 132t-29.5 171q9 139 113.5 233.5t252.5 84.5q147 -10 237 -118t79 -247q-9 -141 -111.5 -233t-251.5 -82zM1796 717q-48 4 -85 -22.5t-54.5 -65t-20.5 -82.5q-3 -71 31.5 -129t104.5 -62q67 -4 109.5 48t47.5 122q3 44 -8 84.5t-43.5 72
t-81.5 34.5zM2011 133q38 -3 58.5 -25t17.5 -59q-2 -37 -25 -57t-61 -17l-520 35q-37 3 -58 26.5t-18 59.5q1 37 25 57t61 17zM1241 1434q68 -5 107.5 -50t35.5 -120l-81 -1158q-4 -75 -50 -114.5t-114 -34.5q-30 3 -67.5 26t-55.5 52l-572 872q-8 12 -12.5 15t-6.5 -1
t-3 -14l-51 -735q-4 -75 -50 -114.5t-114 -34.5t-107.5 50t-33.5 120l79 1159q6 75 51 113.5t113 33.5q30 -2 68.5 -24.5t56.5 -51.5l572 -886q11 -14 14.5 -12.5t5.5 16.5l51 745q6 74 51.5 113.5t112.5 34.5z" />
    <glyph glyph-name="trademark" unicode="&#x2122;" horiz-adv-x="2048" 
d="M780 1485q41 -3 64.5 -29t19.5 -70t-31.5 -65t-68.5 -18l-131 12h-8q-19 3 -23 -19l-2 -12l-45 -500q-5 -56 -40.5 -86t-92.5 -26q-57 6 -86.5 41.5t-24.5 91.5l45 514q3 18 -18 22h-8l-131 13q-41 3 -64.5 29.5t-19.5 70.5t31.5 65.5t68.5 16.5zM1772 1407
q92 -8 129 -46.5t32 -96.5l-53 -602q-7 -61 -33.5 -90t-87.5 -23q-62 6 -83.5 39t-16.5 94l35 383q0 13 -5 15t-12 -11l-168 -375q-19 -41 -32 -61t-40.5 -36t-66.5 -13q-57 5 -80 36.5t-39 98.5l-96 395q-4 11 -8 14t-6.5 -1t-3.5 -11l-35 -385q-5 -59 -32 -87.5t-89 -22.5
q-62 4 -83.5 37t-16.5 94l55 602q11 126 184 110q67 -5 106.5 -32t63.5 -109l105 -358q7 -21 16 -7l4 9v2l164 327q20 41 42.5 66t46 34t50 12t54.5 -1z" />
    <glyph glyph-name="notequal" unicode="&#x2260;" horiz-adv-x="1638" 
d="M1561 729q0 -202 -99.5 -372.5t-270 -269.5t-372.5 -99q-151 0 -288.5 58.5t-236.5 157.5t-157.5 236.5t-58.5 288.5t58.5 288.5t157.5 236.5t236.5 157.5t288.5 58.5q202 0 372.5 -99t270 -269.5t99.5 -372.5zM1393 729q0 119 -46.5 228t-124 187t-183 124.5
t-220.5 46.5t-220.5 -46.5t-183 -124.5t-123.5 -187t-46 -228t46 -228t123.5 -187t183 -124.5t220.5 -46.5t220.5 46.5t183 124.5t124 187t46.5 228zM819 657h-108v-292q0 -66 -68 -66t-68 66v727q0 51 48 51h208q160 0 235 -55t75 -189q0 -124 -73.5 -183t-248.5 -59z
M711 780h94q47 0 76.5 3.5t61.5 15.5t47.5 39.5t15.5 70.5q0 36 -16 60t-46.5 34t-58.5 13.5t-68 3.5h-106v-240z" />
    <glyph glyph-name="hyphen" horiz-adv-x="796" 
d="M166 694l432 56q55 7 90 -25t43 -90q6 -55 -19.5 -94.5t-80.5 -46.5l-432 -56q-54 -7 -89.5 25t-41.5 86q-8 57 18 97.5t80 47.5z" />
  </font>
</defs>
</svg>
